M48
; DRILL file {KiCad 8.0.6-8.0.6-0~ubuntu24.04.1} date 2024-10-27T13:02:44+0100
; FORMAT={-:-/ absolute / metric / decimal}
; #@! TF.CreationDate,2024-10-27T13:02:44+01:00
; #@! TF.GenerationSoftware,Kicad,Pcbnew,8.0.6-8.0.6-0~ubuntu24.04.1
; #@! TF.FileFunction,Plated,1,2,PTH
FMAT,2
METRIC
; #@! TA.AperFunction,Plated,PTH,ViaDrill
T1C0.300
; #@! TA.AperFunction,Plated,PTH,ComponentDrill
T2C0.762
; #@! TA.AperFunction,Plated,PTH,ComponentDrill
T3C1.000
; #@! TA.AperFunction,Plated,PTH,ComponentDrill
T4C1.500
; #@! TA.AperFunction,Plated,PTH,ComponentDrill
T5C4.100
%
G90
G05
T1
X46.839Y-56.603
X50.239Y-81.303
X50.339Y-105.303
X50.339Y-109.603
X50.639Y-43.803
X51.639Y-114.803
X54.739Y-81.303
X56.62Y-77.203
X56.639Y-96.203
X57.439Y-59.603
X58.439Y-81.003
X59.045Y-49.808
X59.339Y-67.603
X59.614Y-87.173
X60.639Y-53.303
X60.839Y-45.647
X61.139Y-73.803
X62.639Y-42.503
X63.339Y-81.603
X63.658Y-55.122
X66.299Y-91.043
X66.539Y-88.703
X66.639Y-70.003
X68.94Y-46.704
X69.339Y-65.103
X69.339Y-84.103
X69.939Y-69.303
X70.039Y-45.703
X70.227Y-82.715
X70.239Y-50.912
X70.339Y-67.851
X70.339Y-88.703
X71.239Y-77.703
X71.339Y-97.103
X73.002Y-45.165
X73.339Y-49.103
X73.339Y-102.103
X73.589Y-85.853
X73.602Y-63.565
X74.689Y-61.503
X76.239Y-64.003
X76.339Y-83.103
X76.339Y-87.204
X77.839Y-103.603
X77.939Y-65.704
X78.339Y-49.103
X78.339Y-62.574
X78.44Y-85.502
X79.339Y-90.703
X79.539Y-70.203
X79.839Y-63.103
X79.839Y-101.103
X80.039Y-53.603
X81.929Y-81.864
X82.404Y-149.028
X82.624Y-135.538
X83.839Y-120.638
X85.339Y-45.103
X85.464Y-52.328
X85.514Y-109.278
X85.564Y-71.128
X85.714Y-90.078
X86.839Y-117.603
X87.339Y-82.603
X87.839Y-46.603
X88.339Y-65.103
X88.439Y-84.103
X88.887Y-103.651
X89.139Y-80.653
X89.339Y-106.878
X89.464Y-133.818
X89.494Y-130.748
X89.539Y-97.103
X90.239Y-81.864
X90.439Y-78.403
X90.939Y-60.203
X91.489Y-63.153
X91.659Y-44.623
X91.939Y-99.403
X92.31Y-104.632
X92.339Y-109.103
X92.839Y-68.103
X92.839Y-117.603
X92.906Y-50.643
X93.649Y-48.483
X93.689Y-91.723
X93.699Y-72.693
X94.034Y-122.608
X94.239Y-78.733
X94.339Y-53.573
X94.564Y-145.828
X94.839Y-101.103
X94.839Y-119.103
X95.039Y-84.804
X95.184Y-125.758
X95.739Y-105.703
X96.024Y-150.948
X96.229Y-82.393
X96.534Y-139.938
X97.219Y-108.153
X97.269Y-48.693
X97.279Y-63.743
X98.349Y-49.533
X98.749Y-69.303
X98.944Y-139.388
X99.114Y-144.268
X99.169Y-105.703
X102.839Y-64.013
X103.214Y-124.398
X103.244Y-121.188
X104.239Y-82.463
X104.289Y-60.943
X104.289Y-79.883
X104.289Y-99.283
X104.789Y-70.153
X106.299Y-44.644
X106.349Y-65.343
X106.909Y-84.033
X107.214Y-124.738
X107.839Y-46.693
X108.994Y-123.228
X109.514Y-118.988
X109.739Y-82.293
X109.769Y-44.483
X110.529Y-51.283
X110.774Y-138.728
X111.062Y-136.148
X111.139Y-89.123
X111.179Y-70.533
X111.329Y-65.583
X111.649Y-48.243
X112.514Y-140.918
X112.749Y-51.623
X112.749Y-70.513
X112.749Y-89.573
X112.749Y-108.633
X113.609Y-104.163
X114.139Y-48.243
X114.959Y-101.403
X115.584Y-129.608
X115.79Y-63.654
X115.969Y-82.653
X115.999Y-44.763
X116.089Y-101.723
X116.279Y-47.574
X116.879Y-58.663
X117.359Y-80.363
X117.409Y-49.623
X117.789Y-99.453
X117.799Y-42.423
X122.519Y-42.753
X122.519Y-61.223
X123.289Y-87.453
X123.299Y-48.583
X123.299Y-80.523
X123.339Y-96.923
X123.339Y-115.923
X123.349Y-58.653
X123.349Y-68.513
X123.349Y-78.163
X124.419Y-85.503
X124.889Y-61.403
X125.829Y-104.483
X126.379Y-43.073
X126.679Y-82.693
X126.769Y-105.303
X126.839Y-114.603
X128.629Y-69.273
X128.719Y-88.323
X128.759Y-80.313
X128.779Y-99.143
X128.779Y-106.873
X128.789Y-42.353
X128.849Y-61.773
X128.869Y-97.003
X130.089Y-42.413
X130.179Y-87.053
X130.249Y-48.973
X130.269Y-68.003
X130.669Y-64.533
X131.799Y-48.963
X131.809Y-87.123
X131.809Y-106.223
X131.809Y-125.143
X131.819Y-68.113
X131.979Y-41.503
X132.139Y-45.453
X132.789Y-103.083
X133.189Y-79.193
X133.209Y-116.213
X133.629Y-98.883
X133.799Y-42.123
X134.229Y-94.423
X134.299Y-117.853
X134.319Y-77.903
X134.429Y-60.713
X134.489Y-58.713
X134.509Y-74.633
X134.839Y-97.493
X135.009Y-79.323
X139.319Y-78.003
X140.919Y-115.843
X141.329Y-58.553
X142.299Y-97.223
X142.329Y-56.573
X142.329Y-78.253
X142.35Y-40.363
X142.389Y-94.563
X142.399Y-113.413
X142.399Y-132.583
X142.409Y-75.528
X142.629Y-84.583
X142.689Y-122.623
X142.769Y-46.443
X142.779Y-65.203
X142.814Y-59.048
X142.819Y-103.513
X143.529Y-116.023
X143.729Y-97.543
X145.819Y-59.653
X146.189Y-61.423
X147.849Y-77.513
X147.849Y-96.543
X147.859Y-104.473
X147.869Y-39.603
X147.869Y-116.133
X147.929Y-113.063
X148.039Y-35.603
X148.779Y-84.803
X148.909Y-66.563
X149.299Y-122.663
X149.369Y-45.973
X150.849Y-46.503
X150.849Y-65.593
X150.859Y-84.763
X150.859Y-103.733
X150.859Y-122.843
X151.339Y-129.103
X151.939Y-41.843
X152.047Y-39.601
X152.149Y-53.543
X153.339Y-131.103
X153.439Y-58.323
X153.579Y-115.473
X154.029Y-96.233
X154.099Y-38.583
X154.119Y-76.543
X155.249Y-93.883
X155.559Y-101.113
X155.559Y-113.643
X155.669Y-56.343
X155.899Y-75.323
X160.879Y-113.953
X161.389Y-56.543
X161.389Y-84.073
X161.389Y-94.213
X161.399Y-43.493
X161.399Y-75.313
X161.419Y-64.453
X161.439Y-54.033
X161.439Y-73.113
X161.449Y-91.963
X161.449Y-130.023
X161.45Y-111.213
X161.529Y-120.693
X163.309Y-118.523
X163.359Y-80.423
X163.379Y-61.253
X163.449Y-99.343
X163.889Y-38.423
X163.899Y-39.363
X166.639Y-64.633
X166.789Y-83.463
X166.819Y-45.433
X166.889Y-113.333
X166.909Y-56.473
X166.909Y-94.013
X166.919Y-37.473
X166.919Y-74.933
X166.939Y-121.613
X168.249Y-101.023
X168.259Y-43.813
X168.279Y-62.923
X168.669Y-82.343
X168.739Y-120.923
X168.789Y-37.973
X168.999Y-40.223
X169.899Y-68.203
X169.899Y-87.193
X169.899Y-106.253
X169.899Y-125.303
X169.919Y-49.043
X171.179Y-102.293
X171.269Y-38.953
X171.479Y-83.183
X171.809Y-115.933
X172.589Y-117.703
X172.619Y-79.873
X172.719Y-60.863
X172.869Y-99.223
X173.064Y-41.968
X174.129Y-39.833
X174.379Y-58.813
X177.879Y-115.993
X179.359Y-39.863
X179.809Y-115.413
X179.989Y-77.423
X180.439Y-58.973
X180.449Y-97.113
X180.499Y-75.583
X180.499Y-94.643
X180.499Y-132.683
X180.499Y-56.573
X180.5Y-113.673
X180.719Y-122.723
X180.849Y-84.703
X180.909Y-65.853
X181.849Y-77.993
X181.969Y-40.513
X182.229Y-59.633
X182.279Y-97.823
X183.339Y-135.603
X185.619Y-48.013
X185.839Y-133.103
X185.909Y-85.733
X185.909Y-96.903
X185.929Y-78.073
X185.949Y-75.043
X185.959Y-40.043
X185.959Y-58.993
X185.959Y-115.583
X185.969Y-105.033
X187.259Y-65.373
X187.359Y-47.643
X187.439Y-122.723
X187.459Y-84.643
X187.569Y-104.083
X188.949Y-70.683
X188.949Y-89.823
X188.949Y-108.823
X188.949Y-127.943
X188.959Y-51.583
X191.119Y-43.833
X191.299Y-62.953
X191.349Y-82.153
X191.429Y-100.953
X191.839Y-120.413
X192.779Y-79.803
X192.939Y-99.013
X192.979Y-42.083
X193.269Y-118.073
X193.289Y-60.923
X199.489Y-99.833
X199.489Y-118.533
X199.499Y-41.853
X199.499Y-61.483
X199.499Y-80.493
X199.499Y-86.803
X199.499Y-125.103
X199.529Y-105.953
X199.539Y-59.013
X199.549Y-96.963
X199.549Y-135.178
X199.559Y-116.343
X199.589Y-77.953
X199.619Y-68.793
X201.389Y-100.923
X201.549Y-62.583
X202.189Y-119.433
X202.209Y-81.573
X202.229Y-43.463
X203.049Y-105.203
X204.879Y-50.983
X204.979Y-79.473
X205.009Y-88.403
X205.029Y-41.953
X205.039Y-118.533
X205.129Y-113.463
X206.249Y-125.013
X206.419Y-49.543
X206.449Y-87.033
X206.949Y-109.473
X207.129Y-70.513
X207.259Y-64.933
X207.319Y-102.643
X207.989Y-53.633
X207.989Y-110.753
X207.989Y-129.823
X207.999Y-91.793
X208.019Y-72.743
X208.439Y-136.903
X209.459Y-102.633
X210.469Y-117.073
X210.619Y-83.903
X210.629Y-45.923
X210.689Y-122.853
X210.809Y-65.563
X211.329Y-103.553
X212.379Y-81.913
X212.409Y-43.683
X212.429Y-120.183
X212.659Y-63.483
X216.079Y-63.783
X216.769Y-43.623
X217.319Y-81.543
X218.519Y-120.613
X218.549Y-101.733
X218.569Y-43.123
X218.599Y-98.953
X218.599Y-118.123
X218.599Y-137.283
X218.649Y-60.943
X218.799Y-79.863
X218.899Y-108.183
X218.939Y-89.043
X219.019Y-70.143
X219.049Y-51.103
X219.109Y-126.933
X219.599Y-82.133
X219.679Y-121.143
X220.119Y-64.043
X220.549Y-102.273
X221.709Y-80.413
X223.019Y-62.608
X224.029Y-120.243
X224.049Y-60.483
X224.049Y-79.323
X224.059Y-81.393
X224.059Y-101.243
X224.069Y-44.363
X224.859Y-51.513
X224.969Y-89.523
X225.009Y-70.313
X225.169Y-109.273
X225.609Y-127.403
T2
X46.519Y-107.483
X46.519Y-122.723
X49.059Y-107.483
X49.059Y-122.723
X51.599Y-107.483
X51.599Y-122.723
X54.139Y-107.483
X54.139Y-122.723
X56.679Y-107.483
X56.679Y-122.723
X59.219Y-107.483
X59.219Y-122.723
X61.759Y-107.483
X61.759Y-122.723
X64.299Y-107.483
X64.299Y-122.723
X66.839Y-107.483
X66.839Y-110.023
X66.839Y-112.563
X66.839Y-115.103
X66.839Y-117.643
X66.839Y-120.183
X66.839Y-122.723
T3
X48.939Y-112.603
X48.939Y-115.103
X48.939Y-117.603
X63.439Y-112.603
X63.439Y-117.603
T5
X110.775Y-60.475
X110.775Y-99.225
X206.275Y-60.475
X206.275Y-99.225
T3
G00X47.639Y-43.553
M15
G01X47.639Y-44.053
M16
G05
G00X47.639Y-46.553
M15
G01X47.639Y-47.053
M16
G05
G00X47.639Y-50.553
M15
G01X47.639Y-51.053
M16
G05
G00X49.389Y-52.053
M15
G01X49.389Y-52.553
M16
G05
G00X51.839Y-52.053
M15
G01X51.839Y-52.553
M16
G05
G00X53.589Y-43.553
M15
G01X53.589Y-44.053
M16
G05
G00X53.589Y-46.553
M15
G01X53.589Y-47.053
M16
G05
G00X53.589Y-50.553
M15
G01X53.589Y-51.053
M16
G05
T4
G00X55.789Y-109.503
M15
G01X57.089Y-109.503
M16
G05
G00X55.789Y-120.703
M15
G01X57.089Y-120.703
M16
G05
M30
