G04 #@! TF.GenerationSoftware,KiCad,Pcbnew,8.0.6-8.0.6-0~ubuntu24.04.1*
G04 #@! TF.CreationDate,2024-10-27T13:02:53+01:00*
G04 #@! TF.ProjectId,NomadKeyboard,4e6f6d61-644b-4657-9962-6f6172642e6b,rev?*
G04 #@! TF.SameCoordinates,Original*
G04 #@! TF.FileFunction,Profile,NP*
%FSLAX46Y46*%
G04 Gerber Fmt 4.6, Leading zero omitted, Abs format (unit mm)*
G04 Created by KiCad (PCBNEW 8.0.6-8.0.6-0~ubuntu24.04.1) date 2024-10-27 13:02:53*
%MOMM*%
%LPD*%
G01*
G04 APERTURE LIST*
G04 #@! TA.AperFunction,Profile*
%ADD10C,0.150000*%
G04 #@! TD*
G04 #@! TA.AperFunction,Profile*
%ADD11C,0.120000*%
G04 #@! TD*
G04 APERTURE END LIST*
D10*
X84323143Y-161339883D02*
X67894832Y-132885213D01*
X149129117Y-32982640D02*
X91964120Y-40077640D01*
X44849041Y-130402640D02*
X44851703Y-42692494D01*
X227829120Y-42582640D02*
X227829120Y-137834875D01*
X44851703Y-42692494D02*
G75*
G02*
X47439120Y-40102651I2639997J-50106D01*
G01*
X168179120Y-135732640D02*
X133849120Y-135732640D01*
X67894832Y-132885213D02*
X54269120Y-132902639D01*
X87744275Y-162350785D02*
G75*
G02*
X84323112Y-161339904I-1095175J2588185D01*
G01*
X70486436Y-40077640D02*
X54339120Y-40102640D01*
X52809120Y-40102640D02*
X47439120Y-40102640D01*
X225341384Y-140342640D02*
X206273851Y-140342640D01*
X227829120Y-137834875D02*
G75*
G02*
X225341384Y-140342620I-2497720J-10025D01*
G01*
X206273851Y-140342640D02*
X168179120Y-135732640D01*
X54269120Y-132902639D02*
X52739120Y-132902639D01*
X168179120Y-32982640D02*
X149129117Y-32982640D01*
X47369120Y-132902639D02*
G75*
G02*
X44848981Y-130402640I-20020J2500039D01*
G01*
X91964120Y-40077640D02*
X70486436Y-40077640D01*
X87744275Y-162350785D02*
X133849120Y-135732640D01*
X225329523Y-40078158D02*
X168179120Y-32982640D01*
X54339120Y-40102640D02*
X52809120Y-40102640D01*
X52739120Y-132902639D02*
X47369120Y-132902639D01*
X225329523Y-40078158D02*
G75*
G02*
X227829118Y-42582640I-246523J-2745642D01*
G01*
D11*
X99689100Y-45853600D02*
X99689100Y-48953600D01*
X99689100Y-48953600D02*
X103289100Y-48953600D01*
X103289100Y-45853600D02*
X99689100Y-45853600D01*
X103289100Y-48953600D02*
X103289100Y-45853600D01*
X156850000Y-38751000D02*
X156850000Y-41851000D01*
X156850000Y-41851000D02*
X160450000Y-41851000D01*
X160450000Y-38751000D02*
X156850000Y-38751000D01*
X160450000Y-41851000D02*
X160450000Y-38751000D01*
X99689100Y-83953600D02*
X99689100Y-87053600D01*
X99689100Y-87053600D02*
X103289100Y-87053600D01*
X103289100Y-83953600D02*
X99689100Y-83953600D01*
X103289100Y-87053600D02*
X103289100Y-83953600D01*
X118739100Y-62803600D02*
X118739100Y-65903600D01*
X118739100Y-65903600D02*
X122339100Y-65903600D01*
X122339100Y-62803600D02*
X118739100Y-62803600D01*
X122339100Y-65903600D02*
X122339100Y-62803600D01*
X108050814Y-130014254D02*
X109850814Y-133131946D01*
X109850814Y-133131946D02*
X112535493Y-131581946D01*
X110735493Y-128464254D02*
X108050814Y-130014254D01*
X112535493Y-131581946D02*
X110735493Y-128464254D01*
X156850000Y-95901000D02*
X156850000Y-99001000D01*
X156850000Y-99001000D02*
X160450000Y-99001000D01*
X160450000Y-95901000D02*
X156850000Y-95901000D01*
X160450000Y-99001000D02*
X160450000Y-95901000D01*
X194950000Y-100953600D02*
X194950000Y-104053600D01*
X194950000Y-104053600D02*
X198550000Y-104053600D01*
X198550000Y-100953600D02*
X194950000Y-100953600D01*
X198550000Y-104053600D02*
X198550000Y-100953600D01*
X156849100Y-114953600D02*
X156849100Y-118053600D01*
X156849100Y-118053600D02*
X160449100Y-118053600D01*
X160449100Y-114953600D02*
X156849100Y-114953600D01*
X160449100Y-118053600D02*
X160449100Y-114953600D01*
X194949100Y-62853600D02*
X194949100Y-65953600D01*
X194949100Y-65953600D02*
X198549100Y-65953600D01*
X198549100Y-62853600D02*
X194949100Y-62853600D01*
X198549100Y-65953600D02*
X198549100Y-62853600D01*
X213999100Y-83953600D02*
X213999100Y-87053600D01*
X213999100Y-87053600D02*
X217599100Y-87053600D01*
X217599100Y-83953600D02*
X213999100Y-83953600D01*
X217599100Y-87053600D02*
X217599100Y-83953600D01*
X213999100Y-103003600D02*
X213999100Y-106103600D01*
X213999100Y-106103600D02*
X217599100Y-106103600D01*
X217599100Y-103003600D02*
X213999100Y-103003600D01*
X217599100Y-106103600D02*
X217599100Y-103003600D01*
X175899100Y-41253600D02*
X175899100Y-44353600D01*
X175899100Y-44353600D02*
X179499100Y-44353600D01*
X179499100Y-41253600D02*
X175899100Y-41253600D01*
X179499100Y-44353600D02*
X179499100Y-41253600D01*
X156849100Y-57803600D02*
X156849100Y-60903600D01*
X156849100Y-60903600D02*
X160449100Y-60903600D01*
X160449100Y-57803600D02*
X156849100Y-57803600D01*
X160449100Y-60903600D02*
X160449100Y-57803600D01*
X137799100Y-60303600D02*
X137799100Y-63403600D01*
X137799100Y-63403600D02*
X141399100Y-63403600D01*
X141399100Y-60303600D02*
X137799100Y-60303600D01*
X141399100Y-63403600D02*
X141399100Y-60303600D01*
X175899100Y-79352600D02*
X175899100Y-82452600D01*
X175899100Y-82452600D02*
X179499100Y-82452600D01*
X179499100Y-79352600D02*
X175899100Y-79352600D01*
X179499100Y-82452600D02*
X179499100Y-79352600D01*
X194949100Y-43802600D02*
X194949100Y-46902600D01*
X194949100Y-46902600D02*
X198549100Y-46902600D01*
X198549100Y-43802600D02*
X194949100Y-43802600D01*
X198549100Y-46902600D02*
X198549100Y-43802600D01*
X99689100Y-64899400D02*
X99689100Y-67999400D01*
X99689100Y-67999400D02*
X103289100Y-67999400D01*
X103289100Y-64899400D02*
X99689100Y-64899400D01*
X103289100Y-67999400D02*
X103289100Y-64899400D01*
X213999100Y-122052600D02*
X213999100Y-125152600D01*
X213999100Y-125152600D02*
X217599100Y-125152600D01*
X217599100Y-122052600D02*
X213999100Y-122052600D01*
X217599100Y-125152600D02*
X217599100Y-122052600D01*
X175899100Y-60302600D02*
X175899100Y-63402600D01*
X175899100Y-63402600D02*
X179499100Y-63402600D01*
X179499100Y-60302600D02*
X175899100Y-60302600D01*
X179499100Y-63402600D02*
X179499100Y-60302600D01*
X175900000Y-98401000D02*
X175900000Y-101501000D01*
X175900000Y-101501000D02*
X179500000Y-101501000D01*
X179500000Y-98401000D02*
X175900000Y-98401000D01*
X179500000Y-101501000D02*
X179500000Y-98401000D01*
X194949100Y-120003600D02*
X194949100Y-123103600D01*
X194949100Y-123103600D02*
X198549100Y-123103600D01*
X198549100Y-120003600D02*
X194949100Y-120003600D01*
X198549100Y-123103600D02*
X198549100Y-120003600D01*
X156849100Y-76853600D02*
X156849100Y-79953600D01*
X156849100Y-79953600D02*
X160449100Y-79953600D01*
X160449100Y-76853600D02*
X156849100Y-76853600D01*
X160449100Y-79953600D02*
X160449100Y-76853600D01*
X137800000Y-41251000D02*
X137800000Y-44351000D01*
X137800000Y-44351000D02*
X141400000Y-44351000D01*
X141400000Y-41251000D02*
X137800000Y-41251000D01*
X141400000Y-44351000D02*
X141400000Y-41251000D01*
X118739100Y-81853600D02*
X118739100Y-84953600D01*
X118739100Y-84953600D02*
X122339100Y-84953600D01*
X122339100Y-81853600D02*
X118739100Y-81853600D01*
X122339100Y-84953600D02*
X122339100Y-81853600D01*
X118739100Y-100902600D02*
X118739100Y-104002600D01*
X118739100Y-104002600D02*
X122339100Y-104002600D01*
X122339100Y-100902600D02*
X118739100Y-100902600D01*
X122339100Y-104002600D02*
X122339100Y-100902600D01*
X80689120Y-83953640D02*
X80689120Y-87053640D01*
X80689120Y-87053640D02*
X84289120Y-87053640D01*
X84289120Y-83953640D02*
X80689120Y-83953640D01*
X84289120Y-87053640D02*
X84289120Y-83953640D01*
X213999100Y-64902600D02*
X213999100Y-68002600D01*
X213999100Y-68002600D02*
X217599100Y-68002600D01*
X217599100Y-64902600D02*
X213999100Y-64902600D01*
X217599100Y-68002600D02*
X217599100Y-64902600D01*
X80689120Y-64853640D02*
X80689120Y-67953640D01*
X80689120Y-67953640D02*
X84289120Y-67953640D01*
X84289120Y-64853640D02*
X80689120Y-64853640D01*
X84289120Y-67953640D02*
X84289120Y-64853640D01*
X194949100Y-81903600D02*
X194949100Y-85003600D01*
X194949100Y-85003600D02*
X198549100Y-85003600D01*
X198549100Y-81903600D02*
X194949100Y-81903600D01*
X198549100Y-85003600D02*
X198549100Y-81903600D01*
X137789100Y-79353600D02*
X137789100Y-82453600D01*
X137789100Y-82453600D02*
X141389100Y-82453600D01*
X141389100Y-79353600D02*
X137789100Y-79353600D01*
X141389100Y-82453600D02*
X141389100Y-79353600D01*
X61689120Y-45942100D02*
X61689120Y-49042100D01*
X61689120Y-49042100D02*
X65289120Y-49042100D01*
X65289120Y-45942100D02*
X61689120Y-45942100D01*
X65289120Y-49042100D02*
X65289120Y-45942100D01*
X213999100Y-45853600D02*
X213999100Y-48953600D01*
X213999100Y-48953600D02*
X217599100Y-48953600D01*
X217599100Y-45853600D02*
X213999100Y-45853600D01*
X217599100Y-48953600D02*
X217599100Y-45853600D01*
X80689120Y-102953640D02*
X80689120Y-106053640D01*
X80689120Y-106053640D02*
X84289120Y-106053640D01*
X84289120Y-102953640D02*
X80689120Y-102953640D01*
X84289120Y-106053640D02*
X84289120Y-102953640D01*
X137799100Y-98403600D02*
X137799100Y-101503600D01*
X137799100Y-101503600D02*
X141399100Y-101503600D01*
X141399100Y-98403600D02*
X137799100Y-98403600D01*
X141399100Y-101503600D02*
X141399100Y-98403600D01*
X61699120Y-83953640D02*
X61699120Y-87053640D01*
X61699120Y-87053640D02*
X65299120Y-87053640D01*
X65299120Y-83953640D02*
X61699120Y-83953640D01*
X65299120Y-87053640D02*
X65299120Y-83953640D01*
X61699120Y-64899440D02*
X61699120Y-67999440D01*
X61699120Y-67999440D02*
X65299120Y-67999440D01*
X65299120Y-64899440D02*
X61699120Y-64899440D01*
X65299120Y-67999440D02*
X65299120Y-64899440D01*
X80689120Y-45953640D02*
X80689120Y-49053640D01*
X80689120Y-49053640D02*
X84289120Y-49053640D01*
X84289120Y-45953640D02*
X80689120Y-45953640D01*
X84289120Y-49053640D02*
X84289120Y-45953640D01*
X91550814Y-139541154D02*
X93350814Y-142658846D01*
X93350814Y-142658846D02*
X96035493Y-141108846D01*
X94235493Y-137991154D02*
X91550814Y-139541154D01*
X96035493Y-141108846D02*
X94235493Y-137991154D01*
X137799100Y-117452600D02*
X137799100Y-120552600D01*
X137799100Y-120552600D02*
X141399100Y-120552600D01*
X141399100Y-117452600D02*
X137799100Y-117452600D01*
X141399100Y-120552600D02*
X141399100Y-117452600D01*
X175899100Y-117453600D02*
X175899100Y-120553600D01*
X175899100Y-120553600D02*
X179499100Y-120553600D01*
X179499100Y-117453600D02*
X175899100Y-117453600D01*
X179499100Y-120553600D02*
X179499100Y-117453600D01*
X118749100Y-43803600D02*
X118749100Y-46903600D01*
X118749100Y-46903600D02*
X122349100Y-46903600D01*
X122349100Y-43803600D02*
X118749100Y-43803600D01*
X122349100Y-46903600D02*
X122349100Y-43803600D01*
M02*
