%TF.GenerationSoftware,KiCad,Pcbnew,8.0.6-8.0.6-0~ubuntu24.04.1*%
%TF.CreationDate,2024-10-27T13:02:48+01:00*%
%TF.ProjectId,NomadKeyboard,4e6f6d61-644b-4657-9962-6f6172642e6b,rev?*%
%TF.SameCoordinates,Original*%
%TF.FileFunction,Drillmap*%
%TF.FilePolarity,Positive*%
%FSLAX45Y45*%
G04 Gerber Fmt 4.5, Leading zero omitted, Abs format (unit mm)*
G04 Created by KiCad (PCBNEW 8.0.6-8.0.6-0~ubuntu24.04.1) date 2024-10-27 13:02:48*
%MOMM*%
%LPD*%
G01*
G04 APERTURE LIST*
%ADD10C,0.150000*%
%ADD11C,0.120000*%
%ADD12C,0.200000*%
%ADD13C,0.100000*%
%ADD14C,0.410000*%
G04 APERTURE END LIST*
D10*
X8432314Y-16133988D02*
X6789483Y-13288521D01*
X14912912Y-3298264D02*
X9196412Y-4007764D01*
X4484904Y-13040264D02*
X4485170Y-4269249D01*
X22782912Y-4258264D02*
X22782912Y-13783487D01*
X4485170Y-4269249D02*
G75*
G02*
X4743912Y-4010265I264000J-5011D01*
G01*
X16817912Y-13573264D02*
X13384912Y-13573264D01*
X6789483Y-13288521D02*
X5426912Y-13290264D01*
X8774428Y-16235078D02*
G75*
G02*
X8432311Y-16133990I-109518J258819D01*
G01*
X7048644Y-4007764D02*
X5433912Y-4010264D01*
X5280912Y-4010264D02*
X4743912Y-4010264D01*
X22534138Y-14034264D02*
X20627385Y-14034264D01*
X22782912Y-13783487D02*
G75*
G02*
X22534138Y-14034262I-249772J-1003D01*
G01*
X20627385Y-14034264D02*
X16817912Y-13573264D01*
X5426912Y-13290264D02*
X5273912Y-13290264D01*
X16817912Y-3298264D02*
X14912912Y-3298264D01*
X4736912Y-13290264D02*
G75*
G02*
X4484898Y-13040264I-2002J250004D01*
G01*
X9196412Y-4007764D02*
X7048644Y-4007764D01*
X8774428Y-16235078D02*
X13384912Y-13573264D01*
X22532952Y-4007816D02*
X16817912Y-3298264D01*
X5433912Y-4010264D02*
X5280912Y-4010264D01*
X5273912Y-13290264D02*
X4736912Y-13290264D01*
X22532952Y-4007816D02*
G75*
G02*
X22782912Y-4258264I-24652J-274564D01*
G01*
D11*
X9968910Y-4585360D02*
X9968910Y-4895360D01*
X9968910Y-4895360D02*
X10328910Y-4895360D01*
X10328910Y-4585360D02*
X9968910Y-4585360D01*
X10328910Y-4895360D02*
X10328910Y-4585360D01*
X15685000Y-3875100D02*
X15685000Y-4185100D01*
X15685000Y-4185100D02*
X16045000Y-4185100D01*
X16045000Y-3875100D02*
X15685000Y-3875100D01*
X16045000Y-4185100D02*
X16045000Y-3875100D01*
X9968910Y-8395360D02*
X9968910Y-8705360D01*
X9968910Y-8705360D02*
X10328910Y-8705360D01*
X10328910Y-8395360D02*
X9968910Y-8395360D01*
X10328910Y-8705360D02*
X10328910Y-8395360D01*
X11873910Y-6280360D02*
X11873910Y-6590360D01*
X11873910Y-6590360D02*
X12233910Y-6590360D01*
X12233910Y-6280360D02*
X11873910Y-6280360D01*
X12233910Y-6590360D02*
X12233910Y-6280360D01*
X10805081Y-13001425D02*
X10985081Y-13313195D01*
X10985081Y-13313195D02*
X11253549Y-13158195D01*
X11073549Y-12846425D02*
X10805081Y-13001425D01*
X11253549Y-13158195D02*
X11073549Y-12846425D01*
X15685000Y-9590100D02*
X15685000Y-9900100D01*
X15685000Y-9900100D02*
X16045000Y-9900100D01*
X16045000Y-9590100D02*
X15685000Y-9590100D01*
X16045000Y-9900100D02*
X16045000Y-9590100D01*
X19495000Y-10095360D02*
X19495000Y-10405360D01*
X19495000Y-10405360D02*
X19855000Y-10405360D01*
X19855000Y-10095360D02*
X19495000Y-10095360D01*
X19855000Y-10405360D02*
X19855000Y-10095360D01*
X15684910Y-11495360D02*
X15684910Y-11805360D01*
X15684910Y-11805360D02*
X16044910Y-11805360D01*
X16044910Y-11495360D02*
X15684910Y-11495360D01*
X16044910Y-11805360D02*
X16044910Y-11495360D01*
X19494910Y-6285360D02*
X19494910Y-6595360D01*
X19494910Y-6595360D02*
X19854910Y-6595360D01*
X19854910Y-6285360D02*
X19494910Y-6285360D01*
X19854910Y-6595360D02*
X19854910Y-6285360D01*
X21399910Y-8395360D02*
X21399910Y-8705360D01*
X21399910Y-8705360D02*
X21759910Y-8705360D01*
X21759910Y-8395360D02*
X21399910Y-8395360D01*
X21759910Y-8705360D02*
X21759910Y-8395360D01*
X21399910Y-10300360D02*
X21399910Y-10610360D01*
X21399910Y-10610360D02*
X21759910Y-10610360D01*
X21759910Y-10300360D02*
X21399910Y-10300360D01*
X21759910Y-10610360D02*
X21759910Y-10300360D01*
X17589910Y-4125360D02*
X17589910Y-4435360D01*
X17589910Y-4435360D02*
X17949910Y-4435360D01*
X17949910Y-4125360D02*
X17589910Y-4125360D01*
X17949910Y-4435360D02*
X17949910Y-4125360D01*
X15684910Y-5780360D02*
X15684910Y-6090360D01*
X15684910Y-6090360D02*
X16044910Y-6090360D01*
X16044910Y-5780360D02*
X15684910Y-5780360D01*
X16044910Y-6090360D02*
X16044910Y-5780360D01*
X13779910Y-6030360D02*
X13779910Y-6340360D01*
X13779910Y-6340360D02*
X14139910Y-6340360D01*
X14139910Y-6030360D02*
X13779910Y-6030360D01*
X14139910Y-6340360D02*
X14139910Y-6030360D01*
X17589910Y-7935260D02*
X17589910Y-8245260D01*
X17589910Y-8245260D02*
X17949910Y-8245260D01*
X17949910Y-7935260D02*
X17589910Y-7935260D01*
X17949910Y-8245260D02*
X17949910Y-7935260D01*
X19494910Y-4380260D02*
X19494910Y-4690260D01*
X19494910Y-4690260D02*
X19854910Y-4690260D01*
X19854910Y-4380260D02*
X19494910Y-4380260D01*
X19854910Y-4690260D02*
X19854910Y-4380260D01*
X9968910Y-6489940D02*
X9968910Y-6799940D01*
X9968910Y-6799940D02*
X10328910Y-6799940D01*
X10328910Y-6489940D02*
X9968910Y-6489940D01*
X10328910Y-6799940D02*
X10328910Y-6489940D01*
X21399910Y-12205260D02*
X21399910Y-12515260D01*
X21399910Y-12515260D02*
X21759910Y-12515260D01*
X21759910Y-12205260D02*
X21399910Y-12205260D01*
X21759910Y-12515260D02*
X21759910Y-12205260D01*
X17589910Y-6030260D02*
X17589910Y-6340260D01*
X17589910Y-6340260D02*
X17949910Y-6340260D01*
X17949910Y-6030260D02*
X17589910Y-6030260D01*
X17949910Y-6340260D02*
X17949910Y-6030260D01*
X17590000Y-9840100D02*
X17590000Y-10150100D01*
X17590000Y-10150100D02*
X17950000Y-10150100D01*
X17950000Y-9840100D02*
X17590000Y-9840100D01*
X17950000Y-10150100D02*
X17950000Y-9840100D01*
X19494910Y-12000360D02*
X19494910Y-12310360D01*
X19494910Y-12310360D02*
X19854910Y-12310360D01*
X19854910Y-12000360D02*
X19494910Y-12000360D01*
X19854910Y-12310360D02*
X19854910Y-12000360D01*
X15684910Y-7685360D02*
X15684910Y-7995360D01*
X15684910Y-7995360D02*
X16044910Y-7995360D01*
X16044910Y-7685360D02*
X15684910Y-7685360D01*
X16044910Y-7995360D02*
X16044910Y-7685360D01*
X13780000Y-4125100D02*
X13780000Y-4435100D01*
X13780000Y-4435100D02*
X14140000Y-4435100D01*
X14140000Y-4125100D02*
X13780000Y-4125100D01*
X14140000Y-4435100D02*
X14140000Y-4125100D01*
X11873910Y-8185360D02*
X11873910Y-8495360D01*
X11873910Y-8495360D02*
X12233910Y-8495360D01*
X12233910Y-8185360D02*
X11873910Y-8185360D01*
X12233910Y-8495360D02*
X12233910Y-8185360D01*
X11873910Y-10090260D02*
X11873910Y-10400260D01*
X11873910Y-10400260D02*
X12233910Y-10400260D01*
X12233910Y-10090260D02*
X11873910Y-10090260D01*
X12233910Y-10400260D02*
X12233910Y-10090260D01*
X8068912Y-8395364D02*
X8068912Y-8705364D01*
X8068912Y-8705364D02*
X8428912Y-8705364D01*
X8428912Y-8395364D02*
X8068912Y-8395364D01*
X8428912Y-8705364D02*
X8428912Y-8395364D01*
X21399910Y-6490260D02*
X21399910Y-6800260D01*
X21399910Y-6800260D02*
X21759910Y-6800260D01*
X21759910Y-6490260D02*
X21399910Y-6490260D01*
X21759910Y-6800260D02*
X21759910Y-6490260D01*
X8068912Y-6485364D02*
X8068912Y-6795364D01*
X8068912Y-6795364D02*
X8428912Y-6795364D01*
X8428912Y-6485364D02*
X8068912Y-6485364D01*
X8428912Y-6795364D02*
X8428912Y-6485364D01*
X19494910Y-8190360D02*
X19494910Y-8500360D01*
X19494910Y-8500360D02*
X19854910Y-8500360D01*
X19854910Y-8190360D02*
X19494910Y-8190360D01*
X19854910Y-8500360D02*
X19854910Y-8190360D01*
X13778910Y-7935360D02*
X13778910Y-8245360D01*
X13778910Y-8245360D02*
X14138910Y-8245360D01*
X14138910Y-7935360D02*
X13778910Y-7935360D01*
X14138910Y-8245360D02*
X14138910Y-7935360D01*
X6168912Y-4594210D02*
X6168912Y-4904210D01*
X6168912Y-4904210D02*
X6528912Y-4904210D01*
X6528912Y-4594210D02*
X6168912Y-4594210D01*
X6528912Y-4904210D02*
X6528912Y-4594210D01*
X21399910Y-4585360D02*
X21399910Y-4895360D01*
X21399910Y-4895360D02*
X21759910Y-4895360D01*
X21759910Y-4585360D02*
X21399910Y-4585360D01*
X21759910Y-4895360D02*
X21759910Y-4585360D01*
X8068912Y-10295364D02*
X8068912Y-10605364D01*
X8068912Y-10605364D02*
X8428912Y-10605364D01*
X8428912Y-10295364D02*
X8068912Y-10295364D01*
X8428912Y-10605364D02*
X8428912Y-10295364D01*
X13779910Y-9840360D02*
X13779910Y-10150360D01*
X13779910Y-10150360D02*
X14139910Y-10150360D01*
X14139910Y-9840360D02*
X13779910Y-9840360D01*
X14139910Y-10150360D02*
X14139910Y-9840360D01*
X6169912Y-8395364D02*
X6169912Y-8705364D01*
X6169912Y-8705364D02*
X6529912Y-8705364D01*
X6529912Y-8395364D02*
X6169912Y-8395364D01*
X6529912Y-8705364D02*
X6529912Y-8395364D01*
X6169912Y-6489944D02*
X6169912Y-6799944D01*
X6169912Y-6799944D02*
X6529912Y-6799944D01*
X6529912Y-6489944D02*
X6169912Y-6489944D01*
X6529912Y-6799944D02*
X6529912Y-6489944D01*
X8068912Y-4595364D02*
X8068912Y-4905364D01*
X8068912Y-4905364D02*
X8428912Y-4905364D01*
X8428912Y-4595364D02*
X8068912Y-4595364D01*
X8428912Y-4905364D02*
X8428912Y-4595364D01*
X9155081Y-13954115D02*
X9335081Y-14265885D01*
X9335081Y-14265885D02*
X9603549Y-14110885D01*
X9423549Y-13799115D02*
X9155081Y-13954115D01*
X9603549Y-14110885D02*
X9423549Y-13799115D01*
X13779910Y-11745260D02*
X13779910Y-12055260D01*
X13779910Y-12055260D02*
X14139910Y-12055260D01*
X14139910Y-11745260D02*
X13779910Y-11745260D01*
X14139910Y-12055260D02*
X14139910Y-11745260D01*
X17589910Y-11745360D02*
X17589910Y-12055360D01*
X17589910Y-12055360D02*
X17949910Y-12055360D01*
X17949910Y-11745360D02*
X17589910Y-11745360D01*
X17949910Y-12055360D02*
X17949910Y-11745360D01*
X11874910Y-4380360D02*
X11874910Y-4690360D01*
X11874910Y-4690360D02*
X12234910Y-4690360D01*
X12234910Y-4380360D02*
X11874910Y-4380360D01*
X12234910Y-4690360D02*
X12234910Y-4380360D01*
D12*
D13*
X4668912Y-5645264D02*
X4698912Y-5675264D01*
X4698912Y-5645264D02*
X4668912Y-5675264D01*
X5008912Y-8115264D02*
X5038912Y-8145264D01*
X5038912Y-8115264D02*
X5008912Y-8145264D01*
X5018912Y-10515264D02*
X5048912Y-10545264D01*
X5048912Y-10515264D02*
X5018912Y-10545264D01*
X5018912Y-10945264D02*
X5048912Y-10975264D01*
X5048912Y-10945264D02*
X5018912Y-10975264D01*
X5048912Y-4365264D02*
X5078912Y-4395264D01*
X5078912Y-4365264D02*
X5048912Y-4395264D01*
X5148912Y-11465264D02*
X5178912Y-11495264D01*
X5178912Y-11465264D02*
X5148912Y-11495264D01*
X5458912Y-8115264D02*
X5488912Y-8145264D01*
X5488912Y-8115264D02*
X5458912Y-8145264D01*
X5647012Y-7705264D02*
X5677012Y-7735264D01*
X5677012Y-7705264D02*
X5647012Y-7735264D01*
X5648912Y-9605264D02*
X5678912Y-9635264D01*
X5678912Y-9605264D02*
X5648912Y-9635264D01*
X5728912Y-5945264D02*
X5758912Y-5975264D01*
X5758912Y-5945264D02*
X5728912Y-5975264D01*
X5828912Y-8085264D02*
X5858912Y-8115264D01*
X5858912Y-8085264D02*
X5828912Y-8115264D01*
X5889462Y-4965814D02*
X5919462Y-4995814D01*
X5919462Y-4965814D02*
X5889462Y-4995814D01*
X5918912Y-6745264D02*
X5948912Y-6775264D01*
X5948912Y-6745264D02*
X5918912Y-6775264D01*
X5946437Y-8702289D02*
X5976437Y-8732289D01*
X5976437Y-8702289D02*
X5946437Y-8732289D01*
X6048912Y-5315264D02*
X6078912Y-5345264D01*
X6078912Y-5315264D02*
X6048912Y-5345264D01*
X6068912Y-4549685D02*
X6098912Y-4579685D01*
X6098912Y-4549685D02*
X6068912Y-4579685D01*
X6098912Y-7365264D02*
X6128912Y-7395264D01*
X6128912Y-7365264D02*
X6098912Y-7395264D01*
X6248912Y-4235264D02*
X6278912Y-4265264D01*
X6278912Y-4235264D02*
X6248912Y-4265264D01*
X6318912Y-8145264D02*
X6348912Y-8175264D01*
X6348912Y-8145264D02*
X6318912Y-8175264D01*
X6350835Y-5497187D02*
X6380835Y-5527187D01*
X6380835Y-5497187D02*
X6350835Y-5527187D01*
X6614912Y-9089264D02*
X6644912Y-9119264D01*
X6644912Y-9089264D02*
X6614912Y-9119264D01*
X6638912Y-8855264D02*
X6668912Y-8885264D01*
X6668912Y-8855264D02*
X6638912Y-8885264D01*
X6648912Y-6985264D02*
X6678912Y-7015264D01*
X6678912Y-6985264D02*
X6648912Y-7015264D01*
X6879012Y-4655364D02*
X6909012Y-4685364D01*
X6909012Y-4655364D02*
X6879012Y-4685364D01*
X6918912Y-6495264D02*
X6948912Y-6525264D01*
X6948912Y-6495264D02*
X6918912Y-6525264D01*
X6918912Y-8395264D02*
X6948912Y-8425264D01*
X6948912Y-8395264D02*
X6918912Y-8425264D01*
X6978912Y-6915264D02*
X7008912Y-6945264D01*
X7008912Y-6915264D02*
X6978912Y-6945264D01*
X6988912Y-4555264D02*
X7018912Y-4585264D01*
X7018912Y-4555264D02*
X6988912Y-4585264D01*
X7007662Y-8256514D02*
X7037662Y-8286514D01*
X7037662Y-8256514D02*
X7007662Y-8286514D01*
X7008912Y-5076210D02*
X7038912Y-5106210D01*
X7038912Y-5076210D02*
X7008912Y-5106210D01*
X7018912Y-6770064D02*
X7048912Y-6800064D01*
X7048912Y-6770064D02*
X7018912Y-6800064D01*
X7018912Y-8855264D02*
X7048912Y-8885264D01*
X7048912Y-8855264D02*
X7018912Y-8885264D01*
X7108912Y-7755264D02*
X7138912Y-7785264D01*
X7138912Y-7755264D02*
X7108912Y-7785264D01*
X7118912Y-9695264D02*
X7148912Y-9725264D01*
X7148912Y-9695264D02*
X7118912Y-9725264D01*
X7285162Y-4501514D02*
X7315162Y-4531514D01*
X7315162Y-4501514D02*
X7285162Y-4531514D01*
X7318912Y-4895264D02*
X7348912Y-4925264D01*
X7348912Y-4895264D02*
X7318912Y-4925264D01*
X7318912Y-10195264D02*
X7348912Y-10225264D01*
X7348912Y-10195264D02*
X7318912Y-10225264D01*
X7343912Y-8570264D02*
X7373912Y-8600264D01*
X7373912Y-8570264D02*
X7343912Y-8600264D01*
X7345162Y-6341514D02*
X7375162Y-6371514D01*
X7375162Y-6341514D02*
X7345162Y-6371514D01*
X7453912Y-6135264D02*
X7483912Y-6165264D01*
X7483912Y-6135264D02*
X7453912Y-6165264D01*
X7608912Y-6385264D02*
X7638912Y-6415264D01*
X7638912Y-6385264D02*
X7608912Y-6415264D01*
X7618912Y-8295264D02*
X7648912Y-8325264D01*
X7648912Y-8295264D02*
X7618912Y-8325264D01*
X7618912Y-8705364D02*
X7648912Y-8735364D01*
X7648912Y-8705364D02*
X7618912Y-8735364D01*
X7768912Y-10345264D02*
X7798912Y-10375264D01*
X7798912Y-10345264D02*
X7768912Y-10375264D01*
X7778912Y-6555364D02*
X7808912Y-6585364D01*
X7808912Y-6555364D02*
X7778912Y-6585364D01*
X7818912Y-4895264D02*
X7848912Y-4925264D01*
X7848912Y-4895264D02*
X7818912Y-4925264D01*
X7818912Y-6242364D02*
X7848912Y-6272364D01*
X7848912Y-6242364D02*
X7818912Y-6272364D01*
X7829012Y-8535164D02*
X7859012Y-8565164D01*
X7859012Y-8535164D02*
X7829012Y-8565164D01*
X7918912Y-9055264D02*
X7948912Y-9085264D01*
X7948912Y-9055264D02*
X7918912Y-9085264D01*
X7938912Y-7005264D02*
X7968912Y-7035264D01*
X7968912Y-7005264D02*
X7938912Y-7035264D01*
X7968912Y-6295264D02*
X7998912Y-6325264D01*
X7998912Y-6295264D02*
X7968912Y-6325264D01*
X7968912Y-10095264D02*
X7998912Y-10125264D01*
X7998912Y-10095264D02*
X7968912Y-10125264D01*
X7988912Y-5345264D02*
X8018912Y-5375264D01*
X8018912Y-5345264D02*
X7988912Y-5375264D01*
X8177912Y-8171364D02*
X8207912Y-8201364D01*
X8207912Y-8171364D02*
X8177912Y-8201364D01*
X8225412Y-14887764D02*
X8255412Y-14917764D01*
X8255412Y-14887764D02*
X8225412Y-14917764D01*
X8247412Y-13538764D02*
X8277412Y-13568764D01*
X8277412Y-13538764D02*
X8247412Y-13568764D01*
X8368912Y-12048764D02*
X8398912Y-12078764D01*
X8398912Y-12048764D02*
X8368912Y-12078764D01*
X8518912Y-4495264D02*
X8548912Y-4525264D01*
X8548912Y-4495264D02*
X8518912Y-4525264D01*
X8531412Y-5217764D02*
X8561412Y-5247764D01*
X8561412Y-5217764D02*
X8531412Y-5247764D01*
X8536412Y-10912764D02*
X8566412Y-10942764D01*
X8566412Y-10912764D02*
X8536412Y-10942764D01*
X8541412Y-7097764D02*
X8571412Y-7127764D01*
X8571412Y-7097764D02*
X8541412Y-7127764D01*
X8556412Y-8992764D02*
X8586412Y-9022764D01*
X8586412Y-8992764D02*
X8556412Y-9022764D01*
X8668912Y-11745264D02*
X8698912Y-11775264D01*
X8698912Y-11745264D02*
X8668912Y-11775264D01*
X8718912Y-8245264D02*
X8748912Y-8275264D01*
X8748912Y-8245264D02*
X8718912Y-8275264D01*
X8768912Y-4645264D02*
X8798912Y-4675264D01*
X8798912Y-4645264D02*
X8768912Y-4675264D01*
X8818912Y-6495264D02*
X8848912Y-6525264D01*
X8848912Y-6495264D02*
X8818912Y-6525264D01*
X8828912Y-8395264D02*
X8858912Y-8425264D01*
X8858912Y-8395264D02*
X8828912Y-8425264D01*
X8873712Y-10350064D02*
X8903712Y-10380064D01*
X8903712Y-10350064D02*
X8873712Y-10380064D01*
X8898912Y-8050264D02*
X8928912Y-8080264D01*
X8928912Y-8050264D02*
X8898912Y-8080264D01*
X8918912Y-10672764D02*
X8948912Y-10702764D01*
X8948912Y-10672764D02*
X8918912Y-10702764D01*
X8931412Y-13366764D02*
X8961412Y-13396764D01*
X8961412Y-13366764D02*
X8931412Y-13396764D01*
X8934412Y-13059764D02*
X8964412Y-13089764D01*
X8964412Y-13059764D02*
X8934412Y-13089764D01*
X8938912Y-9695264D02*
X8968912Y-9725264D01*
X8968912Y-9695264D02*
X8938912Y-9725264D01*
X9008912Y-8171364D02*
X9038912Y-8201364D01*
X9038912Y-8171364D02*
X9008912Y-8201364D01*
X9028912Y-7825264D02*
X9058912Y-7855264D01*
X9058912Y-7825264D02*
X9028912Y-7855264D01*
X9078912Y-6005264D02*
X9108912Y-6035264D01*
X9108912Y-6005264D02*
X9078912Y-6035264D01*
X9133912Y-6300264D02*
X9163912Y-6330264D01*
X9163912Y-6300264D02*
X9133912Y-6330264D01*
X9150912Y-4447264D02*
X9180912Y-4477264D01*
X9180912Y-4447264D02*
X9150912Y-4477264D01*
X9178912Y-9925264D02*
X9208912Y-9955264D01*
X9208912Y-9925264D02*
X9178912Y-9955264D01*
X9216012Y-10448164D02*
X9246012Y-10478164D01*
X9246012Y-10448164D02*
X9216012Y-10478164D01*
X9218912Y-10895264D02*
X9248912Y-10925264D01*
X9248912Y-10895264D02*
X9218912Y-10925264D01*
X9268912Y-6795264D02*
X9298912Y-6825264D01*
X9298912Y-6795264D02*
X9268912Y-6825264D01*
X9268912Y-11745264D02*
X9298912Y-11775264D01*
X9298912Y-11745264D02*
X9268912Y-11775264D01*
X9275561Y-5049264D02*
X9305561Y-5079264D01*
X9305561Y-5049264D02*
X9275561Y-5079264D01*
X9349912Y-4833264D02*
X9379912Y-4863264D01*
X9379912Y-4833264D02*
X9349912Y-4863264D01*
X9353912Y-9157264D02*
X9383912Y-9187264D01*
X9383912Y-9157264D02*
X9353912Y-9187264D01*
X9354912Y-7254264D02*
X9384912Y-7284264D01*
X9384912Y-7254264D02*
X9354912Y-7284264D01*
X9388412Y-12245764D02*
X9418412Y-12275764D01*
X9418412Y-12245764D02*
X9388412Y-12275764D01*
X9408912Y-7858264D02*
X9438912Y-7888264D01*
X9438912Y-7858264D02*
X9408912Y-7888264D01*
X9418912Y-5342264D02*
X9448912Y-5372264D01*
X9448912Y-5342264D02*
X9418912Y-5372264D01*
X9441412Y-14567764D02*
X9471412Y-14597764D01*
X9471412Y-14567764D02*
X9441412Y-14597764D01*
X9468912Y-10095264D02*
X9498912Y-10125264D01*
X9498912Y-10095264D02*
X9468912Y-10125264D01*
X9468912Y-11895264D02*
X9498912Y-11925264D01*
X9498912Y-11895264D02*
X9468912Y-11925264D01*
X9488912Y-8465360D02*
X9518912Y-8495360D01*
X9518912Y-8465360D02*
X9488912Y-8495360D01*
X9503412Y-12560764D02*
X9533412Y-12590764D01*
X9533412Y-12560764D02*
X9503412Y-12590764D01*
X9558912Y-10555264D02*
X9588912Y-10585264D01*
X9588912Y-10555264D02*
X9558912Y-10585264D01*
X9587412Y-15079764D02*
X9617412Y-15109764D01*
X9617412Y-15079764D02*
X9587412Y-15109764D01*
X9607912Y-8224264D02*
X9637912Y-8254264D01*
X9637912Y-8224264D02*
X9607912Y-8254264D01*
X9638412Y-13978764D02*
X9668412Y-14008764D01*
X9668412Y-13978764D02*
X9638412Y-14008764D01*
X9706912Y-10800264D02*
X9736912Y-10830264D01*
X9736912Y-10800264D02*
X9706912Y-10830264D01*
X9711912Y-4854264D02*
X9741912Y-4884264D01*
X9741912Y-4854264D02*
X9711912Y-4884264D01*
X9712912Y-6359264D02*
X9742912Y-6389264D01*
X9742912Y-6359264D02*
X9712912Y-6389264D01*
X9819912Y-4938264D02*
X9849912Y-4968264D01*
X9849912Y-4938264D02*
X9819912Y-4968264D01*
X9859912Y-6915264D02*
X9889912Y-6945264D01*
X9889912Y-6915264D02*
X9859912Y-6945264D01*
X9879412Y-13923764D02*
X9909412Y-13953764D01*
X9909412Y-13923764D02*
X9879412Y-13953764D01*
X9896412Y-14411764D02*
X9926412Y-14441764D01*
X9926412Y-14411764D02*
X9896412Y-14441764D01*
X9901912Y-10555264D02*
X9931912Y-10585264D01*
X9931912Y-10555264D02*
X9901912Y-10585264D01*
X10268912Y-6386262D02*
X10298912Y-6416262D01*
X10298912Y-6386262D02*
X10268912Y-6416262D01*
X10306412Y-12424764D02*
X10336412Y-12454764D01*
X10336412Y-12424764D02*
X10306412Y-12454764D01*
X10309412Y-12103764D02*
X10339412Y-12133764D01*
X10339412Y-12103764D02*
X10309412Y-12133764D01*
X10408912Y-8231264D02*
X10438912Y-8261264D01*
X10438912Y-8231264D02*
X10408912Y-8261264D01*
X10413910Y-6079264D02*
X10443910Y-6109264D01*
X10443910Y-6079264D02*
X10413910Y-6109264D01*
X10413910Y-7973264D02*
X10443910Y-8003264D01*
X10443910Y-7973264D02*
X10413910Y-8003264D01*
X10413912Y-9913264D02*
X10443912Y-9943264D01*
X10443912Y-9913264D02*
X10413912Y-9943264D01*
X10463912Y-7000264D02*
X10493912Y-7030264D01*
X10493912Y-7000264D02*
X10463912Y-7030264D01*
X10614912Y-4449358D02*
X10644912Y-4479358D01*
X10644912Y-4449358D02*
X10614912Y-4479358D01*
X10619912Y-6519264D02*
X10649912Y-6549264D01*
X10649912Y-6519264D02*
X10619912Y-6549264D01*
X10675912Y-8388264D02*
X10705912Y-8418264D01*
X10705912Y-8388264D02*
X10675912Y-8418264D01*
X10706412Y-12458764D02*
X10736412Y-12488764D01*
X10736412Y-12458764D02*
X10706412Y-12488764D01*
X10768912Y-4654264D02*
X10798912Y-4684264D01*
X10798912Y-4654264D02*
X10768912Y-4684264D01*
X10884412Y-12307764D02*
X10914412Y-12337764D01*
X10914412Y-12307764D02*
X10884412Y-12337764D01*
X10936412Y-11883764D02*
X10966412Y-11913764D01*
X10966412Y-11883764D02*
X10936412Y-11913764D01*
X10958912Y-8214264D02*
X10988912Y-8244264D01*
X10988912Y-8214264D02*
X10958912Y-8244264D01*
X10961912Y-4433264D02*
X10991912Y-4463264D01*
X10991912Y-4433264D02*
X10961912Y-4463264D01*
X11037912Y-5113264D02*
X11067912Y-5143264D01*
X11067912Y-5113264D02*
X11037912Y-5143264D01*
X11062412Y-13857764D02*
X11092412Y-13887764D01*
X11092412Y-13857764D02*
X11062412Y-13887764D01*
X11091194Y-13599764D02*
X11121194Y-13629764D01*
X11121194Y-13599764D02*
X11091194Y-13629764D01*
X11098912Y-8897264D02*
X11128912Y-8927264D01*
X11128912Y-8897264D02*
X11098912Y-8927264D01*
X11102912Y-7038264D02*
X11132912Y-7068264D01*
X11132912Y-7038264D02*
X11102912Y-7068264D01*
X11117912Y-6543264D02*
X11147912Y-6573264D01*
X11147912Y-6543264D02*
X11117912Y-6573264D01*
X11149912Y-4809264D02*
X11179912Y-4839264D01*
X11179912Y-4809264D02*
X11149912Y-4839264D01*
X11236412Y-14076764D02*
X11266412Y-14106764D01*
X11266412Y-14076764D02*
X11236412Y-14106764D01*
X11259910Y-5147264D02*
X11289910Y-5177264D01*
X11289910Y-5147264D02*
X11259910Y-5177264D01*
X11259912Y-7036264D02*
X11289912Y-7066264D01*
X11289912Y-7036264D02*
X11259912Y-7066264D01*
X11259912Y-8942264D02*
X11289912Y-8972264D01*
X11289912Y-8942264D02*
X11259912Y-8972264D01*
X11259912Y-10848264D02*
X11289912Y-10878264D01*
X11289912Y-10848264D02*
X11259912Y-10878264D01*
X11345912Y-10401264D02*
X11375912Y-10431264D01*
X11375912Y-10401264D02*
X11345912Y-10431264D01*
X11398912Y-4809264D02*
X11428912Y-4839264D01*
X11428912Y-4809264D02*
X11398912Y-4839264D01*
X11480912Y-10125264D02*
X11510912Y-10155264D01*
X11510912Y-10125264D02*
X11480912Y-10155264D01*
X11543412Y-12945764D02*
X11573412Y-12975764D01*
X11573412Y-12945764D02*
X11543412Y-12975764D01*
X11564008Y-6350360D02*
X11594008Y-6380360D01*
X11594008Y-6350360D02*
X11564008Y-6380360D01*
X11581912Y-8250264D02*
X11611912Y-8280264D01*
X11611912Y-8250264D02*
X11581912Y-8280264D01*
X11584912Y-4461264D02*
X11614912Y-4491264D01*
X11614912Y-4461264D02*
X11584912Y-4491264D01*
X11593912Y-10157264D02*
X11623912Y-10187264D01*
X11623912Y-10157264D02*
X11593912Y-10187264D01*
X11612912Y-4742358D02*
X11642912Y-4772358D01*
X11642912Y-4742358D02*
X11612912Y-4772358D01*
X11672912Y-5851264D02*
X11702912Y-5881264D01*
X11702912Y-5851264D02*
X11672912Y-5881264D01*
X11720912Y-8021264D02*
X11750912Y-8051264D01*
X11750912Y-8021264D02*
X11720912Y-8051264D01*
X11725912Y-4947264D02*
X11755912Y-4977264D01*
X11755912Y-4947264D02*
X11725912Y-4977264D01*
X11763912Y-9930264D02*
X11793912Y-9960264D01*
X11793912Y-9930264D02*
X11763912Y-9960264D01*
X11764910Y-4227262D02*
X11794910Y-4257262D01*
X11794910Y-4227262D02*
X11764910Y-4257262D01*
X12236912Y-4260264D02*
X12266912Y-4290264D01*
X12266912Y-4260264D02*
X12236912Y-4290264D01*
X12236912Y-6107264D02*
X12266912Y-6137264D01*
X12266912Y-6107264D02*
X12236912Y-6137264D01*
X12313912Y-8730264D02*
X12343912Y-8760264D01*
X12343912Y-8730264D02*
X12313912Y-8760264D01*
X12314912Y-4843264D02*
X12344912Y-4873264D01*
X12344912Y-4843264D02*
X12314912Y-4873264D01*
X12314912Y-8037264D02*
X12344912Y-8067264D01*
X12344912Y-8037264D02*
X12314912Y-8067264D01*
X12318910Y-9677264D02*
X12348910Y-9707264D01*
X12348910Y-9677264D02*
X12318910Y-9707264D01*
X12318910Y-11577264D02*
X12348910Y-11607264D01*
X12348910Y-11577264D02*
X12318910Y-11607264D01*
X12319910Y-5850264D02*
X12349910Y-5880264D01*
X12349910Y-5850264D02*
X12319910Y-5880264D01*
X12319912Y-6836264D02*
X12349912Y-6866264D01*
X12349912Y-6836264D02*
X12319912Y-6866264D01*
X12319912Y-7801264D02*
X12349912Y-7831264D01*
X12349912Y-7801264D02*
X12319912Y-7831264D01*
X12426912Y-8535264D02*
X12456912Y-8565264D01*
X12456912Y-8535264D02*
X12426912Y-8565264D01*
X12473912Y-6125264D02*
X12503912Y-6155264D01*
X12503912Y-6125264D02*
X12473912Y-6155264D01*
X12567912Y-10433264D02*
X12597912Y-10463264D01*
X12597912Y-10433264D02*
X12567912Y-10463264D01*
X12622912Y-4292264D02*
X12652912Y-4322264D01*
X12652912Y-4292264D02*
X12622912Y-4322264D01*
X12652912Y-8254264D02*
X12682912Y-8284264D01*
X12682912Y-8254264D02*
X12652912Y-8284264D01*
X12661912Y-10515264D02*
X12691912Y-10545264D01*
X12691912Y-10515264D02*
X12661912Y-10545264D01*
X12668912Y-11445264D02*
X12698912Y-11475264D01*
X12698912Y-11445264D02*
X12668912Y-11475264D01*
X12847912Y-6912264D02*
X12877912Y-6942264D01*
X12877912Y-6912264D02*
X12847912Y-6942264D01*
X12856912Y-8817264D02*
X12886912Y-8847264D01*
X12886912Y-8817264D02*
X12856912Y-8847264D01*
X12860912Y-8016264D02*
X12890912Y-8046264D01*
X12890912Y-8016264D02*
X12860912Y-8046264D01*
X12862912Y-9899264D02*
X12892912Y-9929264D01*
X12892912Y-9899264D02*
X12862912Y-9929264D01*
X12862912Y-10672264D02*
X12892912Y-10702264D01*
X12892912Y-10672264D02*
X12862912Y-10702264D01*
X12863912Y-4220264D02*
X12893912Y-4250264D01*
X12893912Y-4220264D02*
X12863912Y-4250264D01*
X12869912Y-6162264D02*
X12899912Y-6192264D01*
X12899912Y-6162264D02*
X12869912Y-6192264D01*
X12871912Y-9685264D02*
X12901912Y-9715264D01*
X12901912Y-9685264D02*
X12871912Y-9715264D01*
X12993912Y-4226264D02*
X13023912Y-4256264D01*
X13023912Y-4226264D02*
X12993912Y-4256264D01*
X13002912Y-8690264D02*
X13032912Y-8720264D01*
X13032912Y-8690264D02*
X13002912Y-8720264D01*
X13009912Y-4882264D02*
X13039912Y-4912264D01*
X13039912Y-4882264D02*
X13009912Y-4912264D01*
X13011912Y-6785264D02*
X13041912Y-6815264D01*
X13041912Y-6785264D02*
X13011912Y-6815264D01*
X13051912Y-6438264D02*
X13081912Y-6468264D01*
X13081912Y-6438264D02*
X13051912Y-6468264D01*
X13164912Y-4881264D02*
X13194912Y-4911264D01*
X13194912Y-4881264D02*
X13164912Y-4911264D01*
X13165912Y-8697264D02*
X13195912Y-8727264D01*
X13195912Y-8697264D02*
X13165912Y-8727264D01*
X13165912Y-10607264D02*
X13195912Y-10637264D01*
X13195912Y-10607264D02*
X13165912Y-10637264D01*
X13165912Y-12499264D02*
X13195912Y-12529264D01*
X13195912Y-12499264D02*
X13165912Y-12529264D01*
X13166912Y-6796264D02*
X13196912Y-6826264D01*
X13196912Y-6796264D02*
X13166912Y-6826264D01*
X13182912Y-4135264D02*
X13212912Y-4165264D01*
X13212912Y-4135264D02*
X13182912Y-4165264D01*
X13198912Y-4530264D02*
X13228912Y-4560264D01*
X13228912Y-4530264D02*
X13198912Y-4560264D01*
X13263912Y-10293264D02*
X13293912Y-10323264D01*
X13293912Y-10293264D02*
X13263912Y-10323264D01*
X13303912Y-7904264D02*
X13333912Y-7934264D01*
X13333912Y-7904264D02*
X13303912Y-7934264D01*
X13305912Y-11606264D02*
X13335912Y-11636264D01*
X13335912Y-11606264D02*
X13305912Y-11636264D01*
X13347912Y-9873264D02*
X13377912Y-9903264D01*
X13377912Y-9873264D02*
X13347912Y-9903264D01*
X13364912Y-4197264D02*
X13394912Y-4227264D01*
X13394912Y-4197264D02*
X13364912Y-4227264D01*
X13407912Y-9427264D02*
X13437912Y-9457264D01*
X13437912Y-9427264D02*
X13407912Y-9457264D01*
X13414912Y-11770264D02*
X13444912Y-11800264D01*
X13444912Y-11770264D02*
X13414912Y-11800264D01*
X13416912Y-7775264D02*
X13446912Y-7805264D01*
X13446912Y-7775264D02*
X13416912Y-7805264D01*
X13427912Y-6056264D02*
X13457912Y-6086264D01*
X13457912Y-6056264D02*
X13427912Y-6086264D01*
X13433912Y-5856264D02*
X13463912Y-5886264D01*
X13463912Y-5856264D02*
X13433912Y-5886264D01*
X13435912Y-7448264D02*
X13465912Y-7478264D01*
X13465912Y-7448264D02*
X13435912Y-7478264D01*
X13468912Y-9734264D02*
X13498912Y-9764264D01*
X13498912Y-9734264D02*
X13468912Y-9764264D01*
X13485912Y-7917264D02*
X13515912Y-7947264D01*
X13515912Y-7917264D02*
X13485912Y-7947264D01*
X13916912Y-7785264D02*
X13946912Y-7815264D01*
X13946912Y-7785264D02*
X13916912Y-7815264D01*
X14076912Y-11569264D02*
X14106912Y-11599264D01*
X14106912Y-11569264D02*
X14076912Y-11599264D01*
X14117912Y-5840264D02*
X14147912Y-5870264D01*
X14147912Y-5840264D02*
X14117912Y-5870264D01*
X14214912Y-9707264D02*
X14244912Y-9737264D01*
X14244912Y-9707264D02*
X14214912Y-9737264D01*
X14217912Y-5642264D02*
X14247912Y-5672264D01*
X14247912Y-5642264D02*
X14217912Y-5672264D01*
X14217912Y-7810264D02*
X14247912Y-7840264D01*
X14247912Y-7810264D02*
X14217912Y-7840264D01*
X14220000Y-4021264D02*
X14250000Y-4051264D01*
X14250000Y-4021264D02*
X14220000Y-4051264D01*
X14223910Y-9441264D02*
X14253910Y-9471264D01*
X14253910Y-9441264D02*
X14223910Y-9471264D01*
X14224910Y-11326264D02*
X14254910Y-11356264D01*
X14254910Y-11326264D02*
X14224910Y-11356264D01*
X14224912Y-13243264D02*
X14254912Y-13273264D01*
X14254912Y-13243264D02*
X14224912Y-13273264D01*
X14225912Y-7537761D02*
X14255912Y-7567761D01*
X14255912Y-7537761D02*
X14225912Y-7567761D01*
X14247912Y-8443264D02*
X14277912Y-8473264D01*
X14277912Y-8443264D02*
X14247912Y-8473264D01*
X14253912Y-12247264D02*
X14283912Y-12277264D01*
X14283912Y-12247264D02*
X14253912Y-12277264D01*
X14261912Y-4629264D02*
X14291912Y-4659264D01*
X14291912Y-4629264D02*
X14261912Y-4659264D01*
X14262912Y-6505264D02*
X14292912Y-6535264D01*
X14292912Y-6505264D02*
X14262912Y-6535264D01*
X14266412Y-5889764D02*
X14296412Y-5919764D01*
X14296412Y-5889764D02*
X14266412Y-5919764D01*
X14266912Y-10336264D02*
X14296912Y-10366264D01*
X14296912Y-10336264D02*
X14266912Y-10366264D01*
X14337912Y-11587264D02*
X14367912Y-11617264D01*
X14367912Y-11587264D02*
X14337912Y-11617264D01*
X14357912Y-9739264D02*
X14387912Y-9769264D01*
X14387912Y-9739264D02*
X14357912Y-9769264D01*
X14566912Y-5950264D02*
X14596912Y-5980264D01*
X14596912Y-5950264D02*
X14566912Y-5980264D01*
X14603912Y-6127264D02*
X14633912Y-6157264D01*
X14633912Y-6127264D02*
X14603912Y-6157264D01*
X14769910Y-7736264D02*
X14799910Y-7766264D01*
X14799910Y-7736264D02*
X14769910Y-7766264D01*
X14769910Y-9639262D02*
X14799910Y-9669262D01*
X14799910Y-9639262D02*
X14769910Y-9669262D01*
X14770912Y-10432264D02*
X14800912Y-10462264D01*
X14800912Y-10432264D02*
X14770912Y-10462264D01*
X14771912Y-3945264D02*
X14801912Y-3975264D01*
X14801912Y-3945264D02*
X14771912Y-3975264D01*
X14771912Y-11598264D02*
X14801912Y-11628264D01*
X14801912Y-11598264D02*
X14771912Y-11628264D01*
X14777912Y-11291264D02*
X14807912Y-11321264D01*
X14807912Y-11291264D02*
X14777912Y-11321264D01*
X14788912Y-3545264D02*
X14818912Y-3575264D01*
X14818912Y-3545264D02*
X14788912Y-3575264D01*
X14862912Y-8465264D02*
X14892912Y-8495264D01*
X14892912Y-8465264D02*
X14862912Y-8495264D01*
X14875912Y-6641264D02*
X14905912Y-6671264D01*
X14905912Y-6641264D02*
X14875912Y-6671264D01*
X14914912Y-12251264D02*
X14944912Y-12281264D01*
X14944912Y-12251264D02*
X14914912Y-12281264D01*
X14921912Y-4582264D02*
X14951912Y-4612264D01*
X14951912Y-4582264D02*
X14921912Y-4612264D01*
X15069912Y-4635264D02*
X15099912Y-4665264D01*
X15099912Y-4635264D02*
X15069912Y-4665264D01*
X15069912Y-6544264D02*
X15099912Y-6574264D01*
X15099912Y-6544264D02*
X15069912Y-6574264D01*
X15070912Y-8461264D02*
X15100912Y-8491264D01*
X15100912Y-8461264D02*
X15070912Y-8491264D01*
X15070912Y-10358264D02*
X15100912Y-10388264D01*
X15100912Y-10358264D02*
X15070912Y-10388264D01*
X15070912Y-12269264D02*
X15100912Y-12299264D01*
X15100912Y-12269264D02*
X15070912Y-12299264D01*
X15118912Y-12895264D02*
X15148912Y-12925264D01*
X15148912Y-12895264D02*
X15118912Y-12925264D01*
X15178912Y-4169264D02*
X15208912Y-4199264D01*
X15208912Y-4169264D02*
X15178912Y-4199264D01*
X15189748Y-3945100D02*
X15219748Y-3975100D01*
X15219748Y-3945100D02*
X15189748Y-3975100D01*
X15199912Y-5339264D02*
X15229912Y-5369264D01*
X15229912Y-5339264D02*
X15199912Y-5369264D01*
X15318912Y-13095264D02*
X15348912Y-13125264D01*
X15348912Y-13095264D02*
X15318912Y-13125264D01*
X15328912Y-5817264D02*
X15358912Y-5847264D01*
X15358912Y-5817264D02*
X15328912Y-5847264D01*
X15342912Y-11532264D02*
X15372912Y-11562264D01*
X15372912Y-11532264D02*
X15342912Y-11562264D01*
X15387912Y-9608264D02*
X15417912Y-9638264D01*
X15417912Y-9608264D02*
X15387912Y-9638264D01*
X15394912Y-3843264D02*
X15424912Y-3873264D01*
X15424912Y-3843264D02*
X15394912Y-3873264D01*
X15396912Y-7639264D02*
X15426912Y-7669264D01*
X15426912Y-7639264D02*
X15396912Y-7669264D01*
X15509912Y-9373264D02*
X15539912Y-9403264D01*
X15539912Y-9373264D02*
X15509912Y-9403264D01*
X15540912Y-10096264D02*
X15570912Y-10126264D01*
X15570912Y-10096264D02*
X15540912Y-10126264D01*
X15540912Y-11349264D02*
X15570912Y-11379264D01*
X15570912Y-11349264D02*
X15540912Y-11379264D01*
X15551912Y-5619264D02*
X15581912Y-5649264D01*
X15581912Y-5619264D02*
X15551912Y-5649264D01*
X15574912Y-7517264D02*
X15604912Y-7547264D01*
X15604912Y-7517264D02*
X15574912Y-7547264D01*
X16072912Y-11380264D02*
X16102912Y-11410264D01*
X16102912Y-11380264D02*
X16072912Y-11410264D01*
X16123912Y-5639264D02*
X16153912Y-5669264D01*
X16153912Y-5639264D02*
X16123912Y-5669264D01*
X16123912Y-8392264D02*
X16153912Y-8422264D01*
X16153912Y-8392264D02*
X16123912Y-8422264D01*
X16123912Y-9406264D02*
X16153912Y-9436264D01*
X16153912Y-9406264D02*
X16123912Y-9436264D01*
X16124912Y-4334264D02*
X16154912Y-4364264D01*
X16154912Y-4334264D02*
X16124912Y-4364264D01*
X16124912Y-7516264D02*
X16154912Y-7546264D01*
X16154912Y-7516264D02*
X16124912Y-7546264D01*
X16126912Y-6430264D02*
X16156912Y-6460264D01*
X16156912Y-6430264D02*
X16126912Y-6460264D01*
X16128912Y-5388264D02*
X16158912Y-5418264D01*
X16158912Y-5388264D02*
X16128912Y-5418264D01*
X16128912Y-7296264D02*
X16158912Y-7326264D01*
X16158912Y-7296264D02*
X16128912Y-7326264D01*
X16129910Y-9181262D02*
X16159910Y-9211262D01*
X16159910Y-9181262D02*
X16129910Y-9211262D01*
X16129910Y-12987262D02*
X16159910Y-13017262D01*
X16159910Y-12987262D02*
X16129910Y-13017262D01*
X16130000Y-11106264D02*
X16160000Y-11136264D01*
X16160000Y-11106264D02*
X16130000Y-11136264D01*
X16137912Y-12054264D02*
X16167912Y-12084264D01*
X16167912Y-12054264D02*
X16137912Y-12084264D01*
X16315912Y-11837264D02*
X16345912Y-11867264D01*
X16345912Y-11837264D02*
X16315912Y-11867264D01*
X16320912Y-8027264D02*
X16350912Y-8057264D01*
X16350912Y-8027264D02*
X16320912Y-8057264D01*
X16322912Y-6110264D02*
X16352912Y-6140264D01*
X16352912Y-6110264D02*
X16322912Y-6140264D01*
X16329912Y-9919264D02*
X16359912Y-9949264D01*
X16359912Y-9919264D02*
X16329912Y-9949264D01*
X16373912Y-3827264D02*
X16403912Y-3857264D01*
X16403912Y-3827264D02*
X16373912Y-3857264D01*
X16374912Y-3921264D02*
X16404912Y-3951264D01*
X16404912Y-3921264D02*
X16374912Y-3951264D01*
X16648912Y-6448264D02*
X16678912Y-6478264D01*
X16678912Y-6448264D02*
X16648912Y-6478264D01*
X16663912Y-8331264D02*
X16693912Y-8361264D01*
X16693912Y-8331264D02*
X16663912Y-8361264D01*
X16666912Y-4528264D02*
X16696912Y-4558264D01*
X16696912Y-4528264D02*
X16666912Y-4558264D01*
X16673912Y-11318264D02*
X16703912Y-11348264D01*
X16703912Y-11318264D02*
X16673912Y-11348264D01*
X16675912Y-5632264D02*
X16705912Y-5662264D01*
X16705912Y-5632264D02*
X16675912Y-5662264D01*
X16675912Y-9386264D02*
X16705912Y-9416264D01*
X16705912Y-9386264D02*
X16675912Y-9416264D01*
X16676912Y-3732264D02*
X16706912Y-3762264D01*
X16706912Y-3732264D02*
X16676912Y-3762264D01*
X16676912Y-7478264D02*
X16706912Y-7508264D01*
X16706912Y-7478264D02*
X16676912Y-7508264D01*
X16678912Y-12146264D02*
X16708912Y-12176264D01*
X16708912Y-12146264D02*
X16678912Y-12176264D01*
X16809912Y-10087264D02*
X16839912Y-10117264D01*
X16839912Y-10087264D02*
X16809912Y-10117264D01*
X16810912Y-4366264D02*
X16840912Y-4396264D01*
X16840912Y-4366264D02*
X16810912Y-4396264D01*
X16812912Y-6277264D02*
X16842912Y-6307264D01*
X16842912Y-6277264D02*
X16812912Y-6307264D01*
X16851912Y-8219264D02*
X16881912Y-8249264D01*
X16881912Y-8219264D02*
X16851912Y-8249264D01*
X16858912Y-12077264D02*
X16888912Y-12107264D01*
X16888912Y-12077264D02*
X16858912Y-12107264D01*
X16863912Y-3782264D02*
X16893912Y-3812264D01*
X16893912Y-3782264D02*
X16863912Y-3812264D01*
X16884912Y-4007264D02*
X16914912Y-4037264D01*
X16914912Y-4007264D02*
X16884912Y-4037264D01*
X16974912Y-6805264D02*
X17004912Y-6835264D01*
X17004912Y-6805264D02*
X16974912Y-6835264D01*
X16974912Y-8704264D02*
X17004912Y-8734264D01*
X17004912Y-8704264D02*
X16974912Y-8734264D01*
X16974912Y-10610264D02*
X17004912Y-10640264D01*
X17004912Y-10610264D02*
X16974912Y-10640264D01*
X16974912Y-12515264D02*
X17004912Y-12545264D01*
X17004912Y-12515264D02*
X16974912Y-12545264D01*
X16976912Y-4889264D02*
X17006912Y-4919264D01*
X17006912Y-4889264D02*
X16976912Y-4919264D01*
X17102912Y-10214264D02*
X17132912Y-10244264D01*
X17132912Y-10214264D02*
X17102912Y-10244264D01*
X17111912Y-3880264D02*
X17141912Y-3910264D01*
X17141912Y-3880264D02*
X17111912Y-3910264D01*
X17132912Y-8303264D02*
X17162912Y-8333264D01*
X17162912Y-8303264D02*
X17132912Y-8333264D01*
X17165912Y-11578264D02*
X17195912Y-11608264D01*
X17195912Y-11578264D02*
X17165912Y-11608264D01*
X17243912Y-11755264D02*
X17273912Y-11785264D01*
X17273912Y-11755264D02*
X17243912Y-11785264D01*
X17246912Y-7972264D02*
X17276912Y-8002264D01*
X17276912Y-7972264D02*
X17246912Y-8002264D01*
X17256912Y-6071264D02*
X17286912Y-6101264D01*
X17286912Y-6071264D02*
X17256912Y-6101264D01*
X17271912Y-9907264D02*
X17301912Y-9937264D01*
X17301912Y-9907264D02*
X17271912Y-9937264D01*
X17291363Y-4181813D02*
X17321363Y-4211813D01*
X17321363Y-4181813D02*
X17291363Y-4211813D01*
X17397912Y-3968264D02*
X17427912Y-3998264D01*
X17427912Y-3968264D02*
X17397912Y-3998264D01*
X17422912Y-5866264D02*
X17452912Y-5896264D01*
X17452912Y-5866264D02*
X17422912Y-5896264D01*
X17772912Y-11584264D02*
X17802912Y-11614264D01*
X17802912Y-11584264D02*
X17772912Y-11614264D01*
X17920912Y-3971264D02*
X17950912Y-4001264D01*
X17950912Y-3971264D02*
X17920912Y-4001264D01*
X17965912Y-11526264D02*
X17995912Y-11556264D01*
X17995912Y-11526264D02*
X17965912Y-11556264D01*
X17983912Y-7727264D02*
X18013912Y-7757264D01*
X18013912Y-7727264D02*
X17983912Y-7757264D01*
X18028912Y-5882264D02*
X18058912Y-5912264D01*
X18058912Y-5882264D02*
X18028912Y-5912264D01*
X18029912Y-9696264D02*
X18059912Y-9726264D01*
X18059912Y-9696264D02*
X18029912Y-9726264D01*
X18034910Y-7543264D02*
X18064910Y-7573264D01*
X18064910Y-7543264D02*
X18034910Y-7573264D01*
X18034910Y-9449264D02*
X18064910Y-9479264D01*
X18064910Y-9449264D02*
X18034910Y-9479264D01*
X18034910Y-13253264D02*
X18064910Y-13283264D01*
X18064910Y-13253264D02*
X18034910Y-13283264D01*
X18034912Y-5642264D02*
X18064912Y-5672264D01*
X18064912Y-5642264D02*
X18034912Y-5672264D01*
X18035000Y-11352264D02*
X18065000Y-11382264D01*
X18065000Y-11352264D02*
X18035000Y-11382264D01*
X18056912Y-12257264D02*
X18086912Y-12287264D01*
X18086912Y-12257264D02*
X18056912Y-12287264D01*
X18069912Y-8455264D02*
X18099912Y-8485264D01*
X18099912Y-8455264D02*
X18069912Y-8485264D01*
X18075912Y-6570264D02*
X18105912Y-6600264D01*
X18105912Y-6570264D02*
X18075912Y-6600264D01*
X18169912Y-7784264D02*
X18199912Y-7814264D01*
X18199912Y-7784264D02*
X18169912Y-7814264D01*
X18181912Y-4036264D02*
X18211912Y-4066264D01*
X18211912Y-4036264D02*
X18181912Y-4066264D01*
X18207912Y-5948264D02*
X18237912Y-5978264D01*
X18237912Y-5948264D02*
X18207912Y-5978264D01*
X18212912Y-9767264D02*
X18242912Y-9797264D01*
X18242912Y-9767264D02*
X18212912Y-9797264D01*
X18318912Y-13545264D02*
X18348912Y-13575264D01*
X18348912Y-13545264D02*
X18318912Y-13575264D01*
X18546912Y-4786264D02*
X18576912Y-4816264D01*
X18576912Y-4786264D02*
X18546912Y-4816264D01*
X18568912Y-13295264D02*
X18598912Y-13325264D01*
X18598912Y-13295264D02*
X18568912Y-13325264D01*
X18575912Y-8558264D02*
X18605912Y-8588264D01*
X18605912Y-8558264D02*
X18575912Y-8588264D01*
X18575912Y-9675264D02*
X18605912Y-9705264D01*
X18605912Y-9675264D02*
X18575912Y-9705264D01*
X18577912Y-7792264D02*
X18607912Y-7822264D01*
X18607912Y-7792264D02*
X18577912Y-7822264D01*
X18579912Y-7489264D02*
X18609912Y-7519264D01*
X18609912Y-7489264D02*
X18579912Y-7519264D01*
X18580912Y-3989264D02*
X18610912Y-4019264D01*
X18610912Y-3989264D02*
X18580912Y-4019264D01*
X18580912Y-5884264D02*
X18610912Y-5914264D01*
X18610912Y-5884264D02*
X18580912Y-5914264D01*
X18580912Y-11543264D02*
X18610912Y-11573264D01*
X18610912Y-11543264D02*
X18580912Y-11573264D01*
X18581912Y-10488264D02*
X18611912Y-10518264D01*
X18611912Y-10488264D02*
X18581912Y-10518264D01*
X18710912Y-6522264D02*
X18740912Y-6552264D01*
X18740912Y-6522264D02*
X18710912Y-6552264D01*
X18720912Y-4749264D02*
X18750912Y-4779264D01*
X18750912Y-4749264D02*
X18720912Y-4779264D01*
X18728912Y-12257264D02*
X18758912Y-12287264D01*
X18758912Y-12257264D02*
X18728912Y-12287264D01*
X18730912Y-8449264D02*
X18760912Y-8479264D01*
X18760912Y-8449264D02*
X18730912Y-8479264D01*
X18741912Y-10393264D02*
X18771912Y-10423264D01*
X18771912Y-10393264D02*
X18741912Y-10423264D01*
X18879912Y-7053264D02*
X18909912Y-7083264D01*
X18909912Y-7053264D02*
X18879912Y-7083264D01*
X18879912Y-8967264D02*
X18909912Y-8997264D01*
X18909912Y-8967264D02*
X18879912Y-8997264D01*
X18879912Y-10867264D02*
X18909912Y-10897264D01*
X18909912Y-10867264D02*
X18879912Y-10897264D01*
X18879912Y-12779264D02*
X18909912Y-12809264D01*
X18909912Y-12779264D02*
X18879912Y-12809264D01*
X18880912Y-5143264D02*
X18910912Y-5173264D01*
X18910912Y-5143264D02*
X18880912Y-5173264D01*
X19096912Y-4368264D02*
X19126912Y-4398264D01*
X19126912Y-4368264D02*
X19096912Y-4398264D01*
X19114912Y-6280264D02*
X19144912Y-6310264D01*
X19144912Y-6280264D02*
X19114912Y-6310264D01*
X19119912Y-8200264D02*
X19149912Y-8230264D01*
X19149912Y-8200264D02*
X19119912Y-8230264D01*
X19127912Y-10080264D02*
X19157912Y-10110264D01*
X19157912Y-10080264D02*
X19127912Y-10110264D01*
X19168912Y-12026264D02*
X19198912Y-12056264D01*
X19198912Y-12026264D02*
X19168912Y-12056264D01*
X19262912Y-7965264D02*
X19292912Y-7995264D01*
X19292912Y-7965264D02*
X19262912Y-7995264D01*
X19278912Y-9886264D02*
X19308912Y-9916264D01*
X19308912Y-9886264D02*
X19278912Y-9916264D01*
X19282912Y-4193264D02*
X19312912Y-4223264D01*
X19312912Y-4193264D02*
X19282912Y-4223264D01*
X19311912Y-11792264D02*
X19341912Y-11822264D01*
X19341912Y-11792264D02*
X19311912Y-11822264D01*
X19313912Y-6077264D02*
X19343912Y-6107264D01*
X19343912Y-6077264D02*
X19313912Y-6107264D01*
X19933912Y-9968264D02*
X19963912Y-9998264D01*
X19963912Y-9968264D02*
X19933912Y-9998264D01*
X19933912Y-11838264D02*
X19963912Y-11868264D01*
X19963912Y-11838264D02*
X19933912Y-11868264D01*
X19934912Y-4170264D02*
X19964912Y-4200264D01*
X19964912Y-4170264D02*
X19934912Y-4200264D01*
X19934912Y-6133264D02*
X19964912Y-6163264D01*
X19964912Y-6133264D02*
X19934912Y-6163264D01*
X19934912Y-8034264D02*
X19964912Y-8064264D01*
X19964912Y-8034264D02*
X19934912Y-8064264D01*
X19934912Y-8665264D02*
X19964912Y-8695264D01*
X19964912Y-8665264D02*
X19934912Y-8695264D01*
X19934912Y-12495264D02*
X19964912Y-12525264D01*
X19964912Y-12495264D02*
X19934912Y-12525264D01*
X19937912Y-10580264D02*
X19967912Y-10610264D01*
X19967912Y-10580264D02*
X19937912Y-10610264D01*
X19938912Y-5886264D02*
X19968912Y-5916264D01*
X19968912Y-5886264D02*
X19938912Y-5916264D01*
X19939910Y-9681264D02*
X19969910Y-9711264D01*
X19969910Y-9681264D02*
X19939910Y-9711264D01*
X19939912Y-13502764D02*
X19969912Y-13532764D01*
X19969912Y-13502764D02*
X19939912Y-13532764D01*
X19940912Y-11619264D02*
X19970912Y-11649264D01*
X19970912Y-11619264D02*
X19940912Y-11649264D01*
X19943912Y-7780264D02*
X19973912Y-7810264D01*
X19973912Y-7780264D02*
X19943912Y-7810264D01*
X19946912Y-6864264D02*
X19976912Y-6894264D01*
X19976912Y-6864264D02*
X19946912Y-6894264D01*
X20123912Y-10077264D02*
X20153912Y-10107264D01*
X20153912Y-10077264D02*
X20123912Y-10107264D01*
X20139912Y-6243264D02*
X20169912Y-6273264D01*
X20169912Y-6243264D02*
X20139912Y-6273264D01*
X20203912Y-11928264D02*
X20233912Y-11958264D01*
X20233912Y-11928264D02*
X20203912Y-11958264D01*
X20205912Y-8142264D02*
X20235912Y-8172264D01*
X20235912Y-8142264D02*
X20205912Y-8172264D01*
X20207912Y-4331264D02*
X20237912Y-4361264D01*
X20237912Y-4331264D02*
X20207912Y-4361264D01*
X20289912Y-10505264D02*
X20319912Y-10535264D01*
X20319912Y-10505264D02*
X20289912Y-10535264D01*
X20472912Y-5083264D02*
X20502912Y-5113264D01*
X20502912Y-5083264D02*
X20472912Y-5113264D01*
X20482912Y-7932264D02*
X20512912Y-7962264D01*
X20512912Y-7932264D02*
X20482912Y-7962264D01*
X20485912Y-8825264D02*
X20515912Y-8855264D01*
X20515912Y-8825264D02*
X20485912Y-8855264D01*
X20487912Y-4180264D02*
X20517912Y-4210264D01*
X20517912Y-4180264D02*
X20487912Y-4210264D01*
X20488912Y-11838264D02*
X20518912Y-11868264D01*
X20518912Y-11838264D02*
X20488912Y-11868264D01*
X20497912Y-11331264D02*
X20527912Y-11361264D01*
X20527912Y-11331264D02*
X20497912Y-11361264D01*
X20609912Y-12486264D02*
X20639912Y-12516264D01*
X20639912Y-12486264D02*
X20609912Y-12516264D01*
X20626912Y-4939264D02*
X20656912Y-4969264D01*
X20656912Y-4939264D02*
X20626912Y-4969264D01*
X20629912Y-8688264D02*
X20659912Y-8718264D01*
X20659912Y-8688264D02*
X20629912Y-8718264D01*
X20679912Y-10932264D02*
X20709912Y-10962264D01*
X20709912Y-10932264D02*
X20679912Y-10962264D01*
X20697912Y-7036264D02*
X20727912Y-7066264D01*
X20727912Y-7036264D02*
X20697912Y-7066264D01*
X20710912Y-6478264D02*
X20740912Y-6508264D01*
X20740912Y-6478264D02*
X20710912Y-6508264D01*
X20716912Y-10249264D02*
X20746912Y-10279264D01*
X20746912Y-10249264D02*
X20716912Y-10279264D01*
X20783912Y-5348264D02*
X20813912Y-5378264D01*
X20813912Y-5348264D02*
X20783912Y-5378264D01*
X20783912Y-11060264D02*
X20813912Y-11090264D01*
X20813912Y-11060264D02*
X20783912Y-11090264D01*
X20783912Y-12967264D02*
X20813912Y-12997264D01*
X20813912Y-12967264D02*
X20783912Y-12997264D01*
X20784912Y-9164264D02*
X20814912Y-9194264D01*
X20814912Y-9164264D02*
X20784912Y-9194264D01*
X20786912Y-7259264D02*
X20816912Y-7289264D01*
X20816912Y-7259264D02*
X20786912Y-7289264D01*
X20828912Y-13675264D02*
X20858912Y-13705264D01*
X20858912Y-13675264D02*
X20828912Y-13705264D01*
X20930912Y-10248264D02*
X20960912Y-10278264D01*
X20960912Y-10248264D02*
X20930912Y-10278264D01*
X21031912Y-11692264D02*
X21061912Y-11722264D01*
X21061912Y-11692264D02*
X21031912Y-11722264D01*
X21046912Y-8375264D02*
X21076912Y-8405264D01*
X21076912Y-8375264D02*
X21046912Y-8405264D01*
X21047912Y-4577264D02*
X21077912Y-4607264D01*
X21077912Y-4577264D02*
X21047912Y-4607264D01*
X21053912Y-12270264D02*
X21083912Y-12300264D01*
X21083912Y-12270264D02*
X21053912Y-12300264D01*
X21065912Y-6541264D02*
X21095912Y-6571264D01*
X21095912Y-6541264D02*
X21065912Y-6571264D01*
X21117912Y-10340264D02*
X21147912Y-10370264D01*
X21147912Y-10340264D02*
X21117912Y-10370264D01*
X21222912Y-8176264D02*
X21252912Y-8206264D01*
X21252912Y-8176264D02*
X21222912Y-8206264D01*
X21225912Y-4353264D02*
X21255912Y-4383264D01*
X21255912Y-4353264D02*
X21225912Y-4383264D01*
X21227912Y-12003264D02*
X21257912Y-12033264D01*
X21257912Y-12003264D02*
X21227912Y-12033264D01*
X21250912Y-6333264D02*
X21280912Y-6363264D01*
X21280912Y-6333264D02*
X21250912Y-6363264D01*
X21592912Y-6363264D02*
X21622912Y-6393264D01*
X21622912Y-6363264D02*
X21592912Y-6393264D01*
X21661912Y-4347264D02*
X21691912Y-4377264D01*
X21691912Y-4347264D02*
X21661912Y-4377264D01*
X21716912Y-8139264D02*
X21746912Y-8169264D01*
X21746912Y-8139264D02*
X21716912Y-8169264D01*
X21836912Y-12046264D02*
X21866912Y-12076264D01*
X21866912Y-12046264D02*
X21836912Y-12076264D01*
X21839912Y-10158264D02*
X21869912Y-10188264D01*
X21869912Y-10158264D02*
X21839912Y-10188264D01*
X21841912Y-4297264D02*
X21871912Y-4327264D01*
X21871912Y-4297264D02*
X21841912Y-4327264D01*
X21844910Y-9880264D02*
X21874910Y-9910264D01*
X21874910Y-9880264D02*
X21844910Y-9910264D01*
X21844910Y-11797264D02*
X21874910Y-11827264D01*
X21874910Y-11797264D02*
X21844910Y-11827264D01*
X21844910Y-13713264D02*
X21874910Y-13743264D01*
X21874910Y-13713264D02*
X21844910Y-13743264D01*
X21849912Y-6079264D02*
X21879912Y-6109264D01*
X21879912Y-6079264D02*
X21849912Y-6109264D01*
X21864912Y-7971264D02*
X21894912Y-8001264D01*
X21894912Y-7971264D02*
X21864912Y-8001264D01*
X21874912Y-10803264D02*
X21904912Y-10833264D01*
X21904912Y-10803264D02*
X21874912Y-10833264D01*
X21878912Y-8889264D02*
X21908912Y-8919264D01*
X21908912Y-8889264D02*
X21878912Y-8919264D01*
X21886912Y-6999264D02*
X21916912Y-7029264D01*
X21916912Y-6999264D02*
X21886912Y-7029264D01*
X21889912Y-5095264D02*
X21919912Y-5125264D01*
X21919912Y-5095264D02*
X21889912Y-5125264D01*
X21895912Y-12678264D02*
X21925912Y-12708264D01*
X21925912Y-12678264D02*
X21895912Y-12708264D01*
X21944912Y-8198264D02*
X21974912Y-8228264D01*
X21974912Y-8198264D02*
X21944912Y-8228264D01*
X21952912Y-12099264D02*
X21982912Y-12129264D01*
X21982912Y-12099264D02*
X21952912Y-12129264D01*
X21996912Y-6389264D02*
X22026912Y-6419264D01*
X22026912Y-6389264D02*
X21996912Y-6419264D01*
X22039912Y-10212264D02*
X22069912Y-10242264D01*
X22069912Y-10212264D02*
X22039912Y-10242264D01*
X22155912Y-8026264D02*
X22185912Y-8056264D01*
X22185912Y-8026264D02*
X22155912Y-8056264D01*
X22286912Y-6245764D02*
X22316912Y-6275764D01*
X22316912Y-6245764D02*
X22286912Y-6275764D01*
X22387912Y-12009264D02*
X22417912Y-12039264D01*
X22417912Y-12009264D02*
X22387912Y-12039264D01*
X22389912Y-6033264D02*
X22419912Y-6063264D01*
X22419912Y-6033264D02*
X22389912Y-6063264D01*
X22389912Y-7917264D02*
X22419912Y-7947264D01*
X22419912Y-7917264D02*
X22389912Y-7947264D01*
X22390912Y-8124264D02*
X22420912Y-8154264D01*
X22420912Y-8124264D02*
X22390912Y-8154264D01*
X22390912Y-10109264D02*
X22420912Y-10139264D01*
X22420912Y-10109264D02*
X22390912Y-10139264D01*
X22391912Y-4421264D02*
X22421912Y-4451264D01*
X22421912Y-4421264D02*
X22391912Y-4451264D01*
X22470912Y-5136264D02*
X22500912Y-5166264D01*
X22500912Y-5136264D02*
X22470912Y-5166264D01*
X22481912Y-8937264D02*
X22511912Y-8967264D01*
X22511912Y-8937264D02*
X22481912Y-8967264D01*
X22485912Y-7016264D02*
X22515912Y-7046264D01*
X22515912Y-7016264D02*
X22485912Y-7046264D01*
X22501912Y-10912264D02*
X22531912Y-10942264D01*
X22531912Y-10912264D02*
X22501912Y-10942264D01*
X22545912Y-12725264D02*
X22575912Y-12755264D01*
X22575912Y-12725264D02*
X22545912Y-12755264D01*
X4690012Y-10748264D02*
G75*
G02*
X4613812Y-10748264I-38100J0D01*
G01*
X4613812Y-10748264D02*
G75*
G02*
X4690012Y-10748264I38100J0D01*
G01*
X4690012Y-12272264D02*
G75*
G02*
X4613812Y-12272264I-38100J0D01*
G01*
X4613812Y-12272264D02*
G75*
G02*
X4690012Y-12272264I38100J0D01*
G01*
X4944012Y-10748264D02*
G75*
G02*
X4867812Y-10748264I-38100J0D01*
G01*
X4867812Y-10748264D02*
G75*
G02*
X4944012Y-10748264I38100J0D01*
G01*
X4944012Y-12272264D02*
G75*
G02*
X4867812Y-12272264I-38100J0D01*
G01*
X4867812Y-12272264D02*
G75*
G02*
X4944012Y-12272264I38100J0D01*
G01*
X5198012Y-10748264D02*
G75*
G02*
X5121812Y-10748264I-38100J0D01*
G01*
X5121812Y-10748264D02*
G75*
G02*
X5198012Y-10748264I38100J0D01*
G01*
X5198012Y-12272264D02*
G75*
G02*
X5121812Y-12272264I-38100J0D01*
G01*
X5121812Y-12272264D02*
G75*
G02*
X5198012Y-12272264I38100J0D01*
G01*
X5452012Y-10748264D02*
G75*
G02*
X5375812Y-10748264I-38100J0D01*
G01*
X5375812Y-10748264D02*
G75*
G02*
X5452012Y-10748264I38100J0D01*
G01*
X5452012Y-12272264D02*
G75*
G02*
X5375812Y-12272264I-38100J0D01*
G01*
X5375812Y-12272264D02*
G75*
G02*
X5452012Y-12272264I38100J0D01*
G01*
X5706012Y-10748264D02*
G75*
G02*
X5629812Y-10748264I-38100J0D01*
G01*
X5629812Y-10748264D02*
G75*
G02*
X5706012Y-10748264I38100J0D01*
G01*
X5706012Y-12272264D02*
G75*
G02*
X5629812Y-12272264I-38100J0D01*
G01*
X5629812Y-12272264D02*
G75*
G02*
X5706012Y-12272264I38100J0D01*
G01*
X5960012Y-10748264D02*
G75*
G02*
X5883812Y-10748264I-38100J0D01*
G01*
X5883812Y-10748264D02*
G75*
G02*
X5960012Y-10748264I38100J0D01*
G01*
X5960012Y-12272264D02*
G75*
G02*
X5883812Y-12272264I-38100J0D01*
G01*
X5883812Y-12272264D02*
G75*
G02*
X5960012Y-12272264I38100J0D01*
G01*
X6214012Y-10748264D02*
G75*
G02*
X6137812Y-10748264I-38100J0D01*
G01*
X6137812Y-10748264D02*
G75*
G02*
X6214012Y-10748264I38100J0D01*
G01*
X6214012Y-12272264D02*
G75*
G02*
X6137812Y-12272264I-38100J0D01*
G01*
X6137812Y-12272264D02*
G75*
G02*
X6214012Y-12272264I38100J0D01*
G01*
X6468012Y-10748264D02*
G75*
G02*
X6391812Y-10748264I-38100J0D01*
G01*
X6391812Y-10748264D02*
G75*
G02*
X6468012Y-10748264I38100J0D01*
G01*
X6468012Y-12272264D02*
G75*
G02*
X6391812Y-12272264I-38100J0D01*
G01*
X6391812Y-12272264D02*
G75*
G02*
X6468012Y-12272264I38100J0D01*
G01*
X6722012Y-10748264D02*
G75*
G02*
X6645812Y-10748264I-38100J0D01*
G01*
X6645812Y-10748264D02*
G75*
G02*
X6722012Y-10748264I38100J0D01*
G01*
X6722012Y-11002264D02*
G75*
G02*
X6645812Y-11002264I-38100J0D01*
G01*
X6645812Y-11002264D02*
G75*
G02*
X6722012Y-11002264I38100J0D01*
G01*
X6722012Y-11256264D02*
G75*
G02*
X6645812Y-11256264I-38100J0D01*
G01*
X6645812Y-11256264D02*
G75*
G02*
X6722012Y-11256264I38100J0D01*
G01*
X6722012Y-11510264D02*
G75*
G02*
X6645812Y-11510264I-38100J0D01*
G01*
X6645812Y-11510264D02*
G75*
G02*
X6722012Y-11510264I38100J0D01*
G01*
X6722012Y-11764264D02*
G75*
G02*
X6645812Y-11764264I-38100J0D01*
G01*
X6645812Y-11764264D02*
G75*
G02*
X6722012Y-11764264I38100J0D01*
G01*
X6722012Y-12018264D02*
G75*
G02*
X6645812Y-12018264I-38100J0D01*
G01*
X6645812Y-12018264D02*
G75*
G02*
X6722012Y-12018264I38100J0D01*
G01*
X6722012Y-12272264D02*
G75*
G02*
X6645812Y-12272264I-38100J0D01*
G01*
X6645812Y-12272264D02*
G75*
G02*
X6722012Y-12272264I38100J0D01*
G01*
X4763912Y-4330264D02*
X4763912Y-4430264D01*
X4713912Y-4380264D02*
X4813912Y-4380264D01*
X4713912Y-4355264D02*
X4713912Y-4405264D01*
X4813912Y-4405264D02*
G75*
G02*
X4713912Y-4405264I-50000J0D01*
G01*
X4813912Y-4405264D02*
X4813912Y-4355264D01*
X4813912Y-4355264D02*
G75*
G03*
X4713912Y-4355264I-50000J0D01*
G01*
X4763912Y-4630264D02*
X4763912Y-4730264D01*
X4713912Y-4680264D02*
X4813912Y-4680264D01*
X4713912Y-4655264D02*
X4713912Y-4705264D01*
X4813912Y-4705264D02*
G75*
G02*
X4713912Y-4705264I-50000J0D01*
G01*
X4813912Y-4705264D02*
X4813912Y-4655264D01*
X4813912Y-4655264D02*
G75*
G03*
X4713912Y-4655264I-50000J0D01*
G01*
X4763912Y-5030264D02*
X4763912Y-5130264D01*
X4713912Y-5080264D02*
X4813912Y-5080264D01*
X4713912Y-5055264D02*
X4713912Y-5105264D01*
X4813912Y-5105264D02*
G75*
G02*
X4713912Y-5105264I-50000J0D01*
G01*
X4813912Y-5105264D02*
X4813912Y-5055264D01*
X4813912Y-5055264D02*
G75*
G03*
X4713912Y-5055264I-50000J0D01*
G01*
X4893912Y-11210264D02*
X4893912Y-11310264D01*
X4843912Y-11260264D02*
X4943912Y-11260264D01*
X4893912Y-11460264D02*
X4893912Y-11560264D01*
X4843912Y-11510264D02*
X4943912Y-11510264D01*
X4893912Y-11710264D02*
X4893912Y-11810264D01*
X4843912Y-11760264D02*
X4943912Y-11760264D01*
X4938912Y-5180264D02*
X4938912Y-5280264D01*
X4888912Y-5230264D02*
X4988912Y-5230264D01*
X4888912Y-5205264D02*
X4888912Y-5255264D01*
X4988912Y-5255264D02*
G75*
G02*
X4888912Y-5255264I-50000J0D01*
G01*
X4988912Y-5255264D02*
X4988912Y-5205264D01*
X4988912Y-5205264D02*
G75*
G03*
X4888912Y-5205264I-50000J0D01*
G01*
X5183912Y-5180264D02*
X5183912Y-5280264D01*
X5133912Y-5230264D02*
X5233912Y-5230264D01*
X5133912Y-5205264D02*
X5133912Y-5255264D01*
X5233912Y-5255264D02*
G75*
G02*
X5133912Y-5255264I-50000J0D01*
G01*
X5233912Y-5255264D02*
X5233912Y-5205264D01*
X5233912Y-5205264D02*
G75*
G03*
X5133912Y-5205264I-50000J0D01*
G01*
X5358912Y-4330264D02*
X5358912Y-4430264D01*
X5308912Y-4380264D02*
X5408912Y-4380264D01*
X5308912Y-4355264D02*
X5308912Y-4405264D01*
X5408912Y-4405264D02*
G75*
G02*
X5308912Y-4405264I-50000J0D01*
G01*
X5408912Y-4405264D02*
X5408912Y-4355264D01*
X5408912Y-4355264D02*
G75*
G03*
X5308912Y-4355264I-50000J0D01*
G01*
X5358912Y-4630264D02*
X5358912Y-4730264D01*
X5308912Y-4680264D02*
X5408912Y-4680264D01*
X5308912Y-4655264D02*
X5308912Y-4705264D01*
X5408912Y-4705264D02*
G75*
G02*
X5308912Y-4705264I-50000J0D01*
G01*
X5408912Y-4705264D02*
X5408912Y-4655264D01*
X5408912Y-4655264D02*
G75*
G03*
X5308912Y-4655264I-50000J0D01*
G01*
X5358912Y-5030264D02*
X5358912Y-5130264D01*
X5308912Y-5080264D02*
X5408912Y-5080264D01*
X5308912Y-5055264D02*
X5308912Y-5105264D01*
X5408912Y-5105264D02*
G75*
G02*
X5308912Y-5105264I-50000J0D01*
G01*
X5408912Y-5105264D02*
X5408912Y-5055264D01*
X5408912Y-5055264D02*
G75*
G03*
X5308912Y-5055264I-50000J0D01*
G01*
X6343912Y-11210264D02*
X6343912Y-11310264D01*
X6293912Y-11260264D02*
X6393912Y-11260264D01*
X6343912Y-11710264D02*
X6343912Y-11810264D01*
X6293912Y-11760264D02*
X6393912Y-11760264D01*
D10*
X5696945Y-11003298D02*
X5696945Y-10897231D01*
X5590879Y-10897231D01*
X5590879Y-11003298D01*
X5696945Y-11003298D01*
D13*
X5578912Y-11025264D02*
X5708912Y-11025264D01*
X5708912Y-10875264D02*
G75*
G02*
X5708912Y-11025264I0J-75000D01*
G01*
X5708912Y-10875264D02*
X5578912Y-10875264D01*
X5578912Y-10875264D02*
G75*
G03*
X5578912Y-11025264I0J-75000D01*
G01*
D10*
X5696945Y-12123297D02*
X5696945Y-12017230D01*
X5590879Y-12017230D01*
X5590879Y-12123297D01*
X5696945Y-12123297D01*
D13*
X5578912Y-12145264D02*
X5708912Y-12145264D01*
X5708912Y-11995264D02*
G75*
G02*
X5708912Y-12145264I0J-75000D01*
G01*
X5708912Y-11995264D02*
X5578912Y-11995264D01*
X5578912Y-11995264D02*
G75*
G03*
X5578912Y-12145264I0J-75000D01*
G01*
D14*
X11077500Y-6252500D02*
X11282500Y-6047500D01*
X11077500Y-5842500D01*
X10872500Y-6047500D01*
X11077500Y-6252500D01*
X11077500Y-10127500D02*
X11282500Y-9922500D01*
X11077500Y-9717500D01*
X10872500Y-9922500D01*
X11077500Y-10127500D01*
X20627500Y-6252500D02*
X20832500Y-6047500D01*
X20627500Y-5842500D01*
X20422500Y-6047500D01*
X20627500Y-6252500D01*
X20627500Y-10127500D02*
X20832500Y-9922500D01*
X20627500Y-9717500D01*
X20422500Y-9922500D01*
X20627500Y-10127500D01*
D12*
X4738181Y-16576280D02*
X4738181Y-16376280D01*
X4738181Y-16376280D02*
X4785800Y-16376280D01*
X4785800Y-16376280D02*
X4814371Y-16385803D01*
X4814371Y-16385803D02*
X4833419Y-16404851D01*
X4833419Y-16404851D02*
X4842943Y-16423899D01*
X4842943Y-16423899D02*
X4852467Y-16461994D01*
X4852467Y-16461994D02*
X4852467Y-16490565D01*
X4852467Y-16490565D02*
X4842943Y-16528660D01*
X4842943Y-16528660D02*
X4833419Y-16547708D01*
X4833419Y-16547708D02*
X4814371Y-16566756D01*
X4814371Y-16566756D02*
X4785800Y-16576280D01*
X4785800Y-16576280D02*
X4738181Y-16576280D01*
X4938181Y-16576280D02*
X4938181Y-16442946D01*
X4938181Y-16481041D02*
X4947705Y-16461994D01*
X4947705Y-16461994D02*
X4957229Y-16452470D01*
X4957229Y-16452470D02*
X4976276Y-16442946D01*
X4976276Y-16442946D02*
X4995324Y-16442946D01*
X5061990Y-16576280D02*
X5061990Y-16442946D01*
X5061990Y-16376280D02*
X5052467Y-16385803D01*
X5052467Y-16385803D02*
X5061990Y-16395327D01*
X5061990Y-16395327D02*
X5071514Y-16385803D01*
X5071514Y-16385803D02*
X5061990Y-16376280D01*
X5061990Y-16376280D02*
X5061990Y-16395327D01*
X5185800Y-16576280D02*
X5166752Y-16566756D01*
X5166752Y-16566756D02*
X5157229Y-16547708D01*
X5157229Y-16547708D02*
X5157229Y-16376280D01*
X5290562Y-16576280D02*
X5271514Y-16566756D01*
X5271514Y-16566756D02*
X5261990Y-16547708D01*
X5261990Y-16547708D02*
X5261990Y-16376280D01*
X5519133Y-16576280D02*
X5519133Y-16376280D01*
X5519133Y-16376280D02*
X5585800Y-16519137D01*
X5585800Y-16519137D02*
X5652467Y-16376280D01*
X5652467Y-16376280D02*
X5652467Y-16576280D01*
X5833419Y-16576280D02*
X5833419Y-16471518D01*
X5833419Y-16471518D02*
X5823895Y-16452470D01*
X5823895Y-16452470D02*
X5804848Y-16442946D01*
X5804848Y-16442946D02*
X5766752Y-16442946D01*
X5766752Y-16442946D02*
X5747705Y-16452470D01*
X5833419Y-16566756D02*
X5814371Y-16576280D01*
X5814371Y-16576280D02*
X5766752Y-16576280D01*
X5766752Y-16576280D02*
X5747705Y-16566756D01*
X5747705Y-16566756D02*
X5738181Y-16547708D01*
X5738181Y-16547708D02*
X5738181Y-16528660D01*
X5738181Y-16528660D02*
X5747705Y-16509613D01*
X5747705Y-16509613D02*
X5766752Y-16500089D01*
X5766752Y-16500089D02*
X5814371Y-16500089D01*
X5814371Y-16500089D02*
X5833419Y-16490565D01*
X5928657Y-16442946D02*
X5928657Y-16642946D01*
X5928657Y-16452470D02*
X5947705Y-16442946D01*
X5947705Y-16442946D02*
X5985800Y-16442946D01*
X5985800Y-16442946D02*
X6004848Y-16452470D01*
X6004848Y-16452470D02*
X6014371Y-16461994D01*
X6014371Y-16461994D02*
X6023895Y-16481041D01*
X6023895Y-16481041D02*
X6023895Y-16538184D01*
X6023895Y-16538184D02*
X6014371Y-16557232D01*
X6014371Y-16557232D02*
X6004848Y-16566756D01*
X6004848Y-16566756D02*
X5985800Y-16576280D01*
X5985800Y-16576280D02*
X5947705Y-16576280D01*
X5947705Y-16576280D02*
X5928657Y-16566756D01*
X6109609Y-16557232D02*
X6119133Y-16566756D01*
X6119133Y-16566756D02*
X6109609Y-16576280D01*
X6109609Y-16576280D02*
X6100086Y-16566756D01*
X6100086Y-16566756D02*
X6109609Y-16557232D01*
X6109609Y-16557232D02*
X6109609Y-16576280D01*
X6109609Y-16452470D02*
X6119133Y-16461994D01*
X6119133Y-16461994D02*
X6109609Y-16471518D01*
X6109609Y-16471518D02*
X6100086Y-16461994D01*
X6100086Y-16461994D02*
X6109609Y-16452470D01*
X6109609Y-16452470D02*
X6109609Y-16471518D01*
D13*
X4447404Y-16889796D02*
X4477404Y-16919796D01*
X4477404Y-16889796D02*
X4447404Y-16919796D01*
D12*
X4776276Y-16796280D02*
X4795324Y-16796280D01*
X4795324Y-16796280D02*
X4814371Y-16805803D01*
X4814371Y-16805803D02*
X4823895Y-16815327D01*
X4823895Y-16815327D02*
X4833419Y-16834375D01*
X4833419Y-16834375D02*
X4842943Y-16872470D01*
X4842943Y-16872470D02*
X4842943Y-16920089D01*
X4842943Y-16920089D02*
X4833419Y-16958184D01*
X4833419Y-16958184D02*
X4823895Y-16977232D01*
X4823895Y-16977232D02*
X4814371Y-16986756D01*
X4814371Y-16986756D02*
X4795324Y-16996280D01*
X4795324Y-16996280D02*
X4776276Y-16996280D01*
X4776276Y-16996280D02*
X4757229Y-16986756D01*
X4757229Y-16986756D02*
X4747705Y-16977232D01*
X4747705Y-16977232D02*
X4738181Y-16958184D01*
X4738181Y-16958184D02*
X4728657Y-16920089D01*
X4728657Y-16920089D02*
X4728657Y-16872470D01*
X4728657Y-16872470D02*
X4738181Y-16834375D01*
X4738181Y-16834375D02*
X4747705Y-16815327D01*
X4747705Y-16815327D02*
X4757229Y-16805803D01*
X4757229Y-16805803D02*
X4776276Y-16796280D01*
X4928657Y-16977232D02*
X4938181Y-16986756D01*
X4938181Y-16986756D02*
X4928657Y-16996280D01*
X4928657Y-16996280D02*
X4919133Y-16986756D01*
X4919133Y-16986756D02*
X4928657Y-16977232D01*
X4928657Y-16977232D02*
X4928657Y-16996280D01*
X5004848Y-16796280D02*
X5128657Y-16796280D01*
X5128657Y-16796280D02*
X5061990Y-16872470D01*
X5061990Y-16872470D02*
X5090562Y-16872470D01*
X5090562Y-16872470D02*
X5109610Y-16881994D01*
X5109610Y-16881994D02*
X5119133Y-16891518D01*
X5119133Y-16891518D02*
X5128657Y-16910565D01*
X5128657Y-16910565D02*
X5128657Y-16958184D01*
X5128657Y-16958184D02*
X5119133Y-16977232D01*
X5119133Y-16977232D02*
X5109610Y-16986756D01*
X5109610Y-16986756D02*
X5090562Y-16996280D01*
X5090562Y-16996280D02*
X5033419Y-16996280D01*
X5033419Y-16996280D02*
X5014371Y-16986756D01*
X5014371Y-16986756D02*
X5004848Y-16977232D01*
X5252467Y-16796280D02*
X5271514Y-16796280D01*
X5271514Y-16796280D02*
X5290562Y-16805803D01*
X5290562Y-16805803D02*
X5300086Y-16815327D01*
X5300086Y-16815327D02*
X5309610Y-16834375D01*
X5309610Y-16834375D02*
X5319133Y-16872470D01*
X5319133Y-16872470D02*
X5319133Y-16920089D01*
X5319133Y-16920089D02*
X5309610Y-16958184D01*
X5309610Y-16958184D02*
X5300086Y-16977232D01*
X5300086Y-16977232D02*
X5290562Y-16986756D01*
X5290562Y-16986756D02*
X5271514Y-16996280D01*
X5271514Y-16996280D02*
X5252467Y-16996280D01*
X5252467Y-16996280D02*
X5233419Y-16986756D01*
X5233419Y-16986756D02*
X5223895Y-16977232D01*
X5223895Y-16977232D02*
X5214371Y-16958184D01*
X5214371Y-16958184D02*
X5204848Y-16920089D01*
X5204848Y-16920089D02*
X5204848Y-16872470D01*
X5204848Y-16872470D02*
X5214371Y-16834375D01*
X5214371Y-16834375D02*
X5223895Y-16815327D01*
X5223895Y-16815327D02*
X5233419Y-16805803D01*
X5233419Y-16805803D02*
X5252467Y-16796280D01*
X5442943Y-16796280D02*
X5461991Y-16796280D01*
X5461991Y-16796280D02*
X5481038Y-16805803D01*
X5481038Y-16805803D02*
X5490562Y-16815327D01*
X5490562Y-16815327D02*
X5500086Y-16834375D01*
X5500086Y-16834375D02*
X5509610Y-16872470D01*
X5509610Y-16872470D02*
X5509610Y-16920089D01*
X5509610Y-16920089D02*
X5500086Y-16958184D01*
X5500086Y-16958184D02*
X5490562Y-16977232D01*
X5490562Y-16977232D02*
X5481038Y-16986756D01*
X5481038Y-16986756D02*
X5461991Y-16996280D01*
X5461991Y-16996280D02*
X5442943Y-16996280D01*
X5442943Y-16996280D02*
X5423895Y-16986756D01*
X5423895Y-16986756D02*
X5414371Y-16977232D01*
X5414371Y-16977232D02*
X5404848Y-16958184D01*
X5404848Y-16958184D02*
X5395324Y-16920089D01*
X5395324Y-16920089D02*
X5395324Y-16872470D01*
X5395324Y-16872470D02*
X5404848Y-16834375D01*
X5404848Y-16834375D02*
X5414371Y-16815327D01*
X5414371Y-16815327D02*
X5423895Y-16805803D01*
X5423895Y-16805803D02*
X5442943Y-16796280D01*
X5595324Y-16996280D02*
X5595324Y-16862946D01*
X5595324Y-16881994D02*
X5604848Y-16872470D01*
X5604848Y-16872470D02*
X5623895Y-16862946D01*
X5623895Y-16862946D02*
X5652467Y-16862946D01*
X5652467Y-16862946D02*
X5671514Y-16872470D01*
X5671514Y-16872470D02*
X5681038Y-16891518D01*
X5681038Y-16891518D02*
X5681038Y-16996280D01*
X5681038Y-16891518D02*
X5690562Y-16872470D01*
X5690562Y-16872470D02*
X5709609Y-16862946D01*
X5709609Y-16862946D02*
X5738181Y-16862946D01*
X5738181Y-16862946D02*
X5757229Y-16872470D01*
X5757229Y-16872470D02*
X5766752Y-16891518D01*
X5766752Y-16891518D02*
X5766752Y-16996280D01*
X5861990Y-16996280D02*
X5861990Y-16862946D01*
X5861990Y-16881994D02*
X5871514Y-16872470D01*
X5871514Y-16872470D02*
X5890562Y-16862946D01*
X5890562Y-16862946D02*
X5919133Y-16862946D01*
X5919133Y-16862946D02*
X5938181Y-16872470D01*
X5938181Y-16872470D02*
X5947705Y-16891518D01*
X5947705Y-16891518D02*
X5947705Y-16996280D01*
X5947705Y-16891518D02*
X5957229Y-16872470D01*
X5957229Y-16872470D02*
X5976276Y-16862946D01*
X5976276Y-16862946D02*
X6004848Y-16862946D01*
X6004848Y-16862946D02*
X6023895Y-16872470D01*
X6023895Y-16872470D02*
X6033419Y-16891518D01*
X6033419Y-16891518D02*
X6033419Y-16996280D01*
X6423895Y-16786756D02*
X6252467Y-17043899D01*
X6681038Y-16796280D02*
X6700086Y-16796280D01*
X6700086Y-16796280D02*
X6719133Y-16805803D01*
X6719133Y-16805803D02*
X6728657Y-16815327D01*
X6728657Y-16815327D02*
X6738181Y-16834375D01*
X6738181Y-16834375D02*
X6747705Y-16872470D01*
X6747705Y-16872470D02*
X6747705Y-16920089D01*
X6747705Y-16920089D02*
X6738181Y-16958184D01*
X6738181Y-16958184D02*
X6728657Y-16977232D01*
X6728657Y-16977232D02*
X6719133Y-16986756D01*
X6719133Y-16986756D02*
X6700086Y-16996280D01*
X6700086Y-16996280D02*
X6681038Y-16996280D01*
X6681038Y-16996280D02*
X6661991Y-16986756D01*
X6661991Y-16986756D02*
X6652467Y-16977232D01*
X6652467Y-16977232D02*
X6642943Y-16958184D01*
X6642943Y-16958184D02*
X6633419Y-16920089D01*
X6633419Y-16920089D02*
X6633419Y-16872470D01*
X6633419Y-16872470D02*
X6642943Y-16834375D01*
X6642943Y-16834375D02*
X6652467Y-16815327D01*
X6652467Y-16815327D02*
X6661991Y-16805803D01*
X6661991Y-16805803D02*
X6681038Y-16796280D01*
X6833419Y-16977232D02*
X6842943Y-16986756D01*
X6842943Y-16986756D02*
X6833419Y-16996280D01*
X6833419Y-16996280D02*
X6823895Y-16986756D01*
X6823895Y-16986756D02*
X6833419Y-16977232D01*
X6833419Y-16977232D02*
X6833419Y-16996280D01*
X6966752Y-16796280D02*
X6985800Y-16796280D01*
X6985800Y-16796280D02*
X7004848Y-16805803D01*
X7004848Y-16805803D02*
X7014372Y-16815327D01*
X7014372Y-16815327D02*
X7023895Y-16834375D01*
X7023895Y-16834375D02*
X7033419Y-16872470D01*
X7033419Y-16872470D02*
X7033419Y-16920089D01*
X7033419Y-16920089D02*
X7023895Y-16958184D01*
X7023895Y-16958184D02*
X7014372Y-16977232D01*
X7014372Y-16977232D02*
X7004848Y-16986756D01*
X7004848Y-16986756D02*
X6985800Y-16996280D01*
X6985800Y-16996280D02*
X6966752Y-16996280D01*
X6966752Y-16996280D02*
X6947705Y-16986756D01*
X6947705Y-16986756D02*
X6938181Y-16977232D01*
X6938181Y-16977232D02*
X6928657Y-16958184D01*
X6928657Y-16958184D02*
X6919133Y-16920089D01*
X6919133Y-16920089D02*
X6919133Y-16872470D01*
X6919133Y-16872470D02*
X6928657Y-16834375D01*
X6928657Y-16834375D02*
X6938181Y-16815327D01*
X6938181Y-16815327D02*
X6947705Y-16805803D01*
X6947705Y-16805803D02*
X6966752Y-16796280D01*
X7223895Y-16996280D02*
X7109610Y-16996280D01*
X7166752Y-16996280D02*
X7166752Y-16796280D01*
X7166752Y-16796280D02*
X7147705Y-16824851D01*
X7147705Y-16824851D02*
X7128657Y-16843899D01*
X7128657Y-16843899D02*
X7109610Y-16853422D01*
X7414372Y-16996280D02*
X7300086Y-16996280D01*
X7357229Y-16996280D02*
X7357229Y-16796280D01*
X7357229Y-16796280D02*
X7338181Y-16824851D01*
X7338181Y-16824851D02*
X7319133Y-16843899D01*
X7319133Y-16843899D02*
X7300086Y-16853422D01*
X7528657Y-16881994D02*
X7509610Y-16872470D01*
X7509610Y-16872470D02*
X7500086Y-16862946D01*
X7500086Y-16862946D02*
X7490562Y-16843899D01*
X7490562Y-16843899D02*
X7490562Y-16834375D01*
X7490562Y-16834375D02*
X7500086Y-16815327D01*
X7500086Y-16815327D02*
X7509610Y-16805803D01*
X7509610Y-16805803D02*
X7528657Y-16796280D01*
X7528657Y-16796280D02*
X7566753Y-16796280D01*
X7566753Y-16796280D02*
X7585800Y-16805803D01*
X7585800Y-16805803D02*
X7595324Y-16815327D01*
X7595324Y-16815327D02*
X7604848Y-16834375D01*
X7604848Y-16834375D02*
X7604848Y-16843899D01*
X7604848Y-16843899D02*
X7595324Y-16862946D01*
X7595324Y-16862946D02*
X7585800Y-16872470D01*
X7585800Y-16872470D02*
X7566753Y-16881994D01*
X7566753Y-16881994D02*
X7528657Y-16881994D01*
X7528657Y-16881994D02*
X7509610Y-16891518D01*
X7509610Y-16891518D02*
X7500086Y-16901042D01*
X7500086Y-16901042D02*
X7490562Y-16920089D01*
X7490562Y-16920089D02*
X7490562Y-16958184D01*
X7490562Y-16958184D02*
X7500086Y-16977232D01*
X7500086Y-16977232D02*
X7509610Y-16986756D01*
X7509610Y-16986756D02*
X7528657Y-16996280D01*
X7528657Y-16996280D02*
X7566753Y-16996280D01*
X7566753Y-16996280D02*
X7585800Y-16986756D01*
X7585800Y-16986756D02*
X7595324Y-16977232D01*
X7595324Y-16977232D02*
X7604848Y-16958184D01*
X7604848Y-16958184D02*
X7604848Y-16920089D01*
X7604848Y-16920089D02*
X7595324Y-16901042D01*
X7595324Y-16901042D02*
X7585800Y-16891518D01*
X7585800Y-16891518D02*
X7566753Y-16881994D01*
X7681038Y-16796280D02*
X7681038Y-16834375D01*
X7757229Y-16796280D02*
X7757229Y-16834375D01*
X8052467Y-17072470D02*
X8042943Y-17062946D01*
X8042943Y-17062946D02*
X8023895Y-17034375D01*
X8023895Y-17034375D02*
X8014372Y-17015327D01*
X8014372Y-17015327D02*
X8004848Y-16986756D01*
X8004848Y-16986756D02*
X7995324Y-16939137D01*
X7995324Y-16939137D02*
X7995324Y-16901042D01*
X7995324Y-16901042D02*
X8004848Y-16853422D01*
X8004848Y-16853422D02*
X8014372Y-16824851D01*
X8014372Y-16824851D02*
X8023895Y-16805803D01*
X8023895Y-16805803D02*
X8042943Y-16777232D01*
X8042943Y-16777232D02*
X8052467Y-16767708D01*
X8214372Y-16862946D02*
X8214372Y-16996280D01*
X8166753Y-16786756D02*
X8119134Y-16929613D01*
X8119134Y-16929613D02*
X8242943Y-16929613D01*
X8300086Y-16796280D02*
X8423896Y-16796280D01*
X8423896Y-16796280D02*
X8357229Y-16872470D01*
X8357229Y-16872470D02*
X8385800Y-16872470D01*
X8385800Y-16872470D02*
X8404848Y-16881994D01*
X8404848Y-16881994D02*
X8414372Y-16891518D01*
X8414372Y-16891518D02*
X8423896Y-16910565D01*
X8423896Y-16910565D02*
X8423896Y-16958184D01*
X8423896Y-16958184D02*
X8414372Y-16977232D01*
X8414372Y-16977232D02*
X8404848Y-16986756D01*
X8404848Y-16986756D02*
X8385800Y-16996280D01*
X8385800Y-16996280D02*
X8328657Y-16996280D01*
X8328657Y-16996280D02*
X8309610Y-16986756D01*
X8309610Y-16986756D02*
X8300086Y-16977232D01*
X8604848Y-16796280D02*
X8509610Y-16796280D01*
X8509610Y-16796280D02*
X8500086Y-16891518D01*
X8500086Y-16891518D02*
X8509610Y-16881994D01*
X8509610Y-16881994D02*
X8528657Y-16872470D01*
X8528657Y-16872470D02*
X8576277Y-16872470D01*
X8576277Y-16872470D02*
X8595324Y-16881994D01*
X8595324Y-16881994D02*
X8604848Y-16891518D01*
X8604848Y-16891518D02*
X8614372Y-16910565D01*
X8614372Y-16910565D02*
X8614372Y-16958184D01*
X8614372Y-16958184D02*
X8604848Y-16977232D01*
X8604848Y-16977232D02*
X8595324Y-16986756D01*
X8595324Y-16986756D02*
X8576277Y-16996280D01*
X8576277Y-16996280D02*
X8528657Y-16996280D01*
X8528657Y-16996280D02*
X8509610Y-16986756D01*
X8509610Y-16986756D02*
X8500086Y-16977232D01*
X8852467Y-16996280D02*
X8852467Y-16796280D01*
X8938181Y-16996280D02*
X8938181Y-16891518D01*
X8938181Y-16891518D02*
X8928658Y-16872470D01*
X8928658Y-16872470D02*
X8909610Y-16862946D01*
X8909610Y-16862946D02*
X8881038Y-16862946D01*
X8881038Y-16862946D02*
X8861991Y-16872470D01*
X8861991Y-16872470D02*
X8852467Y-16881994D01*
X9061991Y-16996280D02*
X9042943Y-16986756D01*
X9042943Y-16986756D02*
X9033419Y-16977232D01*
X9033419Y-16977232D02*
X9023896Y-16958184D01*
X9023896Y-16958184D02*
X9023896Y-16901042D01*
X9023896Y-16901042D02*
X9033419Y-16881994D01*
X9033419Y-16881994D02*
X9042943Y-16872470D01*
X9042943Y-16872470D02*
X9061991Y-16862946D01*
X9061991Y-16862946D02*
X9090562Y-16862946D01*
X9090562Y-16862946D02*
X9109610Y-16872470D01*
X9109610Y-16872470D02*
X9119134Y-16881994D01*
X9119134Y-16881994D02*
X9128658Y-16901042D01*
X9128658Y-16901042D02*
X9128658Y-16958184D01*
X9128658Y-16958184D02*
X9119134Y-16977232D01*
X9119134Y-16977232D02*
X9109610Y-16986756D01*
X9109610Y-16986756D02*
X9090562Y-16996280D01*
X9090562Y-16996280D02*
X9061991Y-16996280D01*
X9242943Y-16996280D02*
X9223896Y-16986756D01*
X9223896Y-16986756D02*
X9214372Y-16967708D01*
X9214372Y-16967708D02*
X9214372Y-16796280D01*
X9395324Y-16986756D02*
X9376277Y-16996280D01*
X9376277Y-16996280D02*
X9338181Y-16996280D01*
X9338181Y-16996280D02*
X9319134Y-16986756D01*
X9319134Y-16986756D02*
X9309610Y-16967708D01*
X9309610Y-16967708D02*
X9309610Y-16891518D01*
X9309610Y-16891518D02*
X9319134Y-16872470D01*
X9319134Y-16872470D02*
X9338181Y-16862946D01*
X9338181Y-16862946D02*
X9376277Y-16862946D01*
X9376277Y-16862946D02*
X9395324Y-16872470D01*
X9395324Y-16872470D02*
X9404848Y-16891518D01*
X9404848Y-16891518D02*
X9404848Y-16910565D01*
X9404848Y-16910565D02*
X9309610Y-16929613D01*
X9481039Y-16986756D02*
X9500086Y-16996280D01*
X9500086Y-16996280D02*
X9538181Y-16996280D01*
X9538181Y-16996280D02*
X9557229Y-16986756D01*
X9557229Y-16986756D02*
X9566753Y-16967708D01*
X9566753Y-16967708D02*
X9566753Y-16958184D01*
X9566753Y-16958184D02*
X9557229Y-16939137D01*
X9557229Y-16939137D02*
X9538181Y-16929613D01*
X9538181Y-16929613D02*
X9509610Y-16929613D01*
X9509610Y-16929613D02*
X9490562Y-16920089D01*
X9490562Y-16920089D02*
X9481039Y-16901042D01*
X9481039Y-16901042D02*
X9481039Y-16891518D01*
X9481039Y-16891518D02*
X9490562Y-16872470D01*
X9490562Y-16872470D02*
X9509610Y-16862946D01*
X9509610Y-16862946D02*
X9538181Y-16862946D01*
X9538181Y-16862946D02*
X9557229Y-16872470D01*
X9633420Y-17072470D02*
X9642943Y-17062946D01*
X9642943Y-17062946D02*
X9661991Y-17034375D01*
X9661991Y-17034375D02*
X9671515Y-17015327D01*
X9671515Y-17015327D02*
X9681039Y-16986756D01*
X9681039Y-16986756D02*
X9690562Y-16939137D01*
X9690562Y-16939137D02*
X9690562Y-16901042D01*
X9690562Y-16901042D02*
X9681039Y-16853422D01*
X9681039Y-16853422D02*
X9671515Y-16824851D01*
X9671515Y-16824851D02*
X9661991Y-16805803D01*
X9661991Y-16805803D02*
X9642943Y-16777232D01*
X9642943Y-16777232D02*
X9633420Y-16767708D01*
D13*
X4477404Y-17168796D02*
G75*
G02*
X4401204Y-17168796I-38100J0D01*
G01*
X4401204Y-17168796D02*
G75*
G02*
X4477404Y-17168796I38100J0D01*
G01*
D12*
X4776276Y-17060280D02*
X4795324Y-17060280D01*
X4795324Y-17060280D02*
X4814371Y-17069803D01*
X4814371Y-17069803D02*
X4823895Y-17079327D01*
X4823895Y-17079327D02*
X4833419Y-17098375D01*
X4833419Y-17098375D02*
X4842943Y-17136470D01*
X4842943Y-17136470D02*
X4842943Y-17184089D01*
X4842943Y-17184089D02*
X4833419Y-17222184D01*
X4833419Y-17222184D02*
X4823895Y-17241232D01*
X4823895Y-17241232D02*
X4814371Y-17250756D01*
X4814371Y-17250756D02*
X4795324Y-17260280D01*
X4795324Y-17260280D02*
X4776276Y-17260280D01*
X4776276Y-17260280D02*
X4757229Y-17250756D01*
X4757229Y-17250756D02*
X4747705Y-17241232D01*
X4747705Y-17241232D02*
X4738181Y-17222184D01*
X4738181Y-17222184D02*
X4728657Y-17184089D01*
X4728657Y-17184089D02*
X4728657Y-17136470D01*
X4728657Y-17136470D02*
X4738181Y-17098375D01*
X4738181Y-17098375D02*
X4747705Y-17079327D01*
X4747705Y-17079327D02*
X4757229Y-17069803D01*
X4757229Y-17069803D02*
X4776276Y-17060280D01*
X4928657Y-17241232D02*
X4938181Y-17250756D01*
X4938181Y-17250756D02*
X4928657Y-17260280D01*
X4928657Y-17260280D02*
X4919133Y-17250756D01*
X4919133Y-17250756D02*
X4928657Y-17241232D01*
X4928657Y-17241232D02*
X4928657Y-17260280D01*
X5004848Y-17060280D02*
X5138181Y-17060280D01*
X5138181Y-17060280D02*
X5052467Y-17260280D01*
X5300086Y-17060280D02*
X5261990Y-17060280D01*
X5261990Y-17060280D02*
X5242943Y-17069803D01*
X5242943Y-17069803D02*
X5233419Y-17079327D01*
X5233419Y-17079327D02*
X5214371Y-17107899D01*
X5214371Y-17107899D02*
X5204848Y-17145994D01*
X5204848Y-17145994D02*
X5204848Y-17222184D01*
X5204848Y-17222184D02*
X5214371Y-17241232D01*
X5214371Y-17241232D02*
X5223895Y-17250756D01*
X5223895Y-17250756D02*
X5242943Y-17260280D01*
X5242943Y-17260280D02*
X5281038Y-17260280D01*
X5281038Y-17260280D02*
X5300086Y-17250756D01*
X5300086Y-17250756D02*
X5309610Y-17241232D01*
X5309610Y-17241232D02*
X5319133Y-17222184D01*
X5319133Y-17222184D02*
X5319133Y-17174565D01*
X5319133Y-17174565D02*
X5309610Y-17155518D01*
X5309610Y-17155518D02*
X5300086Y-17145994D01*
X5300086Y-17145994D02*
X5281038Y-17136470D01*
X5281038Y-17136470D02*
X5242943Y-17136470D01*
X5242943Y-17136470D02*
X5223895Y-17145994D01*
X5223895Y-17145994D02*
X5214371Y-17155518D01*
X5214371Y-17155518D02*
X5204848Y-17174565D01*
X5395324Y-17079327D02*
X5404848Y-17069803D01*
X5404848Y-17069803D02*
X5423895Y-17060280D01*
X5423895Y-17060280D02*
X5471514Y-17060280D01*
X5471514Y-17060280D02*
X5490562Y-17069803D01*
X5490562Y-17069803D02*
X5500086Y-17079327D01*
X5500086Y-17079327D02*
X5509610Y-17098375D01*
X5509610Y-17098375D02*
X5509610Y-17117422D01*
X5509610Y-17117422D02*
X5500086Y-17145994D01*
X5500086Y-17145994D02*
X5385800Y-17260280D01*
X5385800Y-17260280D02*
X5509610Y-17260280D01*
X5595324Y-17260280D02*
X5595324Y-17126946D01*
X5595324Y-17145994D02*
X5604848Y-17136470D01*
X5604848Y-17136470D02*
X5623895Y-17126946D01*
X5623895Y-17126946D02*
X5652467Y-17126946D01*
X5652467Y-17126946D02*
X5671514Y-17136470D01*
X5671514Y-17136470D02*
X5681038Y-17155518D01*
X5681038Y-17155518D02*
X5681038Y-17260280D01*
X5681038Y-17155518D02*
X5690562Y-17136470D01*
X5690562Y-17136470D02*
X5709609Y-17126946D01*
X5709609Y-17126946D02*
X5738181Y-17126946D01*
X5738181Y-17126946D02*
X5757229Y-17136470D01*
X5757229Y-17136470D02*
X5766752Y-17155518D01*
X5766752Y-17155518D02*
X5766752Y-17260280D01*
X5861990Y-17260280D02*
X5861990Y-17126946D01*
X5861990Y-17145994D02*
X5871514Y-17136470D01*
X5871514Y-17136470D02*
X5890562Y-17126946D01*
X5890562Y-17126946D02*
X5919133Y-17126946D01*
X5919133Y-17126946D02*
X5938181Y-17136470D01*
X5938181Y-17136470D02*
X5947705Y-17155518D01*
X5947705Y-17155518D02*
X5947705Y-17260280D01*
X5947705Y-17155518D02*
X5957229Y-17136470D01*
X5957229Y-17136470D02*
X5976276Y-17126946D01*
X5976276Y-17126946D02*
X6004848Y-17126946D01*
X6004848Y-17126946D02*
X6023895Y-17136470D01*
X6023895Y-17136470D02*
X6033419Y-17155518D01*
X6033419Y-17155518D02*
X6033419Y-17260280D01*
X6423895Y-17050756D02*
X6252467Y-17307899D01*
X6681038Y-17060280D02*
X6700086Y-17060280D01*
X6700086Y-17060280D02*
X6719133Y-17069803D01*
X6719133Y-17069803D02*
X6728657Y-17079327D01*
X6728657Y-17079327D02*
X6738181Y-17098375D01*
X6738181Y-17098375D02*
X6747705Y-17136470D01*
X6747705Y-17136470D02*
X6747705Y-17184089D01*
X6747705Y-17184089D02*
X6738181Y-17222184D01*
X6738181Y-17222184D02*
X6728657Y-17241232D01*
X6728657Y-17241232D02*
X6719133Y-17250756D01*
X6719133Y-17250756D02*
X6700086Y-17260280D01*
X6700086Y-17260280D02*
X6681038Y-17260280D01*
X6681038Y-17260280D02*
X6661991Y-17250756D01*
X6661991Y-17250756D02*
X6652467Y-17241232D01*
X6652467Y-17241232D02*
X6642943Y-17222184D01*
X6642943Y-17222184D02*
X6633419Y-17184089D01*
X6633419Y-17184089D02*
X6633419Y-17136470D01*
X6633419Y-17136470D02*
X6642943Y-17098375D01*
X6642943Y-17098375D02*
X6652467Y-17079327D01*
X6652467Y-17079327D02*
X6661991Y-17069803D01*
X6661991Y-17069803D02*
X6681038Y-17060280D01*
X6833419Y-17241232D02*
X6842943Y-17250756D01*
X6842943Y-17250756D02*
X6833419Y-17260280D01*
X6833419Y-17260280D02*
X6823895Y-17250756D01*
X6823895Y-17250756D02*
X6833419Y-17241232D01*
X6833419Y-17241232D02*
X6833419Y-17260280D01*
X6966752Y-17060280D02*
X6985800Y-17060280D01*
X6985800Y-17060280D02*
X7004848Y-17069803D01*
X7004848Y-17069803D02*
X7014372Y-17079327D01*
X7014372Y-17079327D02*
X7023895Y-17098375D01*
X7023895Y-17098375D02*
X7033419Y-17136470D01*
X7033419Y-17136470D02*
X7033419Y-17184089D01*
X7033419Y-17184089D02*
X7023895Y-17222184D01*
X7023895Y-17222184D02*
X7014372Y-17241232D01*
X7014372Y-17241232D02*
X7004848Y-17250756D01*
X7004848Y-17250756D02*
X6985800Y-17260280D01*
X6985800Y-17260280D02*
X6966752Y-17260280D01*
X6966752Y-17260280D02*
X6947705Y-17250756D01*
X6947705Y-17250756D02*
X6938181Y-17241232D01*
X6938181Y-17241232D02*
X6928657Y-17222184D01*
X6928657Y-17222184D02*
X6919133Y-17184089D01*
X6919133Y-17184089D02*
X6919133Y-17136470D01*
X6919133Y-17136470D02*
X6928657Y-17098375D01*
X6928657Y-17098375D02*
X6938181Y-17079327D01*
X6938181Y-17079327D02*
X6947705Y-17069803D01*
X6947705Y-17069803D02*
X6966752Y-17060280D01*
X7100086Y-17060280D02*
X7223895Y-17060280D01*
X7223895Y-17060280D02*
X7157229Y-17136470D01*
X7157229Y-17136470D02*
X7185800Y-17136470D01*
X7185800Y-17136470D02*
X7204848Y-17145994D01*
X7204848Y-17145994D02*
X7214372Y-17155518D01*
X7214372Y-17155518D02*
X7223895Y-17174565D01*
X7223895Y-17174565D02*
X7223895Y-17222184D01*
X7223895Y-17222184D02*
X7214372Y-17241232D01*
X7214372Y-17241232D02*
X7204848Y-17250756D01*
X7204848Y-17250756D02*
X7185800Y-17260280D01*
X7185800Y-17260280D02*
X7128657Y-17260280D01*
X7128657Y-17260280D02*
X7109610Y-17250756D01*
X7109610Y-17250756D02*
X7100086Y-17241232D01*
X7347705Y-17060280D02*
X7366753Y-17060280D01*
X7366753Y-17060280D02*
X7385800Y-17069803D01*
X7385800Y-17069803D02*
X7395324Y-17079327D01*
X7395324Y-17079327D02*
X7404848Y-17098375D01*
X7404848Y-17098375D02*
X7414372Y-17136470D01*
X7414372Y-17136470D02*
X7414372Y-17184089D01*
X7414372Y-17184089D02*
X7404848Y-17222184D01*
X7404848Y-17222184D02*
X7395324Y-17241232D01*
X7395324Y-17241232D02*
X7385800Y-17250756D01*
X7385800Y-17250756D02*
X7366753Y-17260280D01*
X7366753Y-17260280D02*
X7347705Y-17260280D01*
X7347705Y-17260280D02*
X7328657Y-17250756D01*
X7328657Y-17250756D02*
X7319133Y-17241232D01*
X7319133Y-17241232D02*
X7309610Y-17222184D01*
X7309610Y-17222184D02*
X7300086Y-17184089D01*
X7300086Y-17184089D02*
X7300086Y-17136470D01*
X7300086Y-17136470D02*
X7309610Y-17098375D01*
X7309610Y-17098375D02*
X7319133Y-17079327D01*
X7319133Y-17079327D02*
X7328657Y-17069803D01*
X7328657Y-17069803D02*
X7347705Y-17060280D01*
X7538181Y-17060280D02*
X7557229Y-17060280D01*
X7557229Y-17060280D02*
X7576276Y-17069803D01*
X7576276Y-17069803D02*
X7585800Y-17079327D01*
X7585800Y-17079327D02*
X7595324Y-17098375D01*
X7595324Y-17098375D02*
X7604848Y-17136470D01*
X7604848Y-17136470D02*
X7604848Y-17184089D01*
X7604848Y-17184089D02*
X7595324Y-17222184D01*
X7595324Y-17222184D02*
X7585800Y-17241232D01*
X7585800Y-17241232D02*
X7576276Y-17250756D01*
X7576276Y-17250756D02*
X7557229Y-17260280D01*
X7557229Y-17260280D02*
X7538181Y-17260280D01*
X7538181Y-17260280D02*
X7519133Y-17250756D01*
X7519133Y-17250756D02*
X7509610Y-17241232D01*
X7509610Y-17241232D02*
X7500086Y-17222184D01*
X7500086Y-17222184D02*
X7490562Y-17184089D01*
X7490562Y-17184089D02*
X7490562Y-17136470D01*
X7490562Y-17136470D02*
X7500086Y-17098375D01*
X7500086Y-17098375D02*
X7509610Y-17079327D01*
X7509610Y-17079327D02*
X7519133Y-17069803D01*
X7519133Y-17069803D02*
X7538181Y-17060280D01*
X7681038Y-17060280D02*
X7681038Y-17098375D01*
X7757229Y-17060280D02*
X7757229Y-17098375D01*
X8052467Y-17336470D02*
X8042943Y-17326946D01*
X8042943Y-17326946D02*
X8023895Y-17298375D01*
X8023895Y-17298375D02*
X8014372Y-17279327D01*
X8014372Y-17279327D02*
X8004848Y-17250756D01*
X8004848Y-17250756D02*
X7995324Y-17203137D01*
X7995324Y-17203137D02*
X7995324Y-17165042D01*
X7995324Y-17165042D02*
X8004848Y-17117422D01*
X8004848Y-17117422D02*
X8014372Y-17088851D01*
X8014372Y-17088851D02*
X8023895Y-17069803D01*
X8023895Y-17069803D02*
X8042943Y-17041232D01*
X8042943Y-17041232D02*
X8052467Y-17031708D01*
X8119134Y-17079327D02*
X8128657Y-17069803D01*
X8128657Y-17069803D02*
X8147705Y-17060280D01*
X8147705Y-17060280D02*
X8195324Y-17060280D01*
X8195324Y-17060280D02*
X8214372Y-17069803D01*
X8214372Y-17069803D02*
X8223895Y-17079327D01*
X8223895Y-17079327D02*
X8233419Y-17098375D01*
X8233419Y-17098375D02*
X8233419Y-17117422D01*
X8233419Y-17117422D02*
X8223895Y-17145994D01*
X8223895Y-17145994D02*
X8109610Y-17260280D01*
X8109610Y-17260280D02*
X8233419Y-17260280D01*
X8300086Y-17060280D02*
X8423896Y-17060280D01*
X8423896Y-17060280D02*
X8357229Y-17136470D01*
X8357229Y-17136470D02*
X8385800Y-17136470D01*
X8385800Y-17136470D02*
X8404848Y-17145994D01*
X8404848Y-17145994D02*
X8414372Y-17155518D01*
X8414372Y-17155518D02*
X8423896Y-17174565D01*
X8423896Y-17174565D02*
X8423896Y-17222184D01*
X8423896Y-17222184D02*
X8414372Y-17241232D01*
X8414372Y-17241232D02*
X8404848Y-17250756D01*
X8404848Y-17250756D02*
X8385800Y-17260280D01*
X8385800Y-17260280D02*
X8328657Y-17260280D01*
X8328657Y-17260280D02*
X8309610Y-17250756D01*
X8309610Y-17250756D02*
X8300086Y-17241232D01*
X8661991Y-17260280D02*
X8661991Y-17060280D01*
X8747705Y-17260280D02*
X8747705Y-17155518D01*
X8747705Y-17155518D02*
X8738181Y-17136470D01*
X8738181Y-17136470D02*
X8719134Y-17126946D01*
X8719134Y-17126946D02*
X8690562Y-17126946D01*
X8690562Y-17126946D02*
X8671515Y-17136470D01*
X8671515Y-17136470D02*
X8661991Y-17145994D01*
X8871515Y-17260280D02*
X8852467Y-17250756D01*
X8852467Y-17250756D02*
X8842943Y-17241232D01*
X8842943Y-17241232D02*
X8833419Y-17222184D01*
X8833419Y-17222184D02*
X8833419Y-17165042D01*
X8833419Y-17165042D02*
X8842943Y-17145994D01*
X8842943Y-17145994D02*
X8852467Y-17136470D01*
X8852467Y-17136470D02*
X8871515Y-17126946D01*
X8871515Y-17126946D02*
X8900086Y-17126946D01*
X8900086Y-17126946D02*
X8919134Y-17136470D01*
X8919134Y-17136470D02*
X8928658Y-17145994D01*
X8928658Y-17145994D02*
X8938181Y-17165042D01*
X8938181Y-17165042D02*
X8938181Y-17222184D01*
X8938181Y-17222184D02*
X8928658Y-17241232D01*
X8928658Y-17241232D02*
X8919134Y-17250756D01*
X8919134Y-17250756D02*
X8900086Y-17260280D01*
X8900086Y-17260280D02*
X8871515Y-17260280D01*
X9052467Y-17260280D02*
X9033419Y-17250756D01*
X9033419Y-17250756D02*
X9023896Y-17231708D01*
X9023896Y-17231708D02*
X9023896Y-17060280D01*
X9204848Y-17250756D02*
X9185800Y-17260280D01*
X9185800Y-17260280D02*
X9147705Y-17260280D01*
X9147705Y-17260280D02*
X9128658Y-17250756D01*
X9128658Y-17250756D02*
X9119134Y-17231708D01*
X9119134Y-17231708D02*
X9119134Y-17155518D01*
X9119134Y-17155518D02*
X9128658Y-17136470D01*
X9128658Y-17136470D02*
X9147705Y-17126946D01*
X9147705Y-17126946D02*
X9185800Y-17126946D01*
X9185800Y-17126946D02*
X9204848Y-17136470D01*
X9204848Y-17136470D02*
X9214372Y-17155518D01*
X9214372Y-17155518D02*
X9214372Y-17174565D01*
X9214372Y-17174565D02*
X9119134Y-17193613D01*
X9290562Y-17250756D02*
X9309610Y-17260280D01*
X9309610Y-17260280D02*
X9347705Y-17260280D01*
X9347705Y-17260280D02*
X9366753Y-17250756D01*
X9366753Y-17250756D02*
X9376277Y-17231708D01*
X9376277Y-17231708D02*
X9376277Y-17222184D01*
X9376277Y-17222184D02*
X9366753Y-17203137D01*
X9366753Y-17203137D02*
X9347705Y-17193613D01*
X9347705Y-17193613D02*
X9319134Y-17193613D01*
X9319134Y-17193613D02*
X9300086Y-17184089D01*
X9300086Y-17184089D02*
X9290562Y-17165042D01*
X9290562Y-17165042D02*
X9290562Y-17155518D01*
X9290562Y-17155518D02*
X9300086Y-17136470D01*
X9300086Y-17136470D02*
X9319134Y-17126946D01*
X9319134Y-17126946D02*
X9347705Y-17126946D01*
X9347705Y-17126946D02*
X9366753Y-17136470D01*
X9442943Y-17336470D02*
X9452467Y-17326946D01*
X9452467Y-17326946D02*
X9471515Y-17298375D01*
X9471515Y-17298375D02*
X9481039Y-17279327D01*
X9481039Y-17279327D02*
X9490562Y-17250756D01*
X9490562Y-17250756D02*
X9500086Y-17203137D01*
X9500086Y-17203137D02*
X9500086Y-17165042D01*
X9500086Y-17165042D02*
X9490562Y-17117422D01*
X9490562Y-17117422D02*
X9481039Y-17088851D01*
X9481039Y-17088851D02*
X9471515Y-17069803D01*
X9471515Y-17069803D02*
X9452467Y-17041232D01*
X9452467Y-17041232D02*
X9442943Y-17031708D01*
D13*
X4427404Y-17382796D02*
X4427404Y-17482796D01*
X4377404Y-17432796D02*
X4477404Y-17432796D01*
D12*
X4842943Y-17524280D02*
X4728657Y-17524280D01*
X4785800Y-17524280D02*
X4785800Y-17324280D01*
X4785800Y-17324280D02*
X4766752Y-17352851D01*
X4766752Y-17352851D02*
X4747705Y-17371899D01*
X4747705Y-17371899D02*
X4728657Y-17381422D01*
X4928657Y-17505232D02*
X4938181Y-17514756D01*
X4938181Y-17514756D02*
X4928657Y-17524280D01*
X4928657Y-17524280D02*
X4919133Y-17514756D01*
X4919133Y-17514756D02*
X4928657Y-17505232D01*
X4928657Y-17505232D02*
X4928657Y-17524280D01*
X5061990Y-17324280D02*
X5081038Y-17324280D01*
X5081038Y-17324280D02*
X5100086Y-17333803D01*
X5100086Y-17333803D02*
X5109610Y-17343327D01*
X5109610Y-17343327D02*
X5119133Y-17362375D01*
X5119133Y-17362375D02*
X5128657Y-17400470D01*
X5128657Y-17400470D02*
X5128657Y-17448089D01*
X5128657Y-17448089D02*
X5119133Y-17486184D01*
X5119133Y-17486184D02*
X5109610Y-17505232D01*
X5109610Y-17505232D02*
X5100086Y-17514756D01*
X5100086Y-17514756D02*
X5081038Y-17524280D01*
X5081038Y-17524280D02*
X5061990Y-17524280D01*
X5061990Y-17524280D02*
X5042943Y-17514756D01*
X5042943Y-17514756D02*
X5033419Y-17505232D01*
X5033419Y-17505232D02*
X5023895Y-17486184D01*
X5023895Y-17486184D02*
X5014371Y-17448089D01*
X5014371Y-17448089D02*
X5014371Y-17400470D01*
X5014371Y-17400470D02*
X5023895Y-17362375D01*
X5023895Y-17362375D02*
X5033419Y-17343327D01*
X5033419Y-17343327D02*
X5042943Y-17333803D01*
X5042943Y-17333803D02*
X5061990Y-17324280D01*
X5252467Y-17324280D02*
X5271514Y-17324280D01*
X5271514Y-17324280D02*
X5290562Y-17333803D01*
X5290562Y-17333803D02*
X5300086Y-17343327D01*
X5300086Y-17343327D02*
X5309610Y-17362375D01*
X5309610Y-17362375D02*
X5319133Y-17400470D01*
X5319133Y-17400470D02*
X5319133Y-17448089D01*
X5319133Y-17448089D02*
X5309610Y-17486184D01*
X5309610Y-17486184D02*
X5300086Y-17505232D01*
X5300086Y-17505232D02*
X5290562Y-17514756D01*
X5290562Y-17514756D02*
X5271514Y-17524280D01*
X5271514Y-17524280D02*
X5252467Y-17524280D01*
X5252467Y-17524280D02*
X5233419Y-17514756D01*
X5233419Y-17514756D02*
X5223895Y-17505232D01*
X5223895Y-17505232D02*
X5214371Y-17486184D01*
X5214371Y-17486184D02*
X5204848Y-17448089D01*
X5204848Y-17448089D02*
X5204848Y-17400470D01*
X5204848Y-17400470D02*
X5214371Y-17362375D01*
X5214371Y-17362375D02*
X5223895Y-17343327D01*
X5223895Y-17343327D02*
X5233419Y-17333803D01*
X5233419Y-17333803D02*
X5252467Y-17324280D01*
X5442943Y-17324280D02*
X5461991Y-17324280D01*
X5461991Y-17324280D02*
X5481038Y-17333803D01*
X5481038Y-17333803D02*
X5490562Y-17343327D01*
X5490562Y-17343327D02*
X5500086Y-17362375D01*
X5500086Y-17362375D02*
X5509610Y-17400470D01*
X5509610Y-17400470D02*
X5509610Y-17448089D01*
X5509610Y-17448089D02*
X5500086Y-17486184D01*
X5500086Y-17486184D02*
X5490562Y-17505232D01*
X5490562Y-17505232D02*
X5481038Y-17514756D01*
X5481038Y-17514756D02*
X5461991Y-17524280D01*
X5461991Y-17524280D02*
X5442943Y-17524280D01*
X5442943Y-17524280D02*
X5423895Y-17514756D01*
X5423895Y-17514756D02*
X5414371Y-17505232D01*
X5414371Y-17505232D02*
X5404848Y-17486184D01*
X5404848Y-17486184D02*
X5395324Y-17448089D01*
X5395324Y-17448089D02*
X5395324Y-17400470D01*
X5395324Y-17400470D02*
X5404848Y-17362375D01*
X5404848Y-17362375D02*
X5414371Y-17343327D01*
X5414371Y-17343327D02*
X5423895Y-17333803D01*
X5423895Y-17333803D02*
X5442943Y-17324280D01*
X5595324Y-17524280D02*
X5595324Y-17390946D01*
X5595324Y-17409994D02*
X5604848Y-17400470D01*
X5604848Y-17400470D02*
X5623895Y-17390946D01*
X5623895Y-17390946D02*
X5652467Y-17390946D01*
X5652467Y-17390946D02*
X5671514Y-17400470D01*
X5671514Y-17400470D02*
X5681038Y-17419518D01*
X5681038Y-17419518D02*
X5681038Y-17524280D01*
X5681038Y-17419518D02*
X5690562Y-17400470D01*
X5690562Y-17400470D02*
X5709609Y-17390946D01*
X5709609Y-17390946D02*
X5738181Y-17390946D01*
X5738181Y-17390946D02*
X5757229Y-17400470D01*
X5757229Y-17400470D02*
X5766752Y-17419518D01*
X5766752Y-17419518D02*
X5766752Y-17524280D01*
X5861990Y-17524280D02*
X5861990Y-17390946D01*
X5861990Y-17409994D02*
X5871514Y-17400470D01*
X5871514Y-17400470D02*
X5890562Y-17390946D01*
X5890562Y-17390946D02*
X5919133Y-17390946D01*
X5919133Y-17390946D02*
X5938181Y-17400470D01*
X5938181Y-17400470D02*
X5947705Y-17419518D01*
X5947705Y-17419518D02*
X5947705Y-17524280D01*
X5947705Y-17419518D02*
X5957229Y-17400470D01*
X5957229Y-17400470D02*
X5976276Y-17390946D01*
X5976276Y-17390946D02*
X6004848Y-17390946D01*
X6004848Y-17390946D02*
X6023895Y-17400470D01*
X6023895Y-17400470D02*
X6033419Y-17419518D01*
X6033419Y-17419518D02*
X6033419Y-17524280D01*
X6423895Y-17314756D02*
X6252467Y-17571899D01*
X6681038Y-17324280D02*
X6700086Y-17324280D01*
X6700086Y-17324280D02*
X6719133Y-17333803D01*
X6719133Y-17333803D02*
X6728657Y-17343327D01*
X6728657Y-17343327D02*
X6738181Y-17362375D01*
X6738181Y-17362375D02*
X6747705Y-17400470D01*
X6747705Y-17400470D02*
X6747705Y-17448089D01*
X6747705Y-17448089D02*
X6738181Y-17486184D01*
X6738181Y-17486184D02*
X6728657Y-17505232D01*
X6728657Y-17505232D02*
X6719133Y-17514756D01*
X6719133Y-17514756D02*
X6700086Y-17524280D01*
X6700086Y-17524280D02*
X6681038Y-17524280D01*
X6681038Y-17524280D02*
X6661991Y-17514756D01*
X6661991Y-17514756D02*
X6652467Y-17505232D01*
X6652467Y-17505232D02*
X6642943Y-17486184D01*
X6642943Y-17486184D02*
X6633419Y-17448089D01*
X6633419Y-17448089D02*
X6633419Y-17400470D01*
X6633419Y-17400470D02*
X6642943Y-17362375D01*
X6642943Y-17362375D02*
X6652467Y-17343327D01*
X6652467Y-17343327D02*
X6661991Y-17333803D01*
X6661991Y-17333803D02*
X6681038Y-17324280D01*
X6833419Y-17505232D02*
X6842943Y-17514756D01*
X6842943Y-17514756D02*
X6833419Y-17524280D01*
X6833419Y-17524280D02*
X6823895Y-17514756D01*
X6823895Y-17514756D02*
X6833419Y-17505232D01*
X6833419Y-17505232D02*
X6833419Y-17524280D01*
X6966752Y-17324280D02*
X6985800Y-17324280D01*
X6985800Y-17324280D02*
X7004848Y-17333803D01*
X7004848Y-17333803D02*
X7014372Y-17343327D01*
X7014372Y-17343327D02*
X7023895Y-17362375D01*
X7023895Y-17362375D02*
X7033419Y-17400470D01*
X7033419Y-17400470D02*
X7033419Y-17448089D01*
X7033419Y-17448089D02*
X7023895Y-17486184D01*
X7023895Y-17486184D02*
X7014372Y-17505232D01*
X7014372Y-17505232D02*
X7004848Y-17514756D01*
X7004848Y-17514756D02*
X6985800Y-17524280D01*
X6985800Y-17524280D02*
X6966752Y-17524280D01*
X6966752Y-17524280D02*
X6947705Y-17514756D01*
X6947705Y-17514756D02*
X6938181Y-17505232D01*
X6938181Y-17505232D02*
X6928657Y-17486184D01*
X6928657Y-17486184D02*
X6919133Y-17448089D01*
X6919133Y-17448089D02*
X6919133Y-17400470D01*
X6919133Y-17400470D02*
X6928657Y-17362375D01*
X6928657Y-17362375D02*
X6938181Y-17343327D01*
X6938181Y-17343327D02*
X6947705Y-17333803D01*
X6947705Y-17333803D02*
X6966752Y-17324280D01*
X7100086Y-17324280D02*
X7223895Y-17324280D01*
X7223895Y-17324280D02*
X7157229Y-17400470D01*
X7157229Y-17400470D02*
X7185800Y-17400470D01*
X7185800Y-17400470D02*
X7204848Y-17409994D01*
X7204848Y-17409994D02*
X7214372Y-17419518D01*
X7214372Y-17419518D02*
X7223895Y-17438565D01*
X7223895Y-17438565D02*
X7223895Y-17486184D01*
X7223895Y-17486184D02*
X7214372Y-17505232D01*
X7214372Y-17505232D02*
X7204848Y-17514756D01*
X7204848Y-17514756D02*
X7185800Y-17524280D01*
X7185800Y-17524280D02*
X7128657Y-17524280D01*
X7128657Y-17524280D02*
X7109610Y-17514756D01*
X7109610Y-17514756D02*
X7100086Y-17505232D01*
X7319133Y-17524280D02*
X7357229Y-17524280D01*
X7357229Y-17524280D02*
X7376276Y-17514756D01*
X7376276Y-17514756D02*
X7385800Y-17505232D01*
X7385800Y-17505232D02*
X7404848Y-17476661D01*
X7404848Y-17476661D02*
X7414372Y-17438565D01*
X7414372Y-17438565D02*
X7414372Y-17362375D01*
X7414372Y-17362375D02*
X7404848Y-17343327D01*
X7404848Y-17343327D02*
X7395324Y-17333803D01*
X7395324Y-17333803D02*
X7376276Y-17324280D01*
X7376276Y-17324280D02*
X7338181Y-17324280D01*
X7338181Y-17324280D02*
X7319133Y-17333803D01*
X7319133Y-17333803D02*
X7309610Y-17343327D01*
X7309610Y-17343327D02*
X7300086Y-17362375D01*
X7300086Y-17362375D02*
X7300086Y-17409994D01*
X7300086Y-17409994D02*
X7309610Y-17429042D01*
X7309610Y-17429042D02*
X7319133Y-17438565D01*
X7319133Y-17438565D02*
X7338181Y-17448089D01*
X7338181Y-17448089D02*
X7376276Y-17448089D01*
X7376276Y-17448089D02*
X7395324Y-17438565D01*
X7395324Y-17438565D02*
X7404848Y-17429042D01*
X7404848Y-17429042D02*
X7414372Y-17409994D01*
X7585800Y-17390946D02*
X7585800Y-17524280D01*
X7538181Y-17314756D02*
X7490562Y-17457613D01*
X7490562Y-17457613D02*
X7614372Y-17457613D01*
X7681038Y-17324280D02*
X7681038Y-17362375D01*
X7757229Y-17324280D02*
X7757229Y-17362375D01*
X8052467Y-17600470D02*
X8042943Y-17590946D01*
X8042943Y-17590946D02*
X8023895Y-17562375D01*
X8023895Y-17562375D02*
X8014372Y-17543327D01*
X8014372Y-17543327D02*
X8004848Y-17514756D01*
X8004848Y-17514756D02*
X7995324Y-17467137D01*
X7995324Y-17467137D02*
X7995324Y-17429042D01*
X7995324Y-17429042D02*
X8004848Y-17381422D01*
X8004848Y-17381422D02*
X8014372Y-17352851D01*
X8014372Y-17352851D02*
X8023895Y-17333803D01*
X8023895Y-17333803D02*
X8042943Y-17305232D01*
X8042943Y-17305232D02*
X8052467Y-17295708D01*
X8223895Y-17324280D02*
X8128657Y-17324280D01*
X8128657Y-17324280D02*
X8119134Y-17419518D01*
X8119134Y-17419518D02*
X8128657Y-17409994D01*
X8128657Y-17409994D02*
X8147705Y-17400470D01*
X8147705Y-17400470D02*
X8195324Y-17400470D01*
X8195324Y-17400470D02*
X8214372Y-17409994D01*
X8214372Y-17409994D02*
X8223895Y-17419518D01*
X8223895Y-17419518D02*
X8233419Y-17438565D01*
X8233419Y-17438565D02*
X8233419Y-17486184D01*
X8233419Y-17486184D02*
X8223895Y-17505232D01*
X8223895Y-17505232D02*
X8214372Y-17514756D01*
X8214372Y-17514756D02*
X8195324Y-17524280D01*
X8195324Y-17524280D02*
X8147705Y-17524280D01*
X8147705Y-17524280D02*
X8128657Y-17514756D01*
X8128657Y-17514756D02*
X8119134Y-17505232D01*
X8471515Y-17524280D02*
X8471515Y-17324280D01*
X8557229Y-17524280D02*
X8557229Y-17419518D01*
X8557229Y-17419518D02*
X8547705Y-17400470D01*
X8547705Y-17400470D02*
X8528658Y-17390946D01*
X8528658Y-17390946D02*
X8500086Y-17390946D01*
X8500086Y-17390946D02*
X8481038Y-17400470D01*
X8481038Y-17400470D02*
X8471515Y-17409994D01*
X8681038Y-17524280D02*
X8661991Y-17514756D01*
X8661991Y-17514756D02*
X8652467Y-17505232D01*
X8652467Y-17505232D02*
X8642943Y-17486184D01*
X8642943Y-17486184D02*
X8642943Y-17429042D01*
X8642943Y-17429042D02*
X8652467Y-17409994D01*
X8652467Y-17409994D02*
X8661991Y-17400470D01*
X8661991Y-17400470D02*
X8681038Y-17390946D01*
X8681038Y-17390946D02*
X8709610Y-17390946D01*
X8709610Y-17390946D02*
X8728658Y-17400470D01*
X8728658Y-17400470D02*
X8738181Y-17409994D01*
X8738181Y-17409994D02*
X8747705Y-17429042D01*
X8747705Y-17429042D02*
X8747705Y-17486184D01*
X8747705Y-17486184D02*
X8738181Y-17505232D01*
X8738181Y-17505232D02*
X8728658Y-17514756D01*
X8728658Y-17514756D02*
X8709610Y-17524280D01*
X8709610Y-17524280D02*
X8681038Y-17524280D01*
X8861991Y-17524280D02*
X8842943Y-17514756D01*
X8842943Y-17514756D02*
X8833419Y-17495708D01*
X8833419Y-17495708D02*
X8833419Y-17324280D01*
X9014372Y-17514756D02*
X8995324Y-17524280D01*
X8995324Y-17524280D02*
X8957229Y-17524280D01*
X8957229Y-17524280D02*
X8938181Y-17514756D01*
X8938181Y-17514756D02*
X8928658Y-17495708D01*
X8928658Y-17495708D02*
X8928658Y-17419518D01*
X8928658Y-17419518D02*
X8938181Y-17400470D01*
X8938181Y-17400470D02*
X8957229Y-17390946D01*
X8957229Y-17390946D02*
X8995324Y-17390946D01*
X8995324Y-17390946D02*
X9014372Y-17400470D01*
X9014372Y-17400470D02*
X9023896Y-17419518D01*
X9023896Y-17419518D02*
X9023896Y-17438565D01*
X9023896Y-17438565D02*
X8928658Y-17457613D01*
X9100086Y-17514756D02*
X9119134Y-17524280D01*
X9119134Y-17524280D02*
X9157229Y-17524280D01*
X9157229Y-17524280D02*
X9176277Y-17514756D01*
X9176277Y-17514756D02*
X9185800Y-17495708D01*
X9185800Y-17495708D02*
X9185800Y-17486184D01*
X9185800Y-17486184D02*
X9176277Y-17467137D01*
X9176277Y-17467137D02*
X9157229Y-17457613D01*
X9157229Y-17457613D02*
X9128658Y-17457613D01*
X9128658Y-17457613D02*
X9109610Y-17448089D01*
X9109610Y-17448089D02*
X9100086Y-17429042D01*
X9100086Y-17429042D02*
X9100086Y-17419518D01*
X9100086Y-17419518D02*
X9109610Y-17400470D01*
X9109610Y-17400470D02*
X9128658Y-17390946D01*
X9128658Y-17390946D02*
X9157229Y-17390946D01*
X9157229Y-17390946D02*
X9176277Y-17400470D01*
X9423896Y-17448089D02*
X9576277Y-17448089D01*
X9500086Y-17524280D02*
X9500086Y-17371899D01*
X9852467Y-17409994D02*
X9833420Y-17400470D01*
X9833420Y-17400470D02*
X9823896Y-17390946D01*
X9823896Y-17390946D02*
X9814372Y-17371899D01*
X9814372Y-17371899D02*
X9814372Y-17362375D01*
X9814372Y-17362375D02*
X9823896Y-17343327D01*
X9823896Y-17343327D02*
X9833420Y-17333803D01*
X9833420Y-17333803D02*
X9852467Y-17324280D01*
X9852467Y-17324280D02*
X9890562Y-17324280D01*
X9890562Y-17324280D02*
X9909610Y-17333803D01*
X9909610Y-17333803D02*
X9919134Y-17343327D01*
X9919134Y-17343327D02*
X9928658Y-17362375D01*
X9928658Y-17362375D02*
X9928658Y-17371899D01*
X9928658Y-17371899D02*
X9919134Y-17390946D01*
X9919134Y-17390946D02*
X9909610Y-17400470D01*
X9909610Y-17400470D02*
X9890562Y-17409994D01*
X9890562Y-17409994D02*
X9852467Y-17409994D01*
X9852467Y-17409994D02*
X9833420Y-17419518D01*
X9833420Y-17419518D02*
X9823896Y-17429042D01*
X9823896Y-17429042D02*
X9814372Y-17448089D01*
X9814372Y-17448089D02*
X9814372Y-17486184D01*
X9814372Y-17486184D02*
X9823896Y-17505232D01*
X9823896Y-17505232D02*
X9833420Y-17514756D01*
X9833420Y-17514756D02*
X9852467Y-17524280D01*
X9852467Y-17524280D02*
X9890562Y-17524280D01*
X9890562Y-17524280D02*
X9909610Y-17514756D01*
X9909610Y-17514756D02*
X9919134Y-17505232D01*
X9919134Y-17505232D02*
X9928658Y-17486184D01*
X9928658Y-17486184D02*
X9928658Y-17448089D01*
X9928658Y-17448089D02*
X9919134Y-17429042D01*
X9919134Y-17429042D02*
X9909610Y-17419518D01*
X9909610Y-17419518D02*
X9890562Y-17409994D01*
X10157229Y-17514756D02*
X10176277Y-17524280D01*
X10176277Y-17524280D02*
X10214372Y-17524280D01*
X10214372Y-17524280D02*
X10233420Y-17514756D01*
X10233420Y-17514756D02*
X10242943Y-17495708D01*
X10242943Y-17495708D02*
X10242943Y-17486184D01*
X10242943Y-17486184D02*
X10233420Y-17467137D01*
X10233420Y-17467137D02*
X10214372Y-17457613D01*
X10214372Y-17457613D02*
X10185801Y-17457613D01*
X10185801Y-17457613D02*
X10166753Y-17448089D01*
X10166753Y-17448089D02*
X10157229Y-17429042D01*
X10157229Y-17429042D02*
X10157229Y-17419518D01*
X10157229Y-17419518D02*
X10166753Y-17400470D01*
X10166753Y-17400470D02*
X10185801Y-17390946D01*
X10185801Y-17390946D02*
X10214372Y-17390946D01*
X10214372Y-17390946D02*
X10233420Y-17400470D01*
X10357229Y-17524280D02*
X10338182Y-17514756D01*
X10338182Y-17514756D02*
X10328658Y-17495708D01*
X10328658Y-17495708D02*
X10328658Y-17324280D01*
X10461991Y-17524280D02*
X10442943Y-17514756D01*
X10442943Y-17514756D02*
X10433420Y-17505232D01*
X10433420Y-17505232D02*
X10423896Y-17486184D01*
X10423896Y-17486184D02*
X10423896Y-17429042D01*
X10423896Y-17429042D02*
X10433420Y-17409994D01*
X10433420Y-17409994D02*
X10442943Y-17400470D01*
X10442943Y-17400470D02*
X10461991Y-17390946D01*
X10461991Y-17390946D02*
X10490563Y-17390946D01*
X10490563Y-17390946D02*
X10509610Y-17400470D01*
X10509610Y-17400470D02*
X10519134Y-17409994D01*
X10519134Y-17409994D02*
X10528658Y-17429042D01*
X10528658Y-17429042D02*
X10528658Y-17486184D01*
X10528658Y-17486184D02*
X10519134Y-17505232D01*
X10519134Y-17505232D02*
X10509610Y-17514756D01*
X10509610Y-17514756D02*
X10490563Y-17524280D01*
X10490563Y-17524280D02*
X10461991Y-17524280D01*
X10585801Y-17390946D02*
X10661991Y-17390946D01*
X10614372Y-17324280D02*
X10614372Y-17495708D01*
X10614372Y-17495708D02*
X10623896Y-17514756D01*
X10623896Y-17514756D02*
X10642943Y-17524280D01*
X10642943Y-17524280D02*
X10661991Y-17524280D01*
X10719134Y-17514756D02*
X10738182Y-17524280D01*
X10738182Y-17524280D02*
X10776277Y-17524280D01*
X10776277Y-17524280D02*
X10795324Y-17514756D01*
X10795324Y-17514756D02*
X10804848Y-17495708D01*
X10804848Y-17495708D02*
X10804848Y-17486184D01*
X10804848Y-17486184D02*
X10795324Y-17467137D01*
X10795324Y-17467137D02*
X10776277Y-17457613D01*
X10776277Y-17457613D02*
X10747705Y-17457613D01*
X10747705Y-17457613D02*
X10728658Y-17448089D01*
X10728658Y-17448089D02*
X10719134Y-17429042D01*
X10719134Y-17429042D02*
X10719134Y-17419518D01*
X10719134Y-17419518D02*
X10728658Y-17400470D01*
X10728658Y-17400470D02*
X10747705Y-17390946D01*
X10747705Y-17390946D02*
X10776277Y-17390946D01*
X10776277Y-17390946D02*
X10795324Y-17400470D01*
X10871515Y-17600470D02*
X10881039Y-17590946D01*
X10881039Y-17590946D02*
X10900086Y-17562375D01*
X10900086Y-17562375D02*
X10909610Y-17543327D01*
X10909610Y-17543327D02*
X10919134Y-17514756D01*
X10919134Y-17514756D02*
X10928658Y-17467137D01*
X10928658Y-17467137D02*
X10928658Y-17429042D01*
X10928658Y-17429042D02*
X10919134Y-17381422D01*
X10919134Y-17381422D02*
X10909610Y-17352851D01*
X10909610Y-17352851D02*
X10900086Y-17333803D01*
X10900086Y-17333803D02*
X10881039Y-17305232D01*
X10881039Y-17305232D02*
X10871515Y-17295708D01*
D10*
X4455438Y-17749829D02*
X4455438Y-17643762D01*
X4349371Y-17643762D01*
X4349371Y-17749829D01*
X4455438Y-17749829D01*
D12*
X4842943Y-17788280D02*
X4728657Y-17788280D01*
X4785800Y-17788280D02*
X4785800Y-17588280D01*
X4785800Y-17588280D02*
X4766752Y-17616851D01*
X4766752Y-17616851D02*
X4747705Y-17635899D01*
X4747705Y-17635899D02*
X4728657Y-17645422D01*
X4928657Y-17769232D02*
X4938181Y-17778756D01*
X4938181Y-17778756D02*
X4928657Y-17788280D01*
X4928657Y-17788280D02*
X4919133Y-17778756D01*
X4919133Y-17778756D02*
X4928657Y-17769232D01*
X4928657Y-17769232D02*
X4928657Y-17788280D01*
X5119133Y-17588280D02*
X5023895Y-17588280D01*
X5023895Y-17588280D02*
X5014371Y-17683518D01*
X5014371Y-17683518D02*
X5023895Y-17673994D01*
X5023895Y-17673994D02*
X5042943Y-17664470D01*
X5042943Y-17664470D02*
X5090562Y-17664470D01*
X5090562Y-17664470D02*
X5109610Y-17673994D01*
X5109610Y-17673994D02*
X5119133Y-17683518D01*
X5119133Y-17683518D02*
X5128657Y-17702565D01*
X5128657Y-17702565D02*
X5128657Y-17750184D01*
X5128657Y-17750184D02*
X5119133Y-17769232D01*
X5119133Y-17769232D02*
X5109610Y-17778756D01*
X5109610Y-17778756D02*
X5090562Y-17788280D01*
X5090562Y-17788280D02*
X5042943Y-17788280D01*
X5042943Y-17788280D02*
X5023895Y-17778756D01*
X5023895Y-17778756D02*
X5014371Y-17769232D01*
X5252467Y-17588280D02*
X5271514Y-17588280D01*
X5271514Y-17588280D02*
X5290562Y-17597803D01*
X5290562Y-17597803D02*
X5300086Y-17607327D01*
X5300086Y-17607327D02*
X5309610Y-17626375D01*
X5309610Y-17626375D02*
X5319133Y-17664470D01*
X5319133Y-17664470D02*
X5319133Y-17712089D01*
X5319133Y-17712089D02*
X5309610Y-17750184D01*
X5309610Y-17750184D02*
X5300086Y-17769232D01*
X5300086Y-17769232D02*
X5290562Y-17778756D01*
X5290562Y-17778756D02*
X5271514Y-17788280D01*
X5271514Y-17788280D02*
X5252467Y-17788280D01*
X5252467Y-17788280D02*
X5233419Y-17778756D01*
X5233419Y-17778756D02*
X5223895Y-17769232D01*
X5223895Y-17769232D02*
X5214371Y-17750184D01*
X5214371Y-17750184D02*
X5204848Y-17712089D01*
X5204848Y-17712089D02*
X5204848Y-17664470D01*
X5204848Y-17664470D02*
X5214371Y-17626375D01*
X5214371Y-17626375D02*
X5223895Y-17607327D01*
X5223895Y-17607327D02*
X5233419Y-17597803D01*
X5233419Y-17597803D02*
X5252467Y-17588280D01*
X5442943Y-17588280D02*
X5461991Y-17588280D01*
X5461991Y-17588280D02*
X5481038Y-17597803D01*
X5481038Y-17597803D02*
X5490562Y-17607327D01*
X5490562Y-17607327D02*
X5500086Y-17626375D01*
X5500086Y-17626375D02*
X5509610Y-17664470D01*
X5509610Y-17664470D02*
X5509610Y-17712089D01*
X5509610Y-17712089D02*
X5500086Y-17750184D01*
X5500086Y-17750184D02*
X5490562Y-17769232D01*
X5490562Y-17769232D02*
X5481038Y-17778756D01*
X5481038Y-17778756D02*
X5461991Y-17788280D01*
X5461991Y-17788280D02*
X5442943Y-17788280D01*
X5442943Y-17788280D02*
X5423895Y-17778756D01*
X5423895Y-17778756D02*
X5414371Y-17769232D01*
X5414371Y-17769232D02*
X5404848Y-17750184D01*
X5404848Y-17750184D02*
X5395324Y-17712089D01*
X5395324Y-17712089D02*
X5395324Y-17664470D01*
X5395324Y-17664470D02*
X5404848Y-17626375D01*
X5404848Y-17626375D02*
X5414371Y-17607327D01*
X5414371Y-17607327D02*
X5423895Y-17597803D01*
X5423895Y-17597803D02*
X5442943Y-17588280D01*
X5595324Y-17788280D02*
X5595324Y-17654946D01*
X5595324Y-17673994D02*
X5604848Y-17664470D01*
X5604848Y-17664470D02*
X5623895Y-17654946D01*
X5623895Y-17654946D02*
X5652467Y-17654946D01*
X5652467Y-17654946D02*
X5671514Y-17664470D01*
X5671514Y-17664470D02*
X5681038Y-17683518D01*
X5681038Y-17683518D02*
X5681038Y-17788280D01*
X5681038Y-17683518D02*
X5690562Y-17664470D01*
X5690562Y-17664470D02*
X5709609Y-17654946D01*
X5709609Y-17654946D02*
X5738181Y-17654946D01*
X5738181Y-17654946D02*
X5757229Y-17664470D01*
X5757229Y-17664470D02*
X5766752Y-17683518D01*
X5766752Y-17683518D02*
X5766752Y-17788280D01*
X5861990Y-17788280D02*
X5861990Y-17654946D01*
X5861990Y-17673994D02*
X5871514Y-17664470D01*
X5871514Y-17664470D02*
X5890562Y-17654946D01*
X5890562Y-17654946D02*
X5919133Y-17654946D01*
X5919133Y-17654946D02*
X5938181Y-17664470D01*
X5938181Y-17664470D02*
X5947705Y-17683518D01*
X5947705Y-17683518D02*
X5947705Y-17788280D01*
X5947705Y-17683518D02*
X5957229Y-17664470D01*
X5957229Y-17664470D02*
X5976276Y-17654946D01*
X5976276Y-17654946D02*
X6004848Y-17654946D01*
X6004848Y-17654946D02*
X6023895Y-17664470D01*
X6023895Y-17664470D02*
X6033419Y-17683518D01*
X6033419Y-17683518D02*
X6033419Y-17788280D01*
X6423895Y-17578756D02*
X6252467Y-17835899D01*
X6681038Y-17588280D02*
X6700086Y-17588280D01*
X6700086Y-17588280D02*
X6719133Y-17597803D01*
X6719133Y-17597803D02*
X6728657Y-17607327D01*
X6728657Y-17607327D02*
X6738181Y-17626375D01*
X6738181Y-17626375D02*
X6747705Y-17664470D01*
X6747705Y-17664470D02*
X6747705Y-17712089D01*
X6747705Y-17712089D02*
X6738181Y-17750184D01*
X6738181Y-17750184D02*
X6728657Y-17769232D01*
X6728657Y-17769232D02*
X6719133Y-17778756D01*
X6719133Y-17778756D02*
X6700086Y-17788280D01*
X6700086Y-17788280D02*
X6681038Y-17788280D01*
X6681038Y-17788280D02*
X6661991Y-17778756D01*
X6661991Y-17778756D02*
X6652467Y-17769232D01*
X6652467Y-17769232D02*
X6642943Y-17750184D01*
X6642943Y-17750184D02*
X6633419Y-17712089D01*
X6633419Y-17712089D02*
X6633419Y-17664470D01*
X6633419Y-17664470D02*
X6642943Y-17626375D01*
X6642943Y-17626375D02*
X6652467Y-17607327D01*
X6652467Y-17607327D02*
X6661991Y-17597803D01*
X6661991Y-17597803D02*
X6681038Y-17588280D01*
X6833419Y-17769232D02*
X6842943Y-17778756D01*
X6842943Y-17778756D02*
X6833419Y-17788280D01*
X6833419Y-17788280D02*
X6823895Y-17778756D01*
X6823895Y-17778756D02*
X6833419Y-17769232D01*
X6833419Y-17769232D02*
X6833419Y-17788280D01*
X6966752Y-17588280D02*
X6985800Y-17588280D01*
X6985800Y-17588280D02*
X7004848Y-17597803D01*
X7004848Y-17597803D02*
X7014372Y-17607327D01*
X7014372Y-17607327D02*
X7023895Y-17626375D01*
X7023895Y-17626375D02*
X7033419Y-17664470D01*
X7033419Y-17664470D02*
X7033419Y-17712089D01*
X7033419Y-17712089D02*
X7023895Y-17750184D01*
X7023895Y-17750184D02*
X7014372Y-17769232D01*
X7014372Y-17769232D02*
X7004848Y-17778756D01*
X7004848Y-17778756D02*
X6985800Y-17788280D01*
X6985800Y-17788280D02*
X6966752Y-17788280D01*
X6966752Y-17788280D02*
X6947705Y-17778756D01*
X6947705Y-17778756D02*
X6938181Y-17769232D01*
X6938181Y-17769232D02*
X6928657Y-17750184D01*
X6928657Y-17750184D02*
X6919133Y-17712089D01*
X6919133Y-17712089D02*
X6919133Y-17664470D01*
X6919133Y-17664470D02*
X6928657Y-17626375D01*
X6928657Y-17626375D02*
X6938181Y-17607327D01*
X6938181Y-17607327D02*
X6947705Y-17597803D01*
X6947705Y-17597803D02*
X6966752Y-17588280D01*
X7214372Y-17588280D02*
X7119133Y-17588280D01*
X7119133Y-17588280D02*
X7109610Y-17683518D01*
X7109610Y-17683518D02*
X7119133Y-17673994D01*
X7119133Y-17673994D02*
X7138181Y-17664470D01*
X7138181Y-17664470D02*
X7185800Y-17664470D01*
X7185800Y-17664470D02*
X7204848Y-17673994D01*
X7204848Y-17673994D02*
X7214372Y-17683518D01*
X7214372Y-17683518D02*
X7223895Y-17702565D01*
X7223895Y-17702565D02*
X7223895Y-17750184D01*
X7223895Y-17750184D02*
X7214372Y-17769232D01*
X7214372Y-17769232D02*
X7204848Y-17778756D01*
X7204848Y-17778756D02*
X7185800Y-17788280D01*
X7185800Y-17788280D02*
X7138181Y-17788280D01*
X7138181Y-17788280D02*
X7119133Y-17778756D01*
X7119133Y-17778756D02*
X7109610Y-17769232D01*
X7319133Y-17788280D02*
X7357229Y-17788280D01*
X7357229Y-17788280D02*
X7376276Y-17778756D01*
X7376276Y-17778756D02*
X7385800Y-17769232D01*
X7385800Y-17769232D02*
X7404848Y-17740661D01*
X7404848Y-17740661D02*
X7414372Y-17702565D01*
X7414372Y-17702565D02*
X7414372Y-17626375D01*
X7414372Y-17626375D02*
X7404848Y-17607327D01*
X7404848Y-17607327D02*
X7395324Y-17597803D01*
X7395324Y-17597803D02*
X7376276Y-17588280D01*
X7376276Y-17588280D02*
X7338181Y-17588280D01*
X7338181Y-17588280D02*
X7319133Y-17597803D01*
X7319133Y-17597803D02*
X7309610Y-17607327D01*
X7309610Y-17607327D02*
X7300086Y-17626375D01*
X7300086Y-17626375D02*
X7300086Y-17673994D01*
X7300086Y-17673994D02*
X7309610Y-17693042D01*
X7309610Y-17693042D02*
X7319133Y-17702565D01*
X7319133Y-17702565D02*
X7338181Y-17712089D01*
X7338181Y-17712089D02*
X7376276Y-17712089D01*
X7376276Y-17712089D02*
X7395324Y-17702565D01*
X7395324Y-17702565D02*
X7404848Y-17693042D01*
X7404848Y-17693042D02*
X7414372Y-17673994D01*
X7604848Y-17788280D02*
X7490562Y-17788280D01*
X7547705Y-17788280D02*
X7547705Y-17588280D01*
X7547705Y-17588280D02*
X7528657Y-17616851D01*
X7528657Y-17616851D02*
X7509610Y-17635899D01*
X7509610Y-17635899D02*
X7490562Y-17645422D01*
X7681038Y-17588280D02*
X7681038Y-17626375D01*
X7757229Y-17588280D02*
X7757229Y-17626375D01*
X8052467Y-17864470D02*
X8042943Y-17854946D01*
X8042943Y-17854946D02*
X8023895Y-17826375D01*
X8023895Y-17826375D02*
X8014372Y-17807327D01*
X8014372Y-17807327D02*
X8004848Y-17778756D01*
X8004848Y-17778756D02*
X7995324Y-17731137D01*
X7995324Y-17731137D02*
X7995324Y-17693042D01*
X7995324Y-17693042D02*
X8004848Y-17645422D01*
X8004848Y-17645422D02*
X8014372Y-17616851D01*
X8014372Y-17616851D02*
X8023895Y-17597803D01*
X8023895Y-17597803D02*
X8042943Y-17569232D01*
X8042943Y-17569232D02*
X8052467Y-17559708D01*
X8166753Y-17588280D02*
X8185800Y-17588280D01*
X8185800Y-17588280D02*
X8204848Y-17597803D01*
X8204848Y-17597803D02*
X8214372Y-17607327D01*
X8214372Y-17607327D02*
X8223895Y-17626375D01*
X8223895Y-17626375D02*
X8233419Y-17664470D01*
X8233419Y-17664470D02*
X8233419Y-17712089D01*
X8233419Y-17712089D02*
X8223895Y-17750184D01*
X8223895Y-17750184D02*
X8214372Y-17769232D01*
X8214372Y-17769232D02*
X8204848Y-17778756D01*
X8204848Y-17778756D02*
X8185800Y-17788280D01*
X8185800Y-17788280D02*
X8166753Y-17788280D01*
X8166753Y-17788280D02*
X8147705Y-17778756D01*
X8147705Y-17778756D02*
X8138181Y-17769232D01*
X8138181Y-17769232D02*
X8128657Y-17750184D01*
X8128657Y-17750184D02*
X8119134Y-17712089D01*
X8119134Y-17712089D02*
X8119134Y-17664470D01*
X8119134Y-17664470D02*
X8128657Y-17626375D01*
X8128657Y-17626375D02*
X8138181Y-17607327D01*
X8138181Y-17607327D02*
X8147705Y-17597803D01*
X8147705Y-17597803D02*
X8166753Y-17588280D01*
X8471515Y-17788280D02*
X8471515Y-17588280D01*
X8557229Y-17788280D02*
X8557229Y-17683518D01*
X8557229Y-17683518D02*
X8547705Y-17664470D01*
X8547705Y-17664470D02*
X8528658Y-17654946D01*
X8528658Y-17654946D02*
X8500086Y-17654946D01*
X8500086Y-17654946D02*
X8481038Y-17664470D01*
X8481038Y-17664470D02*
X8471515Y-17673994D01*
X8681038Y-17788280D02*
X8661991Y-17778756D01*
X8661991Y-17778756D02*
X8652467Y-17769232D01*
X8652467Y-17769232D02*
X8642943Y-17750184D01*
X8642943Y-17750184D02*
X8642943Y-17693042D01*
X8642943Y-17693042D02*
X8652467Y-17673994D01*
X8652467Y-17673994D02*
X8661991Y-17664470D01*
X8661991Y-17664470D02*
X8681038Y-17654946D01*
X8681038Y-17654946D02*
X8709610Y-17654946D01*
X8709610Y-17654946D02*
X8728658Y-17664470D01*
X8728658Y-17664470D02*
X8738181Y-17673994D01*
X8738181Y-17673994D02*
X8747705Y-17693042D01*
X8747705Y-17693042D02*
X8747705Y-17750184D01*
X8747705Y-17750184D02*
X8738181Y-17769232D01*
X8738181Y-17769232D02*
X8728658Y-17778756D01*
X8728658Y-17778756D02*
X8709610Y-17788280D01*
X8709610Y-17788280D02*
X8681038Y-17788280D01*
X8861991Y-17788280D02*
X8842943Y-17778756D01*
X8842943Y-17778756D02*
X8833419Y-17759708D01*
X8833419Y-17759708D02*
X8833419Y-17588280D01*
X9014372Y-17778756D02*
X8995324Y-17788280D01*
X8995324Y-17788280D02*
X8957229Y-17788280D01*
X8957229Y-17788280D02*
X8938181Y-17778756D01*
X8938181Y-17778756D02*
X8928658Y-17759708D01*
X8928658Y-17759708D02*
X8928658Y-17683518D01*
X8928658Y-17683518D02*
X8938181Y-17664470D01*
X8938181Y-17664470D02*
X8957229Y-17654946D01*
X8957229Y-17654946D02*
X8995324Y-17654946D01*
X8995324Y-17654946D02*
X9014372Y-17664470D01*
X9014372Y-17664470D02*
X9023896Y-17683518D01*
X9023896Y-17683518D02*
X9023896Y-17702565D01*
X9023896Y-17702565D02*
X8928658Y-17721613D01*
X9100086Y-17778756D02*
X9119134Y-17788280D01*
X9119134Y-17788280D02*
X9157229Y-17788280D01*
X9157229Y-17788280D02*
X9176277Y-17778756D01*
X9176277Y-17778756D02*
X9185800Y-17759708D01*
X9185800Y-17759708D02*
X9185800Y-17750184D01*
X9185800Y-17750184D02*
X9176277Y-17731137D01*
X9176277Y-17731137D02*
X9157229Y-17721613D01*
X9157229Y-17721613D02*
X9128658Y-17721613D01*
X9128658Y-17721613D02*
X9109610Y-17712089D01*
X9109610Y-17712089D02*
X9100086Y-17693042D01*
X9100086Y-17693042D02*
X9100086Y-17683518D01*
X9100086Y-17683518D02*
X9109610Y-17664470D01*
X9109610Y-17664470D02*
X9128658Y-17654946D01*
X9128658Y-17654946D02*
X9157229Y-17654946D01*
X9157229Y-17654946D02*
X9176277Y-17664470D01*
X9423896Y-17712089D02*
X9576277Y-17712089D01*
X9500086Y-17788280D02*
X9500086Y-17635899D01*
X9814372Y-17607327D02*
X9823896Y-17597803D01*
X9823896Y-17597803D02*
X9842943Y-17588280D01*
X9842943Y-17588280D02*
X9890562Y-17588280D01*
X9890562Y-17588280D02*
X9909610Y-17597803D01*
X9909610Y-17597803D02*
X9919134Y-17607327D01*
X9919134Y-17607327D02*
X9928658Y-17626375D01*
X9928658Y-17626375D02*
X9928658Y-17645422D01*
X9928658Y-17645422D02*
X9919134Y-17673994D01*
X9919134Y-17673994D02*
X9804848Y-17788280D01*
X9804848Y-17788280D02*
X9928658Y-17788280D01*
X10157229Y-17778756D02*
X10176277Y-17788280D01*
X10176277Y-17788280D02*
X10214372Y-17788280D01*
X10214372Y-17788280D02*
X10233420Y-17778756D01*
X10233420Y-17778756D02*
X10242943Y-17759708D01*
X10242943Y-17759708D02*
X10242943Y-17750184D01*
X10242943Y-17750184D02*
X10233420Y-17731137D01*
X10233420Y-17731137D02*
X10214372Y-17721613D01*
X10214372Y-17721613D02*
X10185801Y-17721613D01*
X10185801Y-17721613D02*
X10166753Y-17712089D01*
X10166753Y-17712089D02*
X10157229Y-17693042D01*
X10157229Y-17693042D02*
X10157229Y-17683518D01*
X10157229Y-17683518D02*
X10166753Y-17664470D01*
X10166753Y-17664470D02*
X10185801Y-17654946D01*
X10185801Y-17654946D02*
X10214372Y-17654946D01*
X10214372Y-17654946D02*
X10233420Y-17664470D01*
X10357229Y-17788280D02*
X10338182Y-17778756D01*
X10338182Y-17778756D02*
X10328658Y-17759708D01*
X10328658Y-17759708D02*
X10328658Y-17588280D01*
X10461991Y-17788280D02*
X10442943Y-17778756D01*
X10442943Y-17778756D02*
X10433420Y-17769232D01*
X10433420Y-17769232D02*
X10423896Y-17750184D01*
X10423896Y-17750184D02*
X10423896Y-17693042D01*
X10423896Y-17693042D02*
X10433420Y-17673994D01*
X10433420Y-17673994D02*
X10442943Y-17664470D01*
X10442943Y-17664470D02*
X10461991Y-17654946D01*
X10461991Y-17654946D02*
X10490563Y-17654946D01*
X10490563Y-17654946D02*
X10509610Y-17664470D01*
X10509610Y-17664470D02*
X10519134Y-17673994D01*
X10519134Y-17673994D02*
X10528658Y-17693042D01*
X10528658Y-17693042D02*
X10528658Y-17750184D01*
X10528658Y-17750184D02*
X10519134Y-17769232D01*
X10519134Y-17769232D02*
X10509610Y-17778756D01*
X10509610Y-17778756D02*
X10490563Y-17788280D01*
X10490563Y-17788280D02*
X10461991Y-17788280D01*
X10585801Y-17654946D02*
X10661991Y-17654946D01*
X10614372Y-17588280D02*
X10614372Y-17759708D01*
X10614372Y-17759708D02*
X10623896Y-17778756D01*
X10623896Y-17778756D02*
X10642943Y-17788280D01*
X10642943Y-17788280D02*
X10661991Y-17788280D01*
X10719134Y-17778756D02*
X10738182Y-17788280D01*
X10738182Y-17788280D02*
X10776277Y-17788280D01*
X10776277Y-17788280D02*
X10795324Y-17778756D01*
X10795324Y-17778756D02*
X10804848Y-17759708D01*
X10804848Y-17759708D02*
X10804848Y-17750184D01*
X10804848Y-17750184D02*
X10795324Y-17731137D01*
X10795324Y-17731137D02*
X10776277Y-17721613D01*
X10776277Y-17721613D02*
X10747705Y-17721613D01*
X10747705Y-17721613D02*
X10728658Y-17712089D01*
X10728658Y-17712089D02*
X10719134Y-17693042D01*
X10719134Y-17693042D02*
X10719134Y-17683518D01*
X10719134Y-17683518D02*
X10728658Y-17664470D01*
X10728658Y-17664470D02*
X10747705Y-17654946D01*
X10747705Y-17654946D02*
X10776277Y-17654946D01*
X10776277Y-17654946D02*
X10795324Y-17664470D01*
X10871515Y-17864470D02*
X10881039Y-17854946D01*
X10881039Y-17854946D02*
X10900086Y-17826375D01*
X10900086Y-17826375D02*
X10909610Y-17807327D01*
X10909610Y-17807327D02*
X10919134Y-17778756D01*
X10919134Y-17778756D02*
X10928658Y-17731137D01*
X10928658Y-17731137D02*
X10928658Y-17693042D01*
X10928658Y-17693042D02*
X10919134Y-17645422D01*
X10919134Y-17645422D02*
X10909610Y-17616851D01*
X10909610Y-17616851D02*
X10900086Y-17597803D01*
X10900086Y-17597803D02*
X10881039Y-17569232D01*
X10881039Y-17569232D02*
X10871515Y-17559708D01*
X4377404Y-18066796D02*
X4477404Y-17966796D01*
X4377404Y-17866796D01*
X4277404Y-17966796D01*
X4377404Y-18066796D01*
X4823895Y-17924946D02*
X4823895Y-18058280D01*
X4776276Y-17848756D02*
X4728657Y-17991613D01*
X4728657Y-17991613D02*
X4852467Y-17991613D01*
X4928657Y-18039232D02*
X4938181Y-18048756D01*
X4938181Y-18048756D02*
X4928657Y-18058280D01*
X4928657Y-18058280D02*
X4919133Y-18048756D01*
X4919133Y-18048756D02*
X4928657Y-18039232D01*
X4928657Y-18039232D02*
X4928657Y-18058280D01*
X5128657Y-18058280D02*
X5014371Y-18058280D01*
X5071514Y-18058280D02*
X5071514Y-17858280D01*
X5071514Y-17858280D02*
X5052467Y-17886851D01*
X5052467Y-17886851D02*
X5033419Y-17905899D01*
X5033419Y-17905899D02*
X5014371Y-17915422D01*
X5252467Y-17858280D02*
X5271514Y-17858280D01*
X5271514Y-17858280D02*
X5290562Y-17867803D01*
X5290562Y-17867803D02*
X5300086Y-17877327D01*
X5300086Y-17877327D02*
X5309610Y-17896375D01*
X5309610Y-17896375D02*
X5319133Y-17934470D01*
X5319133Y-17934470D02*
X5319133Y-17982089D01*
X5319133Y-17982089D02*
X5309610Y-18020184D01*
X5309610Y-18020184D02*
X5300086Y-18039232D01*
X5300086Y-18039232D02*
X5290562Y-18048756D01*
X5290562Y-18048756D02*
X5271514Y-18058280D01*
X5271514Y-18058280D02*
X5252467Y-18058280D01*
X5252467Y-18058280D02*
X5233419Y-18048756D01*
X5233419Y-18048756D02*
X5223895Y-18039232D01*
X5223895Y-18039232D02*
X5214371Y-18020184D01*
X5214371Y-18020184D02*
X5204848Y-17982089D01*
X5204848Y-17982089D02*
X5204848Y-17934470D01*
X5204848Y-17934470D02*
X5214371Y-17896375D01*
X5214371Y-17896375D02*
X5223895Y-17877327D01*
X5223895Y-17877327D02*
X5233419Y-17867803D01*
X5233419Y-17867803D02*
X5252467Y-17858280D01*
X5442943Y-17858280D02*
X5461991Y-17858280D01*
X5461991Y-17858280D02*
X5481038Y-17867803D01*
X5481038Y-17867803D02*
X5490562Y-17877327D01*
X5490562Y-17877327D02*
X5500086Y-17896375D01*
X5500086Y-17896375D02*
X5509610Y-17934470D01*
X5509610Y-17934470D02*
X5509610Y-17982089D01*
X5509610Y-17982089D02*
X5500086Y-18020184D01*
X5500086Y-18020184D02*
X5490562Y-18039232D01*
X5490562Y-18039232D02*
X5481038Y-18048756D01*
X5481038Y-18048756D02*
X5461991Y-18058280D01*
X5461991Y-18058280D02*
X5442943Y-18058280D01*
X5442943Y-18058280D02*
X5423895Y-18048756D01*
X5423895Y-18048756D02*
X5414371Y-18039232D01*
X5414371Y-18039232D02*
X5404848Y-18020184D01*
X5404848Y-18020184D02*
X5395324Y-17982089D01*
X5395324Y-17982089D02*
X5395324Y-17934470D01*
X5395324Y-17934470D02*
X5404848Y-17896375D01*
X5404848Y-17896375D02*
X5414371Y-17877327D01*
X5414371Y-17877327D02*
X5423895Y-17867803D01*
X5423895Y-17867803D02*
X5442943Y-17858280D01*
X5595324Y-18058280D02*
X5595324Y-17924946D01*
X5595324Y-17943994D02*
X5604848Y-17934470D01*
X5604848Y-17934470D02*
X5623895Y-17924946D01*
X5623895Y-17924946D02*
X5652467Y-17924946D01*
X5652467Y-17924946D02*
X5671514Y-17934470D01*
X5671514Y-17934470D02*
X5681038Y-17953518D01*
X5681038Y-17953518D02*
X5681038Y-18058280D01*
X5681038Y-17953518D02*
X5690562Y-17934470D01*
X5690562Y-17934470D02*
X5709609Y-17924946D01*
X5709609Y-17924946D02*
X5738181Y-17924946D01*
X5738181Y-17924946D02*
X5757229Y-17934470D01*
X5757229Y-17934470D02*
X5766752Y-17953518D01*
X5766752Y-17953518D02*
X5766752Y-18058280D01*
X5861990Y-18058280D02*
X5861990Y-17924946D01*
X5861990Y-17943994D02*
X5871514Y-17934470D01*
X5871514Y-17934470D02*
X5890562Y-17924946D01*
X5890562Y-17924946D02*
X5919133Y-17924946D01*
X5919133Y-17924946D02*
X5938181Y-17934470D01*
X5938181Y-17934470D02*
X5947705Y-17953518D01*
X5947705Y-17953518D02*
X5947705Y-18058280D01*
X5947705Y-17953518D02*
X5957229Y-17934470D01*
X5957229Y-17934470D02*
X5976276Y-17924946D01*
X5976276Y-17924946D02*
X6004848Y-17924946D01*
X6004848Y-17924946D02*
X6023895Y-17934470D01*
X6023895Y-17934470D02*
X6033419Y-17953518D01*
X6033419Y-17953518D02*
X6033419Y-18058280D01*
X6423895Y-17848756D02*
X6252467Y-18105899D01*
X6681038Y-17858280D02*
X6700086Y-17858280D01*
X6700086Y-17858280D02*
X6719133Y-17867803D01*
X6719133Y-17867803D02*
X6728657Y-17877327D01*
X6728657Y-17877327D02*
X6738181Y-17896375D01*
X6738181Y-17896375D02*
X6747705Y-17934470D01*
X6747705Y-17934470D02*
X6747705Y-17982089D01*
X6747705Y-17982089D02*
X6738181Y-18020184D01*
X6738181Y-18020184D02*
X6728657Y-18039232D01*
X6728657Y-18039232D02*
X6719133Y-18048756D01*
X6719133Y-18048756D02*
X6700086Y-18058280D01*
X6700086Y-18058280D02*
X6681038Y-18058280D01*
X6681038Y-18058280D02*
X6661991Y-18048756D01*
X6661991Y-18048756D02*
X6652467Y-18039232D01*
X6652467Y-18039232D02*
X6642943Y-18020184D01*
X6642943Y-18020184D02*
X6633419Y-17982089D01*
X6633419Y-17982089D02*
X6633419Y-17934470D01*
X6633419Y-17934470D02*
X6642943Y-17896375D01*
X6642943Y-17896375D02*
X6652467Y-17877327D01*
X6652467Y-17877327D02*
X6661991Y-17867803D01*
X6661991Y-17867803D02*
X6681038Y-17858280D01*
X6833419Y-18039232D02*
X6842943Y-18048756D01*
X6842943Y-18048756D02*
X6833419Y-18058280D01*
X6833419Y-18058280D02*
X6823895Y-18048756D01*
X6823895Y-18048756D02*
X6833419Y-18039232D01*
X6833419Y-18039232D02*
X6833419Y-18058280D01*
X7033419Y-18058280D02*
X6919133Y-18058280D01*
X6976276Y-18058280D02*
X6976276Y-17858280D01*
X6976276Y-17858280D02*
X6957229Y-17886851D01*
X6957229Y-17886851D02*
X6938181Y-17905899D01*
X6938181Y-17905899D02*
X6919133Y-17915422D01*
X7204848Y-17858280D02*
X7166752Y-17858280D01*
X7166752Y-17858280D02*
X7147705Y-17867803D01*
X7147705Y-17867803D02*
X7138181Y-17877327D01*
X7138181Y-17877327D02*
X7119133Y-17905899D01*
X7119133Y-17905899D02*
X7109610Y-17943994D01*
X7109610Y-17943994D02*
X7109610Y-18020184D01*
X7109610Y-18020184D02*
X7119133Y-18039232D01*
X7119133Y-18039232D02*
X7128657Y-18048756D01*
X7128657Y-18048756D02*
X7147705Y-18058280D01*
X7147705Y-18058280D02*
X7185800Y-18058280D01*
X7185800Y-18058280D02*
X7204848Y-18048756D01*
X7204848Y-18048756D02*
X7214372Y-18039232D01*
X7214372Y-18039232D02*
X7223895Y-18020184D01*
X7223895Y-18020184D02*
X7223895Y-17972565D01*
X7223895Y-17972565D02*
X7214372Y-17953518D01*
X7214372Y-17953518D02*
X7204848Y-17943994D01*
X7204848Y-17943994D02*
X7185800Y-17934470D01*
X7185800Y-17934470D02*
X7147705Y-17934470D01*
X7147705Y-17934470D02*
X7128657Y-17943994D01*
X7128657Y-17943994D02*
X7119133Y-17953518D01*
X7119133Y-17953518D02*
X7109610Y-17972565D01*
X7414372Y-18058280D02*
X7300086Y-18058280D01*
X7357229Y-18058280D02*
X7357229Y-17858280D01*
X7357229Y-17858280D02*
X7338181Y-17886851D01*
X7338181Y-17886851D02*
X7319133Y-17905899D01*
X7319133Y-17905899D02*
X7300086Y-17915422D01*
X7585800Y-17924946D02*
X7585800Y-18058280D01*
X7538181Y-17848756D02*
X7490562Y-17991613D01*
X7490562Y-17991613D02*
X7614372Y-17991613D01*
X7681038Y-17858280D02*
X7681038Y-17896375D01*
X7757229Y-17858280D02*
X7757229Y-17896375D01*
X8052467Y-18134470D02*
X8042943Y-18124946D01*
X8042943Y-18124946D02*
X8023895Y-18096375D01*
X8023895Y-18096375D02*
X8014372Y-18077327D01*
X8014372Y-18077327D02*
X8004848Y-18048756D01*
X8004848Y-18048756D02*
X7995324Y-18001137D01*
X7995324Y-18001137D02*
X7995324Y-17963042D01*
X7995324Y-17963042D02*
X8004848Y-17915422D01*
X8004848Y-17915422D02*
X8014372Y-17886851D01*
X8014372Y-17886851D02*
X8023895Y-17867803D01*
X8023895Y-17867803D02*
X8042943Y-17839232D01*
X8042943Y-17839232D02*
X8052467Y-17829708D01*
X8214372Y-17924946D02*
X8214372Y-18058280D01*
X8166753Y-17848756D02*
X8119134Y-17991613D01*
X8119134Y-17991613D02*
X8242943Y-17991613D01*
X8471515Y-18058280D02*
X8471515Y-17858280D01*
X8557229Y-18058280D02*
X8557229Y-17953518D01*
X8557229Y-17953518D02*
X8547705Y-17934470D01*
X8547705Y-17934470D02*
X8528658Y-17924946D01*
X8528658Y-17924946D02*
X8500086Y-17924946D01*
X8500086Y-17924946D02*
X8481038Y-17934470D01*
X8481038Y-17934470D02*
X8471515Y-17943994D01*
X8681038Y-18058280D02*
X8661991Y-18048756D01*
X8661991Y-18048756D02*
X8652467Y-18039232D01*
X8652467Y-18039232D02*
X8642943Y-18020184D01*
X8642943Y-18020184D02*
X8642943Y-17963042D01*
X8642943Y-17963042D02*
X8652467Y-17943994D01*
X8652467Y-17943994D02*
X8661991Y-17934470D01*
X8661991Y-17934470D02*
X8681038Y-17924946D01*
X8681038Y-17924946D02*
X8709610Y-17924946D01*
X8709610Y-17924946D02*
X8728658Y-17934470D01*
X8728658Y-17934470D02*
X8738181Y-17943994D01*
X8738181Y-17943994D02*
X8747705Y-17963042D01*
X8747705Y-17963042D02*
X8747705Y-18020184D01*
X8747705Y-18020184D02*
X8738181Y-18039232D01*
X8738181Y-18039232D02*
X8728658Y-18048756D01*
X8728658Y-18048756D02*
X8709610Y-18058280D01*
X8709610Y-18058280D02*
X8681038Y-18058280D01*
X8861991Y-18058280D02*
X8842943Y-18048756D01*
X8842943Y-18048756D02*
X8833419Y-18029708D01*
X8833419Y-18029708D02*
X8833419Y-17858280D01*
X9014372Y-18048756D02*
X8995324Y-18058280D01*
X8995324Y-18058280D02*
X8957229Y-18058280D01*
X8957229Y-18058280D02*
X8938181Y-18048756D01*
X8938181Y-18048756D02*
X8928658Y-18029708D01*
X8928658Y-18029708D02*
X8928658Y-17953518D01*
X8928658Y-17953518D02*
X8938181Y-17934470D01*
X8938181Y-17934470D02*
X8957229Y-17924946D01*
X8957229Y-17924946D02*
X8995324Y-17924946D01*
X8995324Y-17924946D02*
X9014372Y-17934470D01*
X9014372Y-17934470D02*
X9023896Y-17953518D01*
X9023896Y-17953518D02*
X9023896Y-17972565D01*
X9023896Y-17972565D02*
X8928658Y-17991613D01*
X9100086Y-18048756D02*
X9119134Y-18058280D01*
X9119134Y-18058280D02*
X9157229Y-18058280D01*
X9157229Y-18058280D02*
X9176277Y-18048756D01*
X9176277Y-18048756D02*
X9185800Y-18029708D01*
X9185800Y-18029708D02*
X9185800Y-18020184D01*
X9185800Y-18020184D02*
X9176277Y-18001137D01*
X9176277Y-18001137D02*
X9157229Y-17991613D01*
X9157229Y-17991613D02*
X9128658Y-17991613D01*
X9128658Y-17991613D02*
X9109610Y-17982089D01*
X9109610Y-17982089D02*
X9100086Y-17963042D01*
X9100086Y-17963042D02*
X9100086Y-17953518D01*
X9100086Y-17953518D02*
X9109610Y-17934470D01*
X9109610Y-17934470D02*
X9128658Y-17924946D01*
X9128658Y-17924946D02*
X9157229Y-17924946D01*
X9157229Y-17924946D02*
X9176277Y-17934470D01*
X9252467Y-18134470D02*
X9261991Y-18124946D01*
X9261991Y-18124946D02*
X9281039Y-18096375D01*
X9281039Y-18096375D02*
X9290562Y-18077327D01*
X9290562Y-18077327D02*
X9300086Y-18048756D01*
X9300086Y-18048756D02*
X9309610Y-18001137D01*
X9309610Y-18001137D02*
X9309610Y-17963042D01*
X9309610Y-17963042D02*
X9300086Y-17915422D01*
X9300086Y-17915422D02*
X9290562Y-17886851D01*
X9290562Y-17886851D02*
X9281039Y-17867803D01*
X9281039Y-17867803D02*
X9261991Y-17839232D01*
X9261991Y-17839232D02*
X9252467Y-17829708D01*
M02*
