M48
; DRILL file {KiCad 8.0.6-8.0.6-0~ubuntu24.04.1} date 2024-10-27T13:02:44+0100
; FORMAT={-:-/ absolute / metric / decimal}
; #@! TF.CreationDate,2024-10-27T13:02:44+01:00
; #@! TF.GenerationSoftware,Kicad,Pcbnew,8.0.6-8.0.6-0~ubuntu24.04.1
; #@! TF.FileFunction,NonPlated,1,2,NPTH
FMAT,2
METRIC
; #@! TA.AperFunction,NonPlated,NPTH,ComponentDrill
T1C1.000
; #@! TA.AperFunction,NonPlated,NPTH,ComponentDrill
T2C1.200
; #@! TA.AperFunction,NonPlated,NPTH,ComponentDrill
T3C1.800
; #@! TA.AperFunction,NonPlated,NPTH,ComponentDrill
T4C3.000
; #@! TA.AperFunction,NonPlated,NPTH,ComponentDrill
T5C3.400
%
G90
G05
T1
X58.269Y-47.991
X58.279Y-66.948
X58.279Y-86.003
X68.709Y-47.991
X68.719Y-66.948
X68.719Y-86.003
X77.269Y-48.003
X77.269Y-66.903
X77.269Y-86.003
X77.269Y-105.003
X87.709Y-48.003
X87.709Y-66.903
X87.709Y-86.003
X87.709Y-105.003
X90.751Y-136.054
X95.971Y-145.095
X96.269Y-47.903
X96.269Y-66.948
X96.269Y-86.003
X106.709Y-47.903
X106.709Y-66.948
X106.709Y-86.003
X107.251Y-126.527
X112.471Y-135.568
X115.319Y-64.853
X115.319Y-83.903
X115.319Y-102.952
X115.329Y-45.853
X125.759Y-64.853
X125.759Y-83.903
X125.759Y-102.952
X125.769Y-45.853
X134.369Y-81.403
X134.379Y-62.353
X134.379Y-100.453
X134.379Y-119.502
X134.38Y-43.3
X144.809Y-81.403
X144.819Y-62.353
X144.819Y-100.453
X144.819Y-119.502
X144.82Y-43.3
X153.429Y-59.853
X153.429Y-78.903
X153.429Y-117.003
X153.43Y-40.8
X153.43Y-97.95
X163.869Y-59.853
X163.869Y-78.903
X163.869Y-117.003
X163.87Y-40.8
X163.87Y-97.95
X172.479Y-43.303
X172.479Y-62.352
X172.479Y-81.402
X172.479Y-119.503
X172.48Y-100.45
X182.919Y-43.303
X182.919Y-62.352
X182.919Y-81.402
X182.919Y-119.503
X182.92Y-100.45
X191.529Y-45.852
X191.529Y-64.903
X191.529Y-83.953
X191.529Y-122.053
X191.53Y-103.003
X201.969Y-45.852
X201.969Y-64.903
X201.969Y-83.953
X201.969Y-122.053
X201.97Y-103.003
X210.579Y-47.903
X210.579Y-66.952
X210.579Y-86.003
X210.579Y-105.053
X210.579Y-124.102
X221.019Y-47.903
X221.019Y-66.952
X221.019Y-86.003
X221.019Y-105.053
X221.019Y-124.102
T2
X49.739Y-42.003
X49.739Y-49.003
X51.489Y-42.003
X51.489Y-49.003
T3
X57.989Y-52.191
X57.999Y-71.148
X57.999Y-90.203
X68.989Y-52.191
X68.999Y-71.148
X68.999Y-90.203
X76.989Y-52.203
X76.989Y-71.103
X76.989Y-90.203
X76.989Y-109.203
X86.974Y-137.911
X87.989Y-52.203
X87.989Y-71.103
X87.989Y-90.203
X87.989Y-109.203
X92.474Y-147.438
X95.989Y-52.103
X95.989Y-71.148
X95.989Y-90.203
X103.474Y-128.384
X106.989Y-52.103
X106.989Y-71.148
X106.989Y-90.203
X108.974Y-137.911
X115.039Y-69.053
X115.039Y-88.103
X115.039Y-107.152
X115.049Y-50.053
X126.039Y-69.053
X126.039Y-88.103
X126.039Y-107.152
X126.049Y-50.053
X134.089Y-85.603
X134.099Y-66.553
X134.099Y-104.653
X134.099Y-123.702
X134.1Y-47.5
X145.089Y-85.603
X145.099Y-66.553
X145.099Y-104.653
X145.099Y-123.702
X145.1Y-47.5
X153.149Y-64.053
X153.149Y-83.103
X153.149Y-121.203
X153.15Y-45.0
X153.15Y-102.15
X164.149Y-64.053
X164.149Y-83.103
X164.149Y-121.203
X164.15Y-45.0
X164.15Y-102.15
X172.199Y-47.503
X172.199Y-66.552
X172.199Y-85.602
X172.199Y-123.703
X172.2Y-104.65
X183.199Y-47.503
X183.199Y-66.552
X183.199Y-85.602
X183.199Y-123.703
X183.2Y-104.65
X191.249Y-50.052
X191.249Y-69.103
X191.249Y-88.153
X191.249Y-126.253
X191.25Y-107.203
X202.249Y-50.052
X202.249Y-69.103
X202.249Y-88.153
X202.249Y-126.253
X202.25Y-107.203
X210.299Y-52.103
X210.299Y-71.152
X210.299Y-90.203
X210.299Y-109.253
X210.299Y-128.302
X221.299Y-52.103
X221.299Y-71.152
X221.299Y-90.203
X221.299Y-109.253
X221.299Y-128.302
T4
X58.489Y-55.891
X58.499Y-74.848
X58.499Y-93.903
X63.489Y-58.091
X63.499Y-77.048
X63.499Y-96.103
X68.489Y-55.891
X68.499Y-74.848
X68.499Y-93.903
X77.489Y-55.903
X77.489Y-74.803
X77.489Y-93.903
X77.489Y-112.903
X82.489Y-58.103
X82.489Y-77.003
X82.489Y-96.103
X82.489Y-115.103
X84.019Y-140.194
X84.614Y-145.624
X87.489Y-55.903
X87.489Y-74.803
X87.489Y-93.903
X87.489Y-112.903
X89.019Y-148.855
X96.489Y-55.803
X96.489Y-74.848
X96.489Y-93.903
X100.519Y-130.667
X101.114Y-136.098
X101.489Y-58.003
X101.489Y-77.048
X101.489Y-96.103
X105.519Y-139.328
X106.489Y-55.803
X106.489Y-74.848
X106.489Y-93.903
X115.539Y-72.753
X115.539Y-91.803
X115.539Y-110.852
X115.549Y-53.753
X120.539Y-74.953
X120.539Y-94.003
X120.539Y-113.052
X120.549Y-55.953
X125.539Y-72.753
X125.539Y-91.803
X125.539Y-110.852
X125.549Y-53.753
X134.589Y-89.303
X134.599Y-70.253
X134.599Y-108.353
X134.599Y-127.402
X134.6Y-51.2
X139.589Y-91.503
X139.599Y-72.453
X139.599Y-110.553
X139.599Y-129.602
X139.6Y-53.4
X144.589Y-89.303
X144.599Y-70.253
X144.599Y-108.353
X144.599Y-127.402
X144.6Y-51.2
X153.649Y-67.753
X153.649Y-86.803
X153.649Y-124.903
X153.65Y-48.7
X153.65Y-105.85
X158.649Y-69.953
X158.649Y-89.003
X158.649Y-127.103
X158.65Y-50.9
X158.65Y-108.05
X163.649Y-67.753
X163.649Y-86.803
X163.649Y-124.903
X163.65Y-48.7
X163.65Y-105.85
X172.699Y-51.203
X172.699Y-70.252
X172.699Y-89.302
X172.699Y-127.403
X172.7Y-108.35
X177.699Y-53.403
X177.699Y-72.452
X177.699Y-91.502
X177.699Y-129.603
X177.7Y-110.55
X182.699Y-51.203
X182.699Y-70.252
X182.699Y-89.302
X182.699Y-127.403
X182.7Y-108.35
X191.749Y-53.752
X191.749Y-72.803
X191.749Y-91.853
X191.749Y-129.953
X191.75Y-110.903
X196.749Y-55.952
X196.749Y-75.003
X196.749Y-94.053
X196.749Y-132.153
X196.75Y-113.103
X201.749Y-53.752
X201.749Y-72.803
X201.749Y-91.853
X201.749Y-129.953
X201.75Y-110.903
X210.799Y-55.803
X210.799Y-74.852
X210.799Y-93.903
X210.799Y-112.953
X210.799Y-132.002
X215.799Y-58.003
X215.799Y-77.052
X215.799Y-96.103
X215.799Y-115.153
X215.799Y-134.202
X220.799Y-55.803
X220.799Y-74.852
X220.799Y-93.903
X220.799Y-112.953
X220.799Y-132.002
T5
X63.489Y-52.191
X63.499Y-71.148
X63.499Y-90.203
X82.489Y-52.203
X82.489Y-71.103
X82.489Y-90.203
X82.489Y-109.203
X89.724Y-142.674
X101.489Y-52.103
X101.489Y-71.148
X101.489Y-90.203
X106.224Y-133.148
X120.539Y-69.053
X120.539Y-88.103
X120.539Y-107.152
X120.549Y-50.053
X139.589Y-85.603
X139.599Y-66.553
X139.599Y-104.653
X139.599Y-123.702
X139.6Y-47.5
X158.649Y-64.053
X158.649Y-83.103
X158.649Y-121.203
X158.65Y-45.0
X158.65Y-102.15
X177.699Y-47.503
X177.699Y-66.552
X177.699Y-85.602
X177.699Y-123.703
X177.7Y-104.65
X196.749Y-50.052
X196.749Y-69.103
X196.749Y-88.153
X196.749Y-126.253
X196.75Y-107.203
X215.799Y-52.103
X215.799Y-71.152
X215.799Y-90.203
X215.799Y-109.253
X215.799Y-128.302
M30
