G04 #@! TF.GenerationSoftware,KiCad,Pcbnew,8.0.6-8.0.6-0~ubuntu24.04.1*
G04 #@! TF.CreationDate,2024-10-27T13:02:53+01:00*
G04 #@! TF.ProjectId,NomadKeyboard,4e6f6d61-644b-4657-9962-6f6172642e6b,rev?*
G04 #@! TF.SameCoordinates,Original*
G04 #@! TF.FileFunction,Soldermask,Bot*
G04 #@! TF.FilePolarity,Negative*
%FSLAX46Y46*%
G04 Gerber Fmt 4.6, Leading zero omitted, Abs format (unit mm)*
G04 Created by KiCad (PCBNEW 8.0.6-8.0.6-0~ubuntu24.04.1) date 2024-10-27 13:02:53*
%MOMM*%
%LPD*%
G01*
G04 APERTURE LIST*
G04 Aperture macros list*
%AMRotRect*
0 Rectangle, with rotation*
0 The origin of the aperture is its center*
0 $1 length*
0 $2 width*
0 $3 Rotation angle, in degrees counterclockwise*
0 Add horizontal line*
21,1,$1,$2,0,0,$3*%
G04 Aperture macros list end*
%ADD10R,2.000000X2.000000*%
%ADD11C,2.000000*%
%ADD12R,3.200000X2.000000*%
%ADD13C,1.200000*%
%ADD14O,1.700000X2.500000*%
%ADD15R,0.950000X1.300000*%
%ADD16RotRect,1.300000X0.950000X210.000000*%
%ADD17C,1.800000*%
%ADD18C,1.000000*%
%ADD19C,3.000000*%
%ADD20C,3.400000*%
%ADD21R,1.700000X1.000000*%
%ADD22R,1.600000X2.200000*%
%ADD23RotRect,1.700000X1.000000X120.000000*%
%ADD24RotRect,1.600000X2.200000X120.000000*%
%ADD25C,4.700000*%
%ADD26R,1.524000X1.524000*%
%ADD27C,1.524000*%
%ADD28C,0.550000*%
G04 APERTURE END LIST*
D10*
X48939120Y-112602640D03*
D11*
X48939120Y-117602640D03*
X48939120Y-115102640D03*
D12*
X56439120Y-109502640D03*
X56439120Y-120702640D03*
D11*
X63439120Y-117602640D03*
X63439120Y-112602640D03*
D13*
X49739120Y-42002640D03*
X49739120Y-49002640D03*
X51489120Y-42002640D03*
X51489120Y-49002640D03*
D14*
X47639120Y-50802640D03*
X53589120Y-50802640D03*
X47639120Y-46802640D03*
X53589120Y-46802640D03*
X47639120Y-43802640D03*
X53589120Y-43802640D03*
X49389120Y-52302640D03*
X51839120Y-52302640D03*
D15*
X109759120Y-46007640D03*
X109759120Y-49557640D03*
X128809120Y-43967640D03*
X128809120Y-47517640D03*
X147859100Y-40930100D03*
X147859100Y-44480100D03*
X166919120Y-38927640D03*
X166919120Y-42477640D03*
X185949120Y-41417640D03*
X185949120Y-44967640D03*
X205009120Y-43947640D03*
X205009120Y-47497640D03*
X109738200Y-84130300D03*
X109738200Y-87680300D03*
D16*
X99091315Y-146770140D03*
X96016925Y-148545140D03*
X115581315Y-137230140D03*
X112506925Y-139005140D03*
D15*
X147859100Y-117630100D03*
X147859100Y-121180100D03*
D17*
X106989100Y-52102600D03*
D18*
X106709100Y-47902600D03*
D19*
X106489100Y-55802600D03*
X101489100Y-58002600D03*
D20*
X101489100Y-52102600D03*
D19*
X96489100Y-55802600D03*
D18*
X96269100Y-47902600D03*
D17*
X95989100Y-52102600D03*
D21*
X98739100Y-46703600D03*
X98739100Y-48103600D03*
X104239100Y-48103600D03*
X104239100Y-46703600D03*
D22*
X104289100Y-58002600D03*
X93689100Y-55802600D03*
D17*
X164150000Y-45000000D03*
D18*
X163870000Y-40800000D03*
D19*
X163650000Y-48700000D03*
X158650000Y-50900000D03*
D20*
X158650000Y-45000000D03*
D19*
X153650000Y-48700000D03*
D18*
X153430000Y-40800000D03*
D17*
X153150000Y-45000000D03*
D21*
X155900000Y-39601000D03*
X155900000Y-41001000D03*
X161400000Y-41001000D03*
X161400000Y-39601000D03*
D22*
X161450000Y-50900000D03*
X150850000Y-48700000D03*
D17*
X106989100Y-90202600D03*
D18*
X106709100Y-86002600D03*
D19*
X106489100Y-93902600D03*
X101489100Y-96102600D03*
D20*
X101489100Y-90202600D03*
D19*
X96489100Y-93902600D03*
D18*
X96269100Y-86002600D03*
D17*
X95989100Y-90202600D03*
D21*
X98739100Y-84803600D03*
X98739100Y-86203600D03*
X104239100Y-86203600D03*
X104239100Y-84803600D03*
D22*
X104289100Y-96102600D03*
X93689100Y-93902600D03*
D17*
X126039100Y-69052600D03*
D18*
X125759100Y-64852600D03*
D19*
X125539100Y-72752600D03*
X120539100Y-74952600D03*
D20*
X120539100Y-69052600D03*
D19*
X115539100Y-72752600D03*
D18*
X115319100Y-64852600D03*
D17*
X115039100Y-69052600D03*
D21*
X117789100Y-63653600D03*
X117789100Y-65053600D03*
X123289100Y-65053600D03*
X123289100Y-63653600D03*
D22*
X123339100Y-74952600D03*
X112739100Y-72752600D03*
D17*
X108973700Y-137910740D03*
D18*
X112471007Y-135568253D03*
D19*
X105519406Y-139327727D03*
X101114150Y-136097600D03*
D20*
X106223700Y-133147600D03*
D19*
X100519406Y-130667473D03*
D18*
X107251007Y-126526947D03*
D17*
X103473700Y-128384460D03*
D23*
X109524371Y-128066530D03*
X108311936Y-128766530D03*
X111061936Y-133529670D03*
X112274371Y-132829670D03*
D24*
X102514150Y-138522471D03*
X99119406Y-128242602D03*
D17*
X164150000Y-102150000D03*
D18*
X163870000Y-97950000D03*
D19*
X163650000Y-105850000D03*
X158650000Y-108050000D03*
D20*
X158650000Y-102150000D03*
D19*
X153650000Y-105850000D03*
D18*
X153430000Y-97950000D03*
D17*
X153150000Y-102150000D03*
D21*
X155900000Y-96751000D03*
X155900000Y-98151000D03*
X161400000Y-98151000D03*
X161400000Y-96751000D03*
D22*
X161450000Y-108050000D03*
X150850000Y-105850000D03*
D17*
X202250000Y-107202600D03*
D18*
X201970000Y-103002600D03*
D19*
X201750000Y-110902600D03*
X196750000Y-113102600D03*
D20*
X196750000Y-107202600D03*
D19*
X191750000Y-110902600D03*
D18*
X191530000Y-103002600D03*
D17*
X191250000Y-107202600D03*
D21*
X194000000Y-101803600D03*
X194000000Y-103203600D03*
X199500000Y-103203600D03*
X199500000Y-101803600D03*
D22*
X199550000Y-113102600D03*
X188950000Y-110902600D03*
D17*
X164149100Y-121202600D03*
D18*
X163869100Y-117002600D03*
D19*
X163649100Y-124902600D03*
X158649100Y-127102600D03*
D20*
X158649100Y-121202600D03*
D19*
X153649100Y-124902600D03*
D18*
X153429100Y-117002600D03*
D17*
X153149100Y-121202600D03*
D21*
X155899100Y-115803600D03*
X155899100Y-117203600D03*
X161399100Y-117203600D03*
X161399100Y-115803600D03*
D22*
X161449100Y-127102600D03*
X150849100Y-124902600D03*
D17*
X202249100Y-69102600D03*
D18*
X201969100Y-64902600D03*
D19*
X201749100Y-72802600D03*
X196749100Y-75002600D03*
D20*
X196749100Y-69102600D03*
D19*
X191749100Y-72802600D03*
D18*
X191529100Y-64902600D03*
D17*
X191249100Y-69102600D03*
D21*
X193999100Y-63703600D03*
X193999100Y-65103600D03*
X199499100Y-65103600D03*
X199499100Y-63703600D03*
D22*
X199549100Y-75002600D03*
X188949100Y-72802600D03*
D17*
X221299100Y-90202600D03*
D18*
X221019100Y-86002600D03*
D19*
X220799100Y-93902600D03*
X215799100Y-96102600D03*
D20*
X215799100Y-90202600D03*
D19*
X210799100Y-93902600D03*
D18*
X210579100Y-86002600D03*
D17*
X210299100Y-90202600D03*
D21*
X213049100Y-84803600D03*
X213049100Y-86203600D03*
X218549100Y-86203600D03*
X218549100Y-84803600D03*
D22*
X218599100Y-96102600D03*
X207999100Y-93902600D03*
D17*
X221299100Y-109252600D03*
D18*
X221019100Y-105052600D03*
D19*
X220799100Y-112952600D03*
X215799100Y-115152600D03*
D20*
X215799100Y-109252600D03*
D19*
X210799100Y-112952600D03*
D18*
X210579100Y-105052600D03*
D17*
X210299100Y-109252600D03*
D21*
X213049100Y-103853600D03*
X213049100Y-105253600D03*
X218549100Y-105253600D03*
X218549100Y-103853600D03*
D22*
X218599100Y-115152600D03*
X207999100Y-112952600D03*
D25*
X206275000Y-60475000D03*
D15*
X109779120Y-65557640D03*
X109779120Y-69107640D03*
X128809120Y-62957640D03*
X128809120Y-66507640D03*
X147869100Y-60487600D03*
X147869100Y-64037600D03*
X166909100Y-57967600D03*
X166909100Y-61517600D03*
X185969100Y-60460100D03*
X185969100Y-64010100D03*
X205409120Y-65667640D03*
X205409120Y-69217640D03*
D17*
X183199100Y-47502600D03*
D18*
X182919100Y-43302600D03*
D19*
X182699100Y-51202600D03*
X177699100Y-53402600D03*
D20*
X177699100Y-47502600D03*
D19*
X172699100Y-51202600D03*
D18*
X172479100Y-43302600D03*
D17*
X172199100Y-47502600D03*
D21*
X174949100Y-42103600D03*
X174949100Y-43503600D03*
X180449100Y-43503600D03*
X180449100Y-42103600D03*
D22*
X180499100Y-53402600D03*
X169899100Y-51202600D03*
D17*
X164149100Y-64052600D03*
D18*
X163869100Y-59852600D03*
D19*
X163649100Y-67752600D03*
X158649100Y-69952600D03*
D20*
X158649100Y-64052600D03*
D19*
X153649100Y-67752600D03*
D18*
X153429100Y-59852600D03*
D17*
X153149100Y-64052600D03*
D21*
X155899100Y-58653600D03*
X155899100Y-60053600D03*
X161399100Y-60053600D03*
X161399100Y-58653600D03*
D22*
X161449100Y-69952600D03*
X150849100Y-67752600D03*
D17*
X145099100Y-66552600D03*
D18*
X144819100Y-62352600D03*
D19*
X144599100Y-70252600D03*
X139599100Y-72452600D03*
D20*
X139599100Y-66552600D03*
D19*
X134599100Y-70252600D03*
D18*
X134379100Y-62352600D03*
D17*
X134099100Y-66552600D03*
D21*
X136849100Y-61153600D03*
X136849100Y-62553600D03*
X142349100Y-62553600D03*
X142349100Y-61153600D03*
D22*
X142399100Y-72452600D03*
X131799100Y-70252600D03*
D17*
X183199100Y-85601600D03*
D18*
X182919100Y-81401600D03*
D19*
X182699100Y-89301600D03*
X177699100Y-91501600D03*
D20*
X177699100Y-85601600D03*
D19*
X172699100Y-89301600D03*
D18*
X172479100Y-81401600D03*
D17*
X172199100Y-85601600D03*
D21*
X174949100Y-80202600D03*
X174949100Y-81602600D03*
X180449100Y-81602600D03*
X180449100Y-80202600D03*
D22*
X180499100Y-91501600D03*
X169899100Y-89301600D03*
D17*
X202249100Y-50051600D03*
D18*
X201969100Y-45851600D03*
D19*
X201749100Y-53751600D03*
X196749100Y-55951600D03*
D20*
X196749100Y-50051600D03*
D19*
X191749100Y-53751600D03*
D18*
X191529100Y-45851600D03*
D17*
X191249100Y-50051600D03*
D21*
X193999100Y-44652600D03*
X193999100Y-46052600D03*
X199499100Y-46052600D03*
X199499100Y-44652600D03*
D22*
X199549100Y-55951600D03*
X188949100Y-53751600D03*
D17*
X106989100Y-71148400D03*
D18*
X106709100Y-66948400D03*
D19*
X106489100Y-74848400D03*
X101489100Y-77048400D03*
D20*
X101489100Y-71148400D03*
D19*
X96489100Y-74848400D03*
D18*
X96269100Y-66948400D03*
D17*
X95989100Y-71148400D03*
D21*
X98739100Y-65749400D03*
X98739100Y-67149400D03*
X104239100Y-67149400D03*
X104239100Y-65749400D03*
D22*
X104289100Y-77048400D03*
X93689100Y-74848400D03*
D17*
X221299100Y-128301600D03*
D18*
X221019100Y-124101600D03*
D19*
X220799100Y-132001600D03*
X215799100Y-134201600D03*
D20*
X215799100Y-128301600D03*
D19*
X210799100Y-132001600D03*
D18*
X210579100Y-124101600D03*
D17*
X210299100Y-128301600D03*
D21*
X213049100Y-122902600D03*
X213049100Y-124302600D03*
X218549100Y-124302600D03*
X218549100Y-122902600D03*
D22*
X218599100Y-134201600D03*
X207999100Y-132001600D03*
D17*
X183199100Y-66551600D03*
D18*
X182919100Y-62351600D03*
D19*
X182699100Y-70251600D03*
X177699100Y-72451600D03*
D20*
X177699100Y-66551600D03*
D19*
X172699100Y-70251600D03*
D18*
X172479100Y-62351600D03*
D17*
X172199100Y-66551600D03*
D21*
X174949100Y-61152600D03*
X174949100Y-62552600D03*
X180449100Y-62552600D03*
X180449100Y-61152600D03*
D22*
X180499100Y-72451600D03*
X169899100Y-70251600D03*
D17*
X183200000Y-104650000D03*
D18*
X182920000Y-100450000D03*
D19*
X182700000Y-108350000D03*
X177700000Y-110550000D03*
D20*
X177700000Y-104650000D03*
D19*
X172700000Y-108350000D03*
D18*
X172480000Y-100450000D03*
D17*
X172200000Y-104650000D03*
D21*
X174950000Y-99251000D03*
X174950000Y-100651000D03*
X180450000Y-100651000D03*
X180450000Y-99251000D03*
D22*
X180500000Y-110550000D03*
X169900000Y-108350000D03*
D17*
X202249100Y-126252600D03*
D18*
X201969100Y-122052600D03*
D19*
X201749100Y-129952600D03*
X196749100Y-132152600D03*
D20*
X196749100Y-126252600D03*
D19*
X191749100Y-129952600D03*
D18*
X191529100Y-122052600D03*
D17*
X191249100Y-126252600D03*
D21*
X193999100Y-120853600D03*
X193999100Y-122253600D03*
X199499100Y-122253600D03*
X199499100Y-120853600D03*
D22*
X199549100Y-132152600D03*
X188949100Y-129952600D03*
D17*
X164149100Y-83102600D03*
D18*
X163869100Y-78902600D03*
D19*
X163649100Y-86802600D03*
X158649100Y-89002600D03*
D20*
X158649100Y-83102600D03*
D19*
X153649100Y-86802600D03*
D18*
X153429100Y-78902600D03*
D17*
X153149100Y-83102600D03*
D21*
X155899100Y-77703600D03*
X155899100Y-79103600D03*
X161399100Y-79103600D03*
X161399100Y-77703600D03*
D22*
X161449100Y-89002600D03*
X150849100Y-86802600D03*
D17*
X145100000Y-47500000D03*
D18*
X144820000Y-43300000D03*
D19*
X144600000Y-51200000D03*
X139600000Y-53400000D03*
D20*
X139600000Y-47500000D03*
D19*
X134600000Y-51200000D03*
D18*
X134380000Y-43300000D03*
D17*
X134100000Y-47500000D03*
D21*
X136850000Y-42101000D03*
X136850000Y-43501000D03*
X142350000Y-43501000D03*
X142350000Y-42101000D03*
D22*
X142400000Y-53400000D03*
X131800000Y-51200000D03*
D15*
X166909100Y-115117600D03*
X166909100Y-118667600D03*
D17*
X126039100Y-88102600D03*
D18*
X125759100Y-83902600D03*
D19*
X125539100Y-91802600D03*
X120539100Y-94002600D03*
D20*
X120539100Y-88102600D03*
D19*
X115539100Y-91802600D03*
D18*
X115319100Y-83902600D03*
D17*
X115039100Y-88102600D03*
D21*
X117789100Y-82703600D03*
X117789100Y-84103600D03*
X123289100Y-84103600D03*
X123289100Y-82703600D03*
D22*
X123339100Y-94002600D03*
X112739100Y-91802600D03*
D25*
X206275000Y-99225000D03*
D15*
X147849100Y-79530100D03*
X147849100Y-83080100D03*
X166919100Y-77037600D03*
X166919100Y-80587600D03*
X185929100Y-79537600D03*
X185929100Y-83087600D03*
X205009100Y-82017600D03*
X205009100Y-85567600D03*
X185959100Y-117630100D03*
X185959100Y-121180100D03*
X204999100Y-120127600D03*
X204999100Y-123677600D03*
X205769120Y-104447640D03*
X205769120Y-107997640D03*
X128789100Y-101087600D03*
X128789100Y-104637600D03*
X147849100Y-98580100D03*
X147849100Y-102130100D03*
X166909100Y-96080100D03*
X166909100Y-99630100D03*
X185949120Y-98562640D03*
X185949120Y-102112640D03*
X128799100Y-82027600D03*
X128799100Y-85577600D03*
X224049100Y-122246600D03*
X224049100Y-125796600D03*
D17*
X126039100Y-107151600D03*
D18*
X125759100Y-102951600D03*
D19*
X125539100Y-110851600D03*
X120539100Y-113051600D03*
D20*
X120539100Y-107151600D03*
D19*
X115539100Y-110851600D03*
D18*
X115319100Y-102951600D03*
D17*
X115039100Y-107151600D03*
D21*
X117789100Y-101752600D03*
X117789100Y-103152600D03*
X123289100Y-103152600D03*
X123289100Y-101752600D03*
D22*
X123339100Y-113051600D03*
X112739100Y-110851600D03*
D25*
X110775000Y-60475000D03*
X110775000Y-99225000D03*
D17*
X87989120Y-90202640D03*
D18*
X87709120Y-86002640D03*
D19*
X87489120Y-93902640D03*
X82489120Y-96102640D03*
D20*
X82489120Y-90202640D03*
D19*
X77489120Y-93902640D03*
D18*
X77269120Y-86002640D03*
D17*
X76989120Y-90202640D03*
D21*
X79739120Y-84803640D03*
X79739120Y-86203640D03*
X85239120Y-86203640D03*
X85239120Y-84803640D03*
D22*
X85289120Y-96102640D03*
X74689120Y-93902640D03*
D17*
X221299100Y-71151600D03*
D18*
X221019100Y-66951600D03*
D19*
X220799100Y-74851600D03*
X215799100Y-77051600D03*
D20*
X215799100Y-71151600D03*
D19*
X210799100Y-74851600D03*
D18*
X210579100Y-66951600D03*
D17*
X210299100Y-71151600D03*
D21*
X213049100Y-65752600D03*
X213049100Y-67152600D03*
X218549100Y-67152600D03*
X218549100Y-65752600D03*
D22*
X218599100Y-77051600D03*
X207999100Y-74851600D03*
D17*
X87989120Y-71102640D03*
D18*
X87709120Y-66902640D03*
D19*
X87489120Y-74802640D03*
X82489120Y-77002640D03*
D20*
X82489120Y-71102640D03*
D19*
X77489120Y-74802640D03*
D18*
X77269120Y-66902640D03*
D17*
X76989120Y-71102640D03*
D21*
X79739120Y-65703640D03*
X79739120Y-67103640D03*
X85239120Y-67103640D03*
X85239120Y-65703640D03*
D22*
X85289120Y-77002640D03*
X74689120Y-74802640D03*
D17*
X202249100Y-88152600D03*
D18*
X201969100Y-83952600D03*
D19*
X201749100Y-91852600D03*
X196749100Y-94052600D03*
D20*
X196749100Y-88152600D03*
D19*
X191749100Y-91852600D03*
D18*
X191529100Y-83952600D03*
D17*
X191249100Y-88152600D03*
D21*
X193999100Y-82753600D03*
X193999100Y-84153600D03*
X199499100Y-84153600D03*
X199499100Y-82753600D03*
D22*
X199549100Y-94052600D03*
X188949100Y-91852600D03*
D15*
X224059100Y-84156600D03*
X224059100Y-87706600D03*
X71839120Y-84327640D03*
X71839120Y-87877640D03*
D17*
X145089100Y-85602600D03*
D18*
X144809100Y-81402600D03*
D19*
X144589100Y-89302600D03*
X139589100Y-91502600D03*
D20*
X139589100Y-85602600D03*
D19*
X134589100Y-89302600D03*
D18*
X134369100Y-81402600D03*
D17*
X134089100Y-85602600D03*
D21*
X136839100Y-80203600D03*
X136839100Y-81603600D03*
X142339100Y-81603600D03*
X142339100Y-80203600D03*
D22*
X142389100Y-91502600D03*
X131789100Y-89302600D03*
D15*
X90339120Y-84327640D03*
X90339120Y-87877640D03*
D17*
X68989120Y-52191100D03*
D18*
X68709120Y-47991100D03*
D19*
X68489120Y-55891100D03*
X63489120Y-58091100D03*
D20*
X63489120Y-52191100D03*
D19*
X58489120Y-55891100D03*
D18*
X58269120Y-47991100D03*
D17*
X57989120Y-52191100D03*
D21*
X60739120Y-46792100D03*
X60739120Y-48192100D03*
X66239120Y-48192100D03*
X66239120Y-46792100D03*
D22*
X66289120Y-58091100D03*
X55689120Y-55891100D03*
D15*
X71839120Y-65327640D03*
X71839120Y-68877640D03*
D17*
X221299100Y-52102600D03*
D18*
X221019100Y-47902600D03*
D19*
X220799100Y-55802600D03*
X215799100Y-58002600D03*
D20*
X215799100Y-52102600D03*
D19*
X210799100Y-55802600D03*
D18*
X210579100Y-47902600D03*
D17*
X210299100Y-52102600D03*
D21*
X213049100Y-46703600D03*
X213049100Y-48103600D03*
X218549100Y-48103600D03*
X218549100Y-46703600D03*
D22*
X218599100Y-58002600D03*
X207999100Y-55802600D03*
D15*
X224059100Y-103196600D03*
X224059100Y-106746600D03*
D17*
X87989120Y-109202640D03*
D18*
X87709120Y-105002640D03*
D19*
X87489120Y-112902640D03*
X82489120Y-115102640D03*
D20*
X82489120Y-109202640D03*
D19*
X77489120Y-112902640D03*
D18*
X77269120Y-105002640D03*
D17*
X76989120Y-109202640D03*
D21*
X79739120Y-103803640D03*
X79739120Y-105203640D03*
X85239120Y-105203640D03*
X85239120Y-103803640D03*
D22*
X85289120Y-115102640D03*
X74689120Y-112902640D03*
D17*
X145099100Y-104652600D03*
D18*
X144819100Y-100452600D03*
D19*
X144599100Y-108352600D03*
X139599100Y-110552600D03*
D20*
X139599100Y-104652600D03*
D19*
X134599100Y-108352600D03*
D18*
X134379100Y-100452600D03*
D17*
X134099100Y-104652600D03*
D21*
X136849100Y-99253600D03*
X136849100Y-100653600D03*
X142349100Y-100653600D03*
X142349100Y-99253600D03*
D22*
X142399100Y-110552600D03*
X131799100Y-108352600D03*
D17*
X68999120Y-90202640D03*
D18*
X68719120Y-86002640D03*
D19*
X68499120Y-93902640D03*
X63499120Y-96102640D03*
D20*
X63499120Y-90202640D03*
D19*
X58499120Y-93902640D03*
D18*
X58279120Y-86002640D03*
D17*
X57999120Y-90202640D03*
D21*
X60749120Y-84803640D03*
X60749120Y-86203640D03*
X66249120Y-86203640D03*
X66249120Y-84803640D03*
D22*
X66299120Y-96102640D03*
X55699120Y-93902640D03*
D15*
X71839120Y-46327640D03*
X71839120Y-49877640D03*
X90839120Y-103327640D03*
X90839120Y-106877640D03*
X90839120Y-65327640D03*
X90839120Y-68877640D03*
X224069120Y-46017640D03*
X224069120Y-49567640D03*
X90839120Y-46552640D03*
X90839120Y-50102640D03*
D26*
X46519120Y-122722640D03*
D27*
X49059120Y-122722640D03*
X51599120Y-122722640D03*
X54139120Y-122722640D03*
X56679120Y-122722640D03*
X59219120Y-122722640D03*
X61759120Y-122722640D03*
X64299120Y-122722640D03*
X66839120Y-122722640D03*
X66839120Y-120182640D03*
X66839120Y-117642640D03*
X66839120Y-115102640D03*
X66839120Y-112562640D03*
X66839120Y-110022640D03*
X66839120Y-107482640D03*
X64299120Y-107482640D03*
X61759120Y-107482640D03*
X59219120Y-107482640D03*
X56679120Y-107482640D03*
X54139120Y-107482640D03*
X51599120Y-107482640D03*
X49059120Y-107482640D03*
X46519120Y-107482640D03*
D17*
X68999120Y-71148440D03*
D18*
X68719120Y-66948440D03*
D19*
X68499120Y-74848440D03*
X63499120Y-77048440D03*
D20*
X63499120Y-71148440D03*
D19*
X58499120Y-74848440D03*
D18*
X58279120Y-66948440D03*
D17*
X57999120Y-71148440D03*
D21*
X60749120Y-65749440D03*
X60749120Y-67149440D03*
X66249120Y-67149440D03*
X66249120Y-65749440D03*
D22*
X66299120Y-77048440D03*
X55699120Y-74848440D03*
D17*
X87989120Y-52202640D03*
D18*
X87709120Y-48002640D03*
D19*
X87489120Y-55902640D03*
X82489120Y-58102640D03*
D20*
X82489120Y-52202640D03*
D19*
X77489120Y-55902640D03*
D18*
X77269120Y-48002640D03*
D17*
X76989120Y-52202640D03*
D21*
X79739120Y-46803640D03*
X79739120Y-48203640D03*
X85239120Y-48203640D03*
X85239120Y-46803640D03*
D22*
X85289120Y-58102640D03*
X74689120Y-55902640D03*
D17*
X92473700Y-147437640D03*
D18*
X95971007Y-145095153D03*
D19*
X89019406Y-148854627D03*
X84614150Y-145624500D03*
D20*
X89723700Y-142674500D03*
D19*
X84019406Y-140194373D03*
D18*
X90751007Y-136053847D03*
D17*
X86973700Y-137911360D03*
D23*
X93024371Y-137593430D03*
X91811936Y-138293430D03*
X94561936Y-143056570D03*
X95774371Y-142356570D03*
D24*
X86014150Y-148049371D03*
X82619406Y-137769502D03*
D15*
X224059100Y-65096600D03*
X224059100Y-68646600D03*
D17*
X145099100Y-123701600D03*
D18*
X144819100Y-119501600D03*
D19*
X144599100Y-127401600D03*
X139599100Y-129601600D03*
D20*
X139599100Y-123701600D03*
D19*
X134599100Y-127401600D03*
D18*
X134379100Y-119501600D03*
D17*
X134099100Y-123701600D03*
D21*
X136849100Y-118302600D03*
X136849100Y-119702600D03*
X142349100Y-119702600D03*
X142349100Y-118302600D03*
D22*
X142399100Y-129601600D03*
X131799100Y-127401600D03*
D17*
X183199100Y-123702600D03*
D18*
X182919100Y-119502600D03*
D19*
X182699100Y-127402600D03*
X177699100Y-129602600D03*
D20*
X177699100Y-123702600D03*
D19*
X172699100Y-127402600D03*
D18*
X172479100Y-119502600D03*
D17*
X172199100Y-123702600D03*
D21*
X174949100Y-118303600D03*
X174949100Y-119703600D03*
X180449100Y-119703600D03*
X180449100Y-118303600D03*
D22*
X180499100Y-129602600D03*
X169899100Y-127402600D03*
D17*
X126049100Y-50052600D03*
D18*
X125769100Y-45852600D03*
D19*
X125549100Y-53752600D03*
X120549100Y-55952600D03*
D20*
X120549100Y-50052600D03*
D19*
X115549100Y-53752600D03*
D18*
X115329100Y-45852600D03*
D17*
X115049100Y-50052600D03*
D21*
X117799100Y-44653600D03*
X117799100Y-46053600D03*
X123299100Y-46053600D03*
X123299100Y-44653600D03*
D22*
X123349100Y-55952600D03*
X112749100Y-53752600D03*
D28*
X51639120Y-114802640D03*
X66539120Y-88702640D03*
X210689120Y-122852640D03*
X50239120Y-81302640D03*
X76239120Y-64002640D03*
X90939120Y-60202640D03*
X54739120Y-81302640D03*
X58439120Y-81002640D03*
X50339120Y-105302640D03*
X50339120Y-109602640D03*
X91939120Y-99402640D03*
X88439120Y-84102640D03*
X79339120Y-90702640D03*
X80039120Y-53602640D03*
X60639120Y-53302640D03*
X79539120Y-70202640D03*
X66639120Y-70002640D03*
X77939120Y-65703640D03*
X148039120Y-35602640D03*
X62639120Y-42502640D03*
X208439120Y-136902640D03*
X70039120Y-45702640D03*
X91659120Y-44622640D03*
X85464120Y-52327640D03*
X74689120Y-61502640D03*
X78339120Y-62573640D03*
X91489120Y-63152640D03*
X85564120Y-71127640D03*
X90439120Y-78402640D03*
X76339120Y-83102640D03*
X73589120Y-85852640D03*
X89139120Y-80652640D03*
X85714120Y-90077640D03*
X89539120Y-97102640D03*
X70339120Y-88702640D03*
X66299120Y-91042640D03*
X69939120Y-69302640D03*
X73601620Y-63565140D03*
X61139120Y-73802640D03*
X63658350Y-55121870D03*
X71239120Y-77702640D03*
X56620120Y-77202640D03*
X56639120Y-96202640D03*
X57439120Y-59602640D03*
X70239120Y-50912100D03*
X73001620Y-45165140D03*
X104289100Y-60942640D03*
X110529120Y-51282640D03*
X130249120Y-48972640D03*
X123349100Y-58652640D03*
X142329120Y-56572640D03*
X149369120Y-45972640D03*
X161439120Y-54032640D03*
X168259120Y-43812640D03*
X187359120Y-47642640D03*
X180499120Y-56572640D03*
X206419120Y-49542640D03*
X199539120Y-59012640D03*
X224859120Y-51512640D03*
X218649120Y-60942640D03*
X104289100Y-79882640D03*
X111179120Y-70532640D03*
X123349120Y-78162640D03*
X130269120Y-68002640D03*
X142409120Y-75527610D03*
X148909120Y-66562640D03*
X161439120Y-73112640D03*
X168279120Y-62922640D03*
X187259120Y-65372640D03*
X180499100Y-75582640D03*
X199589120Y-77952640D03*
X207129120Y-70512640D03*
X225009120Y-70312640D03*
X218799120Y-79862640D03*
X111139120Y-89122640D03*
X104289120Y-99282640D03*
X130179120Y-87052640D03*
X123339100Y-96922640D03*
X142389100Y-94562640D03*
X148779120Y-84802640D03*
X161449100Y-91962620D03*
X168669120Y-82342640D03*
X180499100Y-94642640D03*
X187459120Y-84642640D03*
X199549100Y-96962640D03*
X206449120Y-87032640D03*
X218599100Y-98952640D03*
X224969120Y-89522640D03*
X82404120Y-149027640D03*
X96024120Y-150947640D03*
X128779120Y-106872640D03*
X123339100Y-115922640D03*
X147859120Y-104472640D03*
X142399100Y-113412640D03*
X168249120Y-101022640D03*
X161450000Y-111212640D03*
X187569120Y-104082640D03*
X180500000Y-113672640D03*
X199559120Y-116342640D03*
X206949120Y-109472640D03*
X59044620Y-49808140D03*
X93649120Y-48482640D03*
X192979120Y-42082640D03*
X59614370Y-87172890D03*
X212429120Y-120182640D03*
X130669120Y-64532640D03*
X79839120Y-101102640D03*
X95039120Y-84803600D03*
X113609120Y-104162640D03*
X89494120Y-130747640D03*
X171809120Y-115932640D03*
X97219120Y-108152640D03*
X79839120Y-63102640D03*
X212659120Y-63482640D03*
X133209120Y-116212640D03*
X97279120Y-63742640D03*
X134229120Y-94422640D03*
X114139120Y-48242640D03*
X155559120Y-113642640D03*
X107214120Y-124737640D03*
X128869120Y-97002640D03*
X114959120Y-101402640D03*
X193269120Y-118072640D03*
X134489120Y-58712640D03*
X209459120Y-102632640D03*
X155669120Y-56342640D03*
X192779120Y-79802640D03*
X134839120Y-97492640D03*
X192939120Y-99012640D03*
X212409120Y-43682640D03*
X174129120Y-39832640D03*
X155249120Y-93882640D03*
X212379120Y-81912640D03*
X154099120Y-38582640D03*
X117359120Y-80362640D03*
X174379120Y-58812640D03*
X132139120Y-45452640D03*
X73339120Y-49102640D03*
X98349120Y-49532640D03*
X171179120Y-102292640D03*
X111649120Y-48242640D03*
X76339120Y-87203640D03*
X70339120Y-67850640D03*
X117799100Y-42422620D03*
X117789120Y-99452640D03*
X171479120Y-83182640D03*
X193289120Y-60922640D03*
X134319120Y-77902640D03*
X116279120Y-47573580D03*
X155899120Y-75322640D03*
X166939120Y-121612640D03*
X94239120Y-78732640D03*
X185909120Y-85732640D03*
X199499120Y-41852640D03*
X151939120Y-41842640D03*
X220119120Y-64042640D03*
X185949120Y-75042640D03*
X210469120Y-117072640D03*
X199499120Y-61482640D03*
X161419120Y-64452640D03*
X220549120Y-102272640D03*
X133189120Y-79192640D03*
X142350000Y-40362640D03*
X123349120Y-68512640D03*
X203049120Y-105202640D03*
X111061936Y-136147640D03*
X122519120Y-42752640D03*
X104789120Y-70152640D03*
X219599120Y-82132640D03*
X199499120Y-80492640D03*
X177879120Y-115992640D03*
X199619120Y-68792640D03*
X218939120Y-89042640D03*
X152149120Y-53542640D03*
X185969120Y-105032640D03*
X204879120Y-50982640D03*
X146189120Y-61422640D03*
X218899120Y-108182640D03*
X123289120Y-87452640D03*
X123299120Y-48582640D03*
X219679120Y-121142640D03*
X142819120Y-103512640D03*
X161399120Y-43492640D03*
X205009120Y-88402640D03*
X161389120Y-94212640D03*
X133629120Y-98882640D03*
X224049120Y-60482640D03*
X199529120Y-105952640D03*
X116879120Y-58662640D03*
X199489120Y-118532640D03*
X161529120Y-120692640D03*
X181849120Y-77992640D03*
X161399120Y-75312640D03*
X155559120Y-101112640D03*
X180849120Y-84702640D03*
X85339120Y-45102640D03*
X107839120Y-46692640D03*
X92339120Y-109102640D03*
X163889120Y-38422640D03*
X122519120Y-61222640D03*
X143529120Y-116022640D03*
X123299120Y-80522640D03*
X142629120Y-84582640D03*
X128719120Y-88322640D03*
X106909120Y-84032640D03*
X166789120Y-83462640D03*
X199499120Y-86802640D03*
X161389120Y-84072640D03*
X180909120Y-65852640D03*
X199499120Y-125102640D03*
X142779120Y-65202640D03*
X103244120Y-121187640D03*
X134509120Y-74632640D03*
X125829120Y-104482640D03*
X166639120Y-64632640D03*
X139319120Y-78002640D03*
X117409120Y-49622640D03*
X142769120Y-46442640D03*
X219049120Y-51102640D03*
X103214120Y-124397640D03*
X160879120Y-113952640D03*
X205129120Y-113462640D03*
X142689120Y-122622640D03*
X143729120Y-97542640D03*
X106349120Y-65342640D03*
X161389120Y-56542640D03*
X219109120Y-126932640D03*
X216769120Y-43622640D03*
X142814120Y-59047640D03*
X182229120Y-59632640D03*
X219019120Y-70142640D03*
X182279120Y-97822640D03*
X166819120Y-45432640D03*
X168789120Y-37972640D03*
X185619120Y-48012640D03*
X179359120Y-39862640D03*
X94564120Y-145827640D03*
X180719120Y-122722640D03*
X128629120Y-69272640D03*
X224049120Y-79322640D03*
X147929120Y-113062640D03*
X199489120Y-99832640D03*
X225169120Y-109272640D03*
X218599100Y-118122640D03*
X98944120Y-139387640D03*
X112514120Y-140917640D03*
X142399120Y-132582640D03*
X149299120Y-122662640D03*
X97269120Y-48692640D03*
X102839120Y-64012620D03*
X115999120Y-44762640D03*
X131979120Y-41502640D03*
X130089120Y-42412640D03*
X128789120Y-42352640D03*
X166919120Y-37472640D03*
X109769120Y-44482640D03*
X224069120Y-44362640D03*
X185959120Y-40042640D03*
X147869120Y-39602640D03*
X205029120Y-41952640D03*
X70226620Y-82715140D03*
X109739120Y-82292640D03*
X204979120Y-79472640D03*
X185929120Y-78072640D03*
X147849100Y-77512640D03*
X221709120Y-80412640D03*
X166919120Y-74932640D03*
X128759120Y-80312640D03*
X224059120Y-81392640D03*
X133799120Y-42122640D03*
X141329120Y-58552640D03*
X171269120Y-38952640D03*
X181969120Y-40512640D03*
X168999120Y-40222640D03*
X152047480Y-39601000D03*
X180439120Y-58972640D03*
X173063630Y-41968130D03*
X218569120Y-43122640D03*
X191119120Y-43832640D03*
X168739120Y-120922640D03*
X161449100Y-130022620D03*
X210629120Y-45922640D03*
X216079120Y-63782640D03*
X81929120Y-81863640D03*
X90239120Y-81863640D03*
X104239120Y-82462640D03*
X78440120Y-85501640D03*
X115969120Y-82652640D03*
X124889120Y-61402640D03*
X134429120Y-60712640D03*
X142329120Y-78252640D03*
X163379120Y-61252640D03*
X154119120Y-76542640D03*
X201549120Y-62582640D03*
X191349120Y-82152640D03*
X187439120Y-122722640D03*
X180499100Y-132682640D03*
X94839120Y-101102640D03*
X88887120Y-103650640D03*
X96229120Y-82392640D03*
X142299120Y-97222640D03*
X135009120Y-79322640D03*
X172619120Y-79872640D03*
X180449120Y-97112640D03*
X199549120Y-135177640D03*
X206249120Y-125012640D03*
X218549120Y-101732640D03*
X210619120Y-83902640D03*
X218599100Y-137282640D03*
X225609120Y-127402640D03*
X163309120Y-118522640D03*
X134299120Y-117852640D03*
X172589120Y-117702640D03*
X202189120Y-119432640D03*
X89464120Y-133817640D03*
X110774120Y-138727640D03*
X109514120Y-118987640D03*
X126769120Y-105302640D03*
X163449120Y-99342640D03*
X153579120Y-115472640D03*
X191839120Y-120412640D03*
X201389120Y-100922640D03*
X131819120Y-68112640D03*
X131799120Y-48962640D03*
X131809120Y-125142640D03*
X131809120Y-87122640D03*
X131809120Y-106222640D03*
X185959120Y-58992640D03*
X111329120Y-65582640D03*
X166909120Y-56472640D03*
X223019120Y-62607640D03*
X145819120Y-59652640D03*
X207259120Y-64932640D03*
X128849120Y-61772640D03*
X185909120Y-96902640D03*
X207319120Y-102642640D03*
X99169120Y-105702640D03*
X147849100Y-96542620D03*
X224059120Y-101242640D03*
X92310120Y-104631640D03*
X99114120Y-144267640D03*
X128779120Y-99142640D03*
X95739120Y-105702640D03*
X73339120Y-102102640D03*
X166909120Y-94012640D03*
X112749120Y-89572640D03*
X112749120Y-108632640D03*
X126839120Y-114602640D03*
X112749120Y-70512640D03*
X112749100Y-51622640D03*
X115584120Y-129607640D03*
X94034120Y-122607640D03*
X83839120Y-120637640D03*
X166889120Y-113332640D03*
X205039120Y-118532640D03*
X224029120Y-120242640D03*
X147869120Y-116132640D03*
X185959120Y-115582640D03*
X108994120Y-123227640D03*
X169899120Y-68202640D03*
X169899120Y-106252640D03*
X169919120Y-49042640D03*
X169899120Y-125302640D03*
X169899120Y-87192640D03*
X150859120Y-103732640D03*
X150849120Y-65592640D03*
X150849120Y-46502640D03*
X153339120Y-131102640D03*
X150859120Y-84762640D03*
X150859120Y-122842640D03*
X151339120Y-129102640D03*
X207989120Y-53632640D03*
X207989120Y-110752640D03*
X207989120Y-129822640D03*
X208019120Y-72742640D03*
X207999120Y-91792640D03*
X95184120Y-125757640D03*
X94339120Y-53572640D03*
X82624120Y-135537640D03*
X93699120Y-72692640D03*
X93689120Y-91722640D03*
X188949120Y-127942640D03*
X188949120Y-108822640D03*
X188949120Y-70682640D03*
X183339120Y-135602640D03*
X185839120Y-133102640D03*
X188959120Y-51582640D03*
X188949120Y-89822640D03*
X50639120Y-43802640D03*
X88339120Y-65102640D03*
X92839120Y-68102640D03*
X98749120Y-69302640D03*
X60839120Y-45646850D03*
X87839120Y-46602640D03*
X59339120Y-67602640D03*
X69339120Y-84102640D03*
X46839120Y-56602640D03*
X68940120Y-46703640D03*
X86839120Y-117602640D03*
X71339120Y-97102640D03*
X85514120Y-109277640D03*
X89339120Y-106877640D03*
X78339120Y-49102640D03*
X106299120Y-44643580D03*
X92905610Y-50642640D03*
X92839120Y-117602640D03*
X94839120Y-119102640D03*
X96534120Y-139937640D03*
X77839120Y-103602640D03*
X69339120Y-65102640D03*
X87339120Y-82602640D03*
X63339120Y-81602640D03*
X115790080Y-63653600D03*
X126379120Y-43072640D03*
X153439120Y-58322640D03*
X163899120Y-39362640D03*
X202229120Y-43462640D03*
X191299120Y-62952640D03*
X179989120Y-77422640D03*
X172719120Y-60862640D03*
X210809120Y-65562640D03*
X217319120Y-81542640D03*
X116089120Y-101722640D03*
X126679120Y-82692640D03*
X124419120Y-85502640D03*
X163359120Y-80422640D03*
X154029120Y-96232640D03*
X202209120Y-81572640D03*
X191429120Y-100952640D03*
X132789120Y-103082640D03*
X140919120Y-115842640D03*
X179809120Y-115412640D03*
X172869120Y-99222640D03*
X218519120Y-120612640D03*
X211329120Y-103552640D03*
M02*
